SplineFontDB: 3.0
FontName: Strobrod-Bold
FullName: Strobrod Bold
FamilyName: Strobrod
Weight: Bold
Copyright: CC, Aaron Christianson, Nicolas Mercier
UComments: "2017-3-27: Created with FontForge (http://fontforge.org)"
Version: 001.000
StrokeWidth: 614
ItalicAngle: 0
UnderlinePosition: -68.2667
UnderlineWidth: 0
Ascent: 819
Descent: 205
InvalidEm: 0
LayerCount: 2
Layer: 0 0 "Back" 1
Layer: 1 0 "Fore" 0
StrokedFont: 1
XUID: [1021 68 1269985762 15680502]
StyleMap: 0x0020
FSType: 0
OS2Version: 0
OS2_WeightWidthSlopeOnly: 0
OS2_UseTypoMetrics: 1
CreationTime: 1490615230
ModificationTime: 1495368027
PfmFamily: 49
TTFWeight: 700
TTFWidth: 5
LineGap: 0
VLineGap: 0
Panose: 2 11 8 9 0 0 0 0 0 0
OS2TypoAscent: 546
OS2TypoAOffset: 0
OS2TypoDescent: -137
OS2TypoDOffset: 0
OS2TypoLinegap: 0
OS2WinAscent: 546
OS2WinAOffset: 0
OS2WinDescent: 137
OS2WinDOffset: 0
HheadAscent: 546
HheadAOffset: 0
HheadDescent: -137
HheadDOffset: 0
OS2Vendor: 'PfEd'
MacStyle: 1
MarkAttachClasses: 1
DEI: 91125
LangName: 1033
Encoding: iso8859-15
UnicodeInterp: none
NameList: AGL For New Fonts
DisplaySize: 10
AntiAlias: 1
FitToEm: 0
WinInfo: 0 61 21
BeginPrivate: 0
EndPrivate
TeXData: 1 0 0 628097 314049 209365 524288 1048576 209365 783286 444596 497025 792723 393216 433062 380633 303038 157286 324010 404750 52429 2506097 1059062 262144
BeginChars: 545 545

StartChar: exclam
Encoding: 33 33 1
Width: 409
VWidth: 0
Flags: W
HStem: 0 68<134 267> 410 0G<134 267>
VStem: 137 137<0 67 134 400>
LayerCount: 2
Back
Fore
SplineSet
137 68 m 25
 273 68 l 25
 273 0 l 25
 137 0 l 25
 137 68 l 25
137 410 m 25
 273 410 l 25
 273 137 l 25
 137 137 l 25
 137 410 l 25
EndSplineSet
EndChar

StartChar: quotedbl
Encoding: 34 34 2
Width: 409
VWidth: 0
Flags: W
HStem: 341 137<67 200 267 334>
VStem: 68 137<334 466> 273 68<334 466>
LayerCount: 2
Back
Fore
SplineSet
273 478 m 25
 341 478 l 25
 341 341 l 25
 273 341 l 25
 273 478 l 25
68 478 m 25
 205 478 l 25
 205 341 l 25
 68 341 l 25
 68 478 l 25
EndSplineSet
EndChar

StartChar: numbersign
Encoding: 35 35 3
Width: 409
VWidth: 0
Flags: W
HStem: 137 68<0 67 200 267 334 400> 273 68<0 67 200 267 334 400> 410 0G<67 200 267 334>
VStem: 68 137<67 134 200 267 334 400> 273 68<67 134 200 267 334 400>
LayerCount: 2
Back
Fore
SplineSet
205 273 m 25
 205 205 l 25
 273 205 l 25
 273 273 l 25
 205 273 l 25
68 410 m 25
 205 410 l 25
 205 341 l 25
 273 341 l 25
 273 410 l 25
 341 410 l 25
 341 341 l 25
 410 341 l 25
 410 273 l 25
 341 273 l 25
 341 205 l 25
 410 205 l 25
 410 137 l 25
 341 137 l 25
 341 68 l 25
 273 68 l 25
 273 137 l 25
 205 137 l 25
 205 68 l 25
 68 68 l 25
 68 137 l 25
 0 137 l 25
 0 205 l 25
 68 205 l 25
 68 273 l 25
 0 273 l 25
 0 341 l 25
 68 341 l 25
 68 410 l 25
EndSplineSet
EndChar

StartChar: dollar
Encoding: 36 36 4
Width: 409
VWidth: 0
Flags: W
HStem: -68 137<134 267> 0 68<67 134> 68 68<334 400> 137 68<134 267> 205 68<0 67> 273 137<134 267> 273 68<267 334>
VStem: 68 273<0 67 134 200 267 334> 137 137<-67 0 334 400>
LayerCount: 2
Back
Fore
SplineSet
68 341 m 25x03
 137 341 l 25x0280
 137 410 l 25
 273 410 l 25x0480
 273 341 l 25x0280
 341 341 l 25
 341 273 l 25x03
 137 273 l 25
 137 205 l 25x1480
 341 205 l 25
 341 137 l 25
 410 137 l 25
 410 68 l 25
 341 68 l 25x29
 341 0 l 25x41
 273 0 l 25x4080
 273 -68 l 25
 137 -68 l 25x8080
 137 0 l 25x4080
 68 0 l 25
 68 68 l 25x41
 273 68 l 25
 273 137 l 25x9080
 68 137 l 25x91
 68 205 l 25
 0 205 l 25
 0 273 l 25
 68 273 l 25x09
 68 341 l 25x03
EndSplineSet
EndChar

StartChar: percent
Encoding: 37 37 5
Width: 409
VWidth: 0
Flags: W
HStem: 68 68<267 334> 341 68<67 134>
VStem: 68 68<67 134 334 400> 273 68<67 134 334 400>
LayerCount: 2
Back
Fore
SplineSet
273 137 m 25
 341 137 l 25
 341 68 l 25
 273 68 l 25
 273 137 l 25
68 205 m 25
 137 205 l 25
 137 273 l 25
 205 273 l 25
 205 341 l 25
 273 341 l 25
 273 410 l 25
 341 410 l 25
 341 273 l 25
 273 273 l 25
 273 205 l 25
 205 205 l 25
 205 137 l 25
 137 137 l 25
 137 68 l 25
 68 68 l 25
 68 205 l 25
68 410 m 25
 137 410 l 25
 137 341 l 25
 68 341 l 25
 68 410 l 25
EndSplineSet
EndChar

StartChar: ampersand
Encoding: 38 38 6
Width: 409
VWidth: 0
Flags: W
HStem: 0 68<200 267 334 400> 68 137<67 134 267 334> 205 68<334 400> 410 68<267 334>
VStem: 68 137<67 200> 137 137<0 67 200 400> 273 68<67 200> 341 68<0 67 200 267>
LayerCount: 2
Back
Fore
SplineSet
205 478 m 25x58
 341 478 l 25
 341 410 l 25
 273 410 l 25
 273 205 l 25x55
 205 205 l 25
 205 68 l 25xb8
 273 68 l 25xb4
 273 205 l 25x54
 341 205 l 25x52
 341 273 l 25
 410 273 l 25
 410 205 l 25x31
 341 205 l 25x52
 341 68 l 25x92
 410 68 l 25
 410 0 l 25
 341 0 l 25x91
 341 68 l 25x92
 273 68 l 25
 273 0 l 25
 137 0 l 25x94
 137 68 l 25x54
 68 68 l 25
 68 205 l 25x58
 137 205 l 25
 137 410 l 25x54
 205 410 l 25
 205 478 l 25x58
EndSplineSet
EndChar

StartChar: quotesingle
Encoding: 39 39 7
Width: 409
VWidth: 0
Flags: W
HStem: 341 137<134 267>
VStem: 137 137<334 466>
LayerCount: 2
Back
Fore
SplineSet
137 478 m 25
 273 478 l 25
 273 341 l 25
 137 341 l 25
 137 478 l 25
EndSplineSet
EndChar

StartChar: parenleft
Encoding: 40 40 8
Width: 409
VWidth: 0
Flags: W
HStem: -68 68<200 267> 410 68<200 267>
VStem: 68 137<0 400> 137 137<-67 0 400 466>
LayerCount: 2
Back
Fore
SplineSet
137 478 m 25xd0
 273 478 l 25
 273 410 l 25xd0
 205 410 l 25
 205 0 l 25xe0
 273 0 l 25
 273 -68 l 25
 137 -68 l 25
 137 0 l 25xd0
 68 0 l 25
 68 410 l 25xe0
 137 410 l 25
 137 478 l 25xd0
EndSplineSet
EndChar

StartChar: parenright
Encoding: 41 41 9
Width: 409
VWidth: 0
Flags: W
HStem: -68 68<67 134> 410 68<67 134>
VStem: 68 137<-67 0 400 466> 137 137<0 400>
LayerCount: 2
Back
Fore
SplineSet
68 478 m 25xe0
 205 478 l 25
 205 410 l 25xe0
 273 410 l 25
 273 0 l 25xd0
 205 0 l 25
 205 -68 l 25
 68 -68 l 25
 68 0 l 25xe0
 137 0 l 25
 137 410 l 25xd0
 68 410 l 25
 68 478 l 25xe0
EndSplineSet
EndChar

StartChar: asterisk
Encoding: 42 42 10
Width: 409
VWidth: 0
Flags: W
HStem: 137 68<0 67 334 400> 273 68<0 67 334 400> 410 0G<134 267>
VStem: 137 137<67 134 334 400>
LayerCount: 2
Back
Fore
SplineSet
0 341 m 25
 137 341 l 25
 137 410 l 25
 273 410 l 25
 273 341 l 25
 410 341 l 25
 410 273 l 25
 341 273 l 25
 341 205 l 25
 410 205 l 25
 410 137 l 25
 273 137 l 25
 273 68 l 25
 137 68 l 25
 137 137 l 25
 0 137 l 25
 0 205 l 25
 68 205 l 25
 68 273 l 25
 0 273 l 25
 0 341 l 25
EndSplineSet
EndChar

StartChar: plus
Encoding: 43 43 11
Width: 409
VWidth: 0
Flags: W
HStem: 0 0G<134 267> 137 68<0 134 267 400> 341 0G<134 267>
VStem: 137 137<0 134 200 334>
LayerCount: 2
Back
Fore
SplineSet
137 341 m 25
 273 341 l 25
 273 205 l 25
 410 205 l 25
 410 137 l 25
 273 137 l 25
 273 0 l 25
 137 0 l 25
 137 137 l 25
 0 137 l 25
 0 205 l 25
 137 205 l 25
 137 341 l 25
EndSplineSet
EndChar

StartChar: comma
Encoding: 44 44 12
Width: 409
VWidth: 0
Flags: W
HStem: -68 68<67 134>
VStem: 137 137<0 134>
LayerCount: 2
Back
Fore
SplineSet
137 137 m 25
 273 137 l 25
 273 0 l 25
 205 0 l 25
 205 -68 l 25
 68 -68 l 25
 68 0 l 25
 137 0 l 25
 137 137 l 25
EndSplineSet
EndChar

StartChar: hyphen
Encoding: 45 45 13
Width: 409
VWidth: 0
Flags: W
HStem: 137 68<67 400>
LayerCount: 2
Back
Fore
SplineSet
68 205 m 25
 410 205 l 25
 410 137 l 25
 68 137 l 25
 68 205 l 25
EndSplineSet
EndChar

StartChar: period
Encoding: 46 46 14
Width: 409
VWidth: 0
Flags: W
HStem: 0 137<134 267>
VStem: 137 137<0 134>
LayerCount: 2
Back
Fore
SplineSet
137 137 m 25
 273 137 l 25
 273 0 l 25
 137 0 l 25
 137 137 l 25
EndSplineSet
EndChar

StartChar: slash
Encoding: 47 47 15
Width: 409
VWidth: 0
Flags: W
HStem: -68 0G<67 200> 478 0G<267 400>
VStem: 68 137<-67 67> 137 137<67 200> 205 137<200 334> 273 137<334 466>
LayerCount: 2
Back
Fore
SplineSet
68 68 m 25xe0
 137 68 l 25
 137 205 l 25xd0
 205 205 l 25
 205 341 l 25xc8
 273 341 l 25
 273 478 l 25
 410 478 l 25
 410 341 l 25xc4
 341 341 l 25
 341 205 l 25xc8
 273 205 l 25
 273 68 l 25xd0
 205 68 l 25
 205 -68 l 25
 68 -68 l 25
 68 68 l 25xe0
EndSplineSet
EndChar

StartChar: zero
Encoding: 48 48 16
Width: 409
VWidth: 0
Flags: W
HStem: 0 68<200 267> 205 68<200 267> 341 0G<267 334> 341 68<200 267>
VStem: 68 137<67 200 267 334> 137 137<0 67 334 400> 273 68<67 200 267 334>
LayerCount: 2
Back
Fore
SplineSet
68 341 m 25xd8
 137 341 l 25
 137 410 l 25
 273 410 l 25xd4
 273 341 l 25xe4
 205 341 l 25
 205 273 l 25
 273 273 l 25xda
 273 341 l 25xe4
 341 341 l 25
 341 68 l 25xe2
 273 68 l 25xe4
 273 205 l 25
 205 205 l 25
 205 68 l 25xea
 273 68 l 25
 273 0 l 25
 137 0 l 25
 137 68 l 25xe4
 68 68 l 25
 68 341 l 25xd8
EndSplineSet
EndChar

StartChar: one
Encoding: 49 49 17
Width: 409
VWidth: 0
Flags: W
HStem: 0 0G<134 267> 273 68<67 134> 410 0G<134 267>
VStem: 137 137<0 267 334 400>
LayerCount: 2
Back
Fore
SplineSet
68 341 m 25
 137 341 l 25
 137 410 l 25
 273 410 l 25
 273 0 l 25
 137 0 l 25
 137 273 l 25
 68 273 l 25
 68 341 l 25
EndSplineSet
EndChar

StartChar: two
Encoding: 50 50 18
Width: 409
VWidth: 0
Flags: W
HStem: 0 68<200 334> 273 68<67 134> 341 68<134 200>
VStem: 68 68<267 334> 137 137<134 200 334 400> 205 137<200 334>
LayerCount: 2
Back
Fore
SplineSet
68 341 m 25xd4
 137 341 l 25xd4
 137 410 l 25
 273 410 l 25
 273 341 l 25xa8
 341 341 l 25
 341 205 l 25xa4
 273 205 l 25
 273 137 l 25xa8
 205 137 l 25
 205 68 l 25
 341 68 l 25
 341 0 l 25
 68 0 l 25
 68 137 l 25xb4
 137 137 l 25
 137 205 l 25xa8
 205 205 l 25
 205 341 l 25xa4
 137 341 l 25
 137 273 l 25
 68 273 l 25
 68 341 l 25xd4
EndSplineSet
EndChar

StartChar: three
Encoding: 51 51 19
Width: 409
VWidth: 0
Flags: W
HStem: 0 68<67 200> 205 68<134 200> 341 68<67 200>
VStem: 205 137<67 200 267 334>
LayerCount: 2
Back
Fore
SplineSet
68 410 m 25
 341 410 l 25
 341 273 l 25
 273 273 l 25
 273 205 l 25
 341 205 l 25
 341 68 l 25
 273 68 l 25
 273 0 l 25
 68 0 l 25
 68 68 l 25
 205 68 l 25
 205 205 l 25
 137 205 l 25
 137 273 l 25
 205 273 l 25
 205 341 l 25
 68 341 l 25
 68 410 l 25
EndSplineSet
EndChar

StartChar: four
Encoding: 52 52 20
Width: 409
VWidth: 0
Flags: W
HStem: 0 0G<200 334> 68 68<134 200> 205 68<134 200> 410 0G<267 334>
VStem: 68 68<134 200> 205 137<0 67 134 200 267 334> 273 68<334 400>
LayerCount: 2
Back
Fore
SplineSet
273 410 m 25xfa
 341 410 l 25xfa
 341 0 l 25
 205 0 l 25
 205 68 l 25
 68 68 l 25
 68 205 l 25
 137 205 l 25
 137 137 l 25
 205 137 l 25
 205 205 l 25
 137 205 l 25
 137 273 l 25
 205 273 l 25
 205 341 l 25xfc
 273 341 l 25
 273 410 l 25xfa
EndSplineSet
EndChar

StartChar: five
Encoding: 53 53 21
Width: 409
VWidth: 0
Flags: W
HStem: 0 68<67 200> 205 205<67 200> 341 68<200 334>
VStem: 68 205<0 67 200 267> 205 137<67 200>
LayerCount: 2
Back
Fore
SplineSet
68 410 m 25xd0
 341 410 l 25
 341 341 l 25
 205 341 l 25
 205 273 l 25xa8
 273 273 l 25
 273 205 l 25xd0
 341 205 l 25
 341 68 l 25xc8
 273 68 l 25
 273 0 l 25
 68 0 l 25
 68 68 l 25xd0
 205 68 l 25
 205 205 l 25xc8
 68 205 l 25
 68 410 l 25xd0
EndSplineSet
EndChar

StartChar: six
Encoding: 54 54 22
Width: 409
VWidth: 0
Flags: W
HStem: 0 68<200 267> 205 68<200 267> 341 68<200 267>
VStem: 68 137<67 200 267 334> 137 137<0 67 334 400> 273 68<67 200>
LayerCount: 2
Back
Fore
SplineSet
137 410 m 25xe8
 273 410 l 25
 273 341 l 25xe8
 205 341 l 25
 205 273 l 25
 273 273 l 25
 273 205 l 25
 205 205 l 25
 205 68 l 25xf4
 273 68 l 25xe8
 273 205 l 25
 341 205 l 25
 341 68 l 25xe4
 273 68 l 25
 273 0 l 25
 137 0 l 25
 137 68 l 25xe8
 68 68 l 25
 68 341 l 25xf0
 137 341 l 25
 137 410 l 25xe8
EndSplineSet
EndChar

StartChar: seven
Encoding: 55 55 23
Width: 409
VWidth: 0
Flags: W
HStem: 0 0G<67 200> 341 68<67 200>
VStem: 68 137<0 134> 205 137<200 334>
LayerCount: 2
Back
Fore
SplineSet
68 410 m 25xe0
 341 410 l 25
 341 205 l 25xd0
 273 205 l 25
 273 137 l 25
 205 137 l 25
 205 0 l 25
 68 0 l 25
 68 137 l 25xe0
 137 137 l 25
 137 205 l 25
 205 205 l 25
 205 341 l 25xd0
 68 341 l 25
 68 410 l 25xe0
EndSplineSet
EndChar

StartChar: eight
Encoding: 56 56 24
Width: 409
VWidth: 0
Flags: W
HStem: 0 68<200 267> 68 137<67 134 267 334> 205 68<200 267> 273 68<67 134 267 334> 341 68<200 267>
VStem: 68 137<67 200 267 334> 137 137<0 67 200 267 334 400> 273 68<67 200 267 334>
LayerCount: 2
Back
Fore
SplineSet
137 410 m 25x0a
 273 410 l 25x0a
 273 341 l 25x12
 205 341 l 25
 205 273 l 25x2c
 273 273 l 25x2a
 273 341 l 25x12
 341 341 l 25
 341 273 l 25x11
 273 273 l 25x22
 273 205 l 25x42
 205 205 l 25
 205 68 l 25xa4
 273 68 l 25xa2
 273 205 l 25x42
 341 205 l 25
 341 68 l 25x41
 273 68 l 25
 273 0 l 25
 137 0 l 25x82
 137 68 l 25x42
 68 68 l 25
 68 205 l 25x44
 137 205 l 25
 137 273 l 25x52
 68 273 l 25
 68 341 l 25x54
 137 341 l 25x52
 137 410 l 25x0a
EndSplineSet
EndChar

StartChar: nine
Encoding: 57 57 25
Width: 409
VWidth: 0
Flags: W
HStem: 0 68<134 200> 137 68<134 200> 341 68<134 200>
VStem: 68 68<200 334> 137 137<0 67 334 400> 205 137<67 134 200 334>
LayerCount: 2
Back
Fore
SplineSet
137 410 m 25xe8
 273 410 l 25
 273 341 l 25xe8
 341 341 l 25
 341 68 l 25xe4
 273 68 l 25
 273 0 l 25
 137 0 l 25
 137 68 l 25xe8
 205 68 l 25
 205 137 l 25xe4
 137 137 l 25xe8
 137 205 l 25
 205 205 l 25
 205 341 l 25
 137 341 l 25
 137 205 l 25
 68 205 l 25
 68 341 l 25
 137 341 l 25xf4
 137 410 l 25xe8
EndSplineSet
EndChar

StartChar: colon
Encoding: 58 58 26
Width: 409
VWidth: 0
Flags: W
HStem: 68 68<134 267> 205 68<134 267>
VStem: 137 137<67 134 200 267>
LayerCount: 2
Back
Fore
SplineSet
137 137 m 25
 273 137 l 25
 273 68 l 25
 137 68 l 25
 137 137 l 25
137 273 m 25
 273 273 l 25
 273 205 l 25
 137 205 l 25
 137 273 l 25
EndSplineSet
EndChar

StartChar: semicolon
Encoding: 59 59 27
Width: 409
VWidth: 0
Flags: W
HStem: -68 68<67 134> 205 68<134 267>
VStem: 137 137<0 134 200 267>
LayerCount: 2
Back
Fore
SplineSet
137 137 m 25
 273 137 l 25
 273 0 l 25
 205 0 l 25
 205 -68 l 25
 68 -68 l 25
 68 0 l 25
 137 0 l 25
 137 137 l 25
137 273 m 25
 273 273 l 25
 273 205 l 25
 137 205 l 25
 137 273 l 25
EndSplineSet
EndChar

StartChar: less
Encoding: 60 60 28
Width: 409
VWidth: 0
Flags: W
HStem: 0 68<267 334> 137 68<67 134> 273 68<267 334>
VStem: 137 137<67 134 200 267> 205 137<0 67 267 334>
CounterMasks: 1 e0
LayerCount: 2
Back
Fore
SplineSet
68 205 m 25xf0
 137 205 l 25
 137 273 l 25xf0
 205 273 l 25
 205 341 l 25
 341 341 l 25
 341 273 l 25xe8
 273 273 l 25
 273 205 l 25xf0
 205 205 l 25
 205 137 l 25xe8
 273 137 l 25
 273 68 l 25xf0
 341 68 l 25
 341 0 l 25
 205 0 l 25
 205 68 l 25xe8
 137 68 l 25
 137 137 l 25
 68 137 l 25
 68 205 l 25xf0
EndSplineSet
EndChar

StartChar: equal
Encoding: 61 61 29
Width: 409
VWidth: 0
Flags: W
HStem: 68 68<67 334> 205 68<67 334>
LayerCount: 2
Back
Fore
SplineSet
68 137 m 25
 341 137 l 25
 341 68 l 25
 68 68 l 25
 68 137 l 25
68 273 m 25
 341 273 l 25
 341 205 l 25
 68 205 l 25
 68 273 l 25
EndSplineSet
EndChar

StartChar: greater
Encoding: 62 62 30
Width: 409
VWidth: 0
Flags: W
HStem: 0 68<67 134> 137 68<267 334> 273 68<67 134>
VStem: 68 137<0 67 267 334> 137 137<67 134 200 267>
CounterMasks: 1 e0
LayerCount: 2
Back
Fore
SplineSet
68 341 m 25xf0
 205 341 l 25
 205 273 l 25xf0
 273 273 l 25
 273 205 l 25
 341 205 l 25
 341 137 l 25
 273 137 l 25
 273 68 l 25xe8
 205 68 l 25
 205 0 l 25
 68 0 l 25
 68 68 l 25xf0
 137 68 l 25
 137 137 l 25xe8
 205 137 l 25
 205 205 l 25xf0
 137 205 l 25
 137 273 l 25xe8
 68 273 l 25
 68 341 l 25xf0
EndSplineSet
EndChar

StartChar: question
Encoding: 63 63 31
Width: 409
VWidth: 0
Flags: W
HStem: -68 68<134 267> 273 68<0 67> 341 68<67 200>
VStem: 0 68<267 334> 137 137<-67 0 67 200> 205 137<200 334>
LayerCount: 2
Back
Fore
SplineSet
137 0 m 25x98
 273 0 l 25
 273 -68 l 25
 137 -68 l 25
 137 0 l 25x98
0 273 m 25xd4
 0 341 l 25
 68 341 l 25xd4
 68 410 l 25
 273 410 l 25
 273 341 l 25xb8
 341 341 l 25
 341 205 l 25xb4
 273 205 l 25
 273 68 l 25
 137 68 l 25
 137 205 l 25xb8
 205 205 l 25
 205 341 l 25xb4
 68 341 l 25
 68 273 l 25
 0 273 l 25xd4
EndSplineSet
EndChar

StartChar: at
Encoding: 64 64 32
Width: 409
VWidth: 0
Flags: W
HStem: -68 68<200 267> 68 68<200 267> 273 68<200 267> 410 0G<267 334> 410 68<200 267>
VStem: 68 137<0 67 134 267 334 400> 137 137<-67 0 400 466> 273 68<134 267 334 400>
LayerCount: 2
Back
Fore
SplineSet
205 273 m 25xe5
 205 137 l 25
 273 137 l 25
 273 273 l 25
 205 273 l 25xe5
68 410 m 25xec
 137 410 l 25
 137 478 l 25
 273 478 l 25xea
 273 410 l 25xf2
 205 410 l 25
 205 341 l 25
 273 341 l 25xed
 273 410 l 25xf2
 341 410 l 25
 341 68 l 25
 205 68 l 25
 205 0 l 25xf5
 273 0 l 25
 273 -68 l 25
 137 -68 l 25
 137 0 l 25xf2
 68 0 l 25
 68 410 l 25xec
EndSplineSet
EndChar

StartChar: A
Encoding: 65 65 33
Width: 409
VWidth: 0
Flags: W
HStem: 0 0G<67 200 267 334> 137 68<200 267> 341 0G<267 334> 341 68<200 267>
VStem: 68 137<0 134 200 334> 273 68<0 134 200 334>
LayerCount: 2
Back
Fore
SplineSet
68 341 m 25xdc
 137 341 l 25
 137 410 l 25
 273 410 l 25xdc
 273 341 l 25xec
 205 341 l 25xdc
 205 205 l 25
 273 205 l 25
 273 341 l 25
 341 341 l 25xec
 341 0 l 25
 273 0 l 25
 273 137 l 25
 205 137 l 25
 205 0 l 25
 68 0 l 25
 68 341 l 25xdc
EndSplineSet
EndChar

StartChar: B
Encoding: 66 66 34
Width: 409
VWidth: 0
Flags: W
HStem: 0 68<200 267> 205 68<200 267> 273 68<267 334> 341 68<200 267>
VStem: 68 205<0 67 200 267 334 400> 68 137<67 200 267 334> 273 68<67 200 267 334>
LayerCount: 2
Back
Fore
SplineSet
68 410 m 25xd8
 273 410 l 25xd8
 273 341 l 25xa8
 205 341 l 25
 205 273 l 25xd4
 273 273 l 25xd8
 273 341 l 25xa8
 341 341 l 25
 341 273 l 25xa2
 273 273 l 25
 273 205 l 25xc8
 205 205 l 25
 205 68 l 25xc4
 273 68 l 25
 273 205 l 25xc8
 341 205 l 25
 341 68 l 25xc2
 273 68 l 25
 273 0 l 25
 68 0 l 25
 68 410 l 25xd8
EndSplineSet
EndChar

StartChar: C
Encoding: 67 67 35
Width: 409
VWidth: 0
Flags: W
HStem: 0 68<200 334> 341 68<200 334>
VStem: 68 137<67 334> 137 205<0 67 334 400>
LayerCount: 2
Back
Fore
SplineSet
137 410 m 25xd0
 341 410 l 25
 341 341 l 25xd0
 205 341 l 25
 205 68 l 25xe0
 341 68 l 25
 341 0 l 25
 137 0 l 25
 137 68 l 25xd0
 68 68 l 25
 68 341 l 25xe0
 137 341 l 25
 137 410 l 25xd0
EndSplineSet
EndChar

StartChar: D
Encoding: 68 68 36
Width: 409
VWidth: 0
Flags: W
HStem: 0 68<200 267> 341 0G<267 334> 341 68<200 267>
VStem: 68 205<0 67 334 400> 68 137<67 334> 273 68<67 334>
LayerCount: 2
Back
Fore
SplineSet
68 410 m 25xb0
 273 410 l 25xb0
 273 341 l 25xd0
 205 341 l 25
 205 68 l 25xa8
 273 68 l 25
 273 341 l 25xd0
 341 341 l 25
 341 68 l 25xc4
 273 68 l 25
 273 0 l 25
 68 0 l 25
 68 410 l 25xb0
EndSplineSet
EndChar

StartChar: E
Encoding: 69 69 37
Width: 409
VWidth: 0
Flags: W
HStem: 0 68<200 334> 205 68<200 267> 341 68<200 334>
VStem: 68 137<67 200 267 334>
LayerCount: 2
Back
Fore
SplineSet
68 410 m 25
 341 410 l 25
 341 341 l 25
 205 341 l 25
 205 273 l 25
 273 273 l 25
 273 205 l 25
 205 205 l 25
 205 68 l 25
 341 68 l 25
 341 0 l 25
 68 0 l 25
 68 410 l 25
EndSplineSet
EndChar

StartChar: F
Encoding: 70 70 38
Width: 409
VWidth: 0
Flags: W
HStem: 0 0G<67 200> 205 68<200 267> 341 68<200 334>
VStem: 68 137<0 200 267 334>
LayerCount: 2
Back
Fore
SplineSet
68 410 m 25
 341 410 l 25
 341 341 l 25
 205 341 l 25
 205 273 l 25
 273 273 l 25
 273 205 l 25
 205 205 l 25
 205 0 l 25
 68 0 l 25
 68 410 l 25
EndSplineSet
EndChar

StartChar: G
Encoding: 71 71 39
Width: 409
VWidth: 0
Flags: W
HStem: 0 68<200 267> 341 68<200 334>
VStem: 68 137<67 334> 137 205<0 67 334 400> 273 68<67 200>
LayerCount: 2
Back
Fore
SplineSet
137 410 m 25xd0
 341 410 l 25
 341 341 l 25xd0
 205 341 l 25
 205 68 l 25
 273 68 l 25
 273 205 l 25
 341 205 l 25xe8
 341 0 l 25
 137 0 l 25
 137 68 l 25xd0
 68 68 l 25
 68 341 l 25xe0
 137 341 l 25
 137 410 l 25xd0
EndSplineSet
EndChar

StartChar: H
Encoding: 72 72 40
Width: 409
VWidth: 0
Flags: W
HStem: 0 0G<67 200 267 334> 137 68<200 267> 410 0G<67 200 267 334>
VStem: 68 137<0 134 200 400> 273 68<0 134 200 400>
LayerCount: 2
Back
Fore
SplineSet
68 410 m 25
 205 410 l 25
 205 205 l 25
 273 205 l 25
 273 410 l 25
 341 410 l 25
 341 0 l 25
 273 0 l 25
 273 137 l 25
 205 137 l 25
 205 0 l 25
 68 0 l 25
 68 410 l 25
EndSplineSet
EndChar

StartChar: I
Encoding: 73 73 41
Width: 409
VWidth: 0
Flags: W
HStem: 0 0G<134 267> 410 0G<134 267>
VStem: 137 137<0 400>
LayerCount: 2
Back
Fore
SplineSet
137 410 m 25
 273 410 l 25
 273 0 l 25
 137 0 l 25
 137 410 l 25
EndSplineSet
EndChar

StartChar: J
Encoding: 74 74 42
Width: 409
VWidth: 0
Flags: W
HStem: 0 68<67 200> 410 0G<200 334>
VStem: 205 137<67 400>
LayerCount: 2
Back
Fore
SplineSet
205 410 m 25
 341 410 l 25
 341 68 l 25
 273 68 l 25
 273 0 l 25
 68 0 l 25
 68 68 l 25
 205 68 l 25
 205 410 l 25
EndSplineSet
EndChar

StartChar: K
Encoding: 75 75 43
Width: 409
VWidth: 0
Flags: W
HStem: 0 68<334 400> 68 68<267 334> 273 68<267 334> 341 68<334 400>
VStem: 68 205<134 267> 68 137<0 134 267 400> 273 68<67 134 267 334> 341 68<0 67 334 400>
LayerCount: 2
Back
Fore
SplineSet
68 410 m 25x94
 205 410 l 25x94
 205 273 l 25x24
 273 273 l 25x28
 273 341 l 25
 341 341 l 25x22
 341 410 l 25
 410 410 l 25
 410 341 l 25x11
 341 341 l 25
 341 273 l 25x22
 273 273 l 25
 273 137 l 25x68
 341 137 l 25x62
 341 68 l 25x82
 410 68 l 25
 410 0 l 25
 341 0 l 25x81
 341 68 l 25x82
 273 68 l 25x42
 273 137 l 25x48
 205 137 l 25x44
 205 0 l 25
 68 0 l 25
 68 410 l 25x94
EndSplineSet
EndChar

StartChar: L
Encoding: 76 76 44
Width: 409
VWidth: 0
Flags: W
HStem: 0 68<200 334> 410 0G<67 200>
VStem: 68 137<67 400>
LayerCount: 2
Back
Fore
SplineSet
68 410 m 25
 205 410 l 25
 205 68 l 25
 341 68 l 25
 341 0 l 25
 68 0 l 25
 68 410 l 25
EndSplineSet
EndChar

StartChar: M
Encoding: 77 77 45
Width: 409
VWidth: 0
Flags: W
HStem: 0 0G<0 134 334 400> 341 68<134 200 267 334>
VStem: 0 137<0 334> 205 68<200 334> 341 68<0 334>
LayerCount: 2
Back
Fore
SplineSet
0 410 m 25
 205 410 l 25
 205 341 l 25
 273 341 l 25
 273 410 l 25
 410 410 l 25
 410 0 l 25
 341 0 l 25
 341 341 l 25
 273 341 l 25
 273 205 l 25
 205 205 l 25
 205 341 l 25
 137 341 l 25
 137 0 l 25
 0 0 l 25
 0 410 l 25
EndSplineSet
EndChar

StartChar: N
Encoding: 78 78 46
Width: 409
VWidth: 0
Flags: W
HStem: 0 0G<67 200 334 400> 137 68<267 334> 205 68<200 267> 410 0G<67 200 334 400>
VStem: 68 137<0 200 267 400> 341 68<0 134 200 400>
LayerCount: 2
Back
Fore
SplineSet
68 410 m 25xbc
 205 410 l 25
 205 273 l 25
 273 273 l 25xbc
 273 205 l 25
 341 205 l 25
 341 410 l 25
 410 410 l 25
 410 0 l 25
 341 0 l 25
 341 137 l 25
 273 137 l 25
 273 205 l 25xdc
 205 205 l 25
 205 0 l 25
 68 0 l 25
 68 410 l 25xbc
EndSplineSet
EndChar

StartChar: O
Encoding: 79 79 47
Width: 409
VWidth: 0
Flags: W
HStem: 0 68<200 267> 341 0G<267 334> 341 68<200 267>
VStem: 68 137<67 334> 137 137<0 67 334 400> 273 68<67 334>
LayerCount: 2
Back
Fore
SplineSet
68 341 m 25xb0
 137 341 l 25
 137 410 l 25
 273 410 l 25xa8
 273 341 l 25xc8
 205 341 l 25
 205 68 l 25xb0
 273 68 l 25
 273 341 l 25xc8
 341 341 l 25
 341 68 l 25xc4
 273 68 l 25
 273 0 l 25
 137 0 l 25
 137 68 l 25xc8
 68 68 l 25
 68 341 l 25xb0
EndSplineSet
EndChar

StartChar: P
Encoding: 80 80 48
Width: 409
VWidth: 0
Flags: W
HStem: 0 0G<67 200> 137 68<200 267> 341 0G<267 334> 341 68<200 267>
VStem: 68 205<134 200 334 400> 68 137<0 134 200 334> 273 68<200 334>
LayerCount: 2
Back
Fore
SplineSet
68 410 m 25xd8
 273 410 l 25xd8
 273 341 l 25xe8
 205 341 l 25
 205 205 l 25xd4
 273 205 l 25
 273 341 l 25xe8
 341 341 l 25
 341 205 l 25xe2
 273 205 l 25
 273 137 l 25xe8
 205 137 l 25
 205 0 l 25
 68 0 l 25xe4
 68 410 l 25xd8
EndSplineSet
EndChar

StartChar: Q
Encoding: 81 81 49
Width: 409
VWidth: 0
Flags: W
HStem: -68 68<267 334> 341 0G<267 334> 341 68<200 267>
VStem: 68 137<67 334> 137 137<0 67 334 400> 273 68<67 334>
LayerCount: 2
Back
Fore
SplineSet
68 341 m 25xb0
 137 341 l 25
 137 410 l 25
 273 410 l 25xa8
 273 341 l 25xc8
 205 341 l 25
 205 68 l 25xb0
 273 68 l 25
 273 341 l 25xc8
 341 341 l 25
 341 68 l 25xc4
 273 68 l 25
 273 0 l 25xc8
 341 0 l 25
 341 -68 l 25
 205 -68 l 25
 205 0 l 25xd4
 137 0 l 25
 137 68 l 25xc8
 68 68 l 25
 68 341 l 25xb0
EndSplineSet
EndChar

StartChar: R
Encoding: 82 82 50
Width: 409
VWidth: 0
Flags: W
HStem: 0 68<267 334> 341 0G<267 334> 341 68<200 267>
VStem: 68 205<67 200 334 400> 68 137<0 67 200 334> 273 68<0 67 200 334>
LayerCount: 2
Back
Fore
SplineSet
68 410 m 25xb0
 273 410 l 25xb0
 273 341 l 25xd0
 205 341 l 25
 205 205 l 25xa8
 273 205 l 25
 273 341 l 25xd0
 341 341 l 25
 341 205 l 25xc4
 273 205 l 25
 273 68 l 25xd0
 341 68 l 25
 341 0 l 25
 273 0 l 25xc4
 273 68 l 25xd0
 205 68 l 25
 205 0 l 25
 68 0 l 25xc8
 68 410 l 25xb0
EndSplineSet
EndChar

StartChar: S
Encoding: 83 83 51
Width: 409
VWidth: 0
Flags: W
HStem: 0 68<67 200> 273 68<67 134> 341 68<200 334>
VStem: 205 137<67 200>
LayerCount: 2
Back
Fore
SplineSet
68 341 m 25xd0
 137 341 l 25xd0
 137 410 l 25
 341 410 l 25
 341 341 l 25
 205 341 l 25xb0
 205 273 l 25
 273 273 l 25
 273 205 l 25
 341 205 l 25
 341 68 l 25
 273 68 l 25
 273 0 l 25
 68 0 l 25
 68 68 l 25
 205 68 l 25
 205 205 l 25
 137 205 l 25
 137 273 l 25
 68 273 l 25
 68 341 l 25xd0
EndSplineSet
EndChar

StartChar: T
Encoding: 84 84 52
Width: 409
VWidth: 0
Flags: W
HStem: 0 0G<134 267> 341 68<0 134 267 400>
VStem: 137 137<0 334>
LayerCount: 2
Back
Fore
SplineSet
0 410 m 25
 410 410 l 25
 410 341 l 25
 273 341 l 25
 273 0 l 25
 137 0 l 25
 137 341 l 25
 0 341 l 25
 0 410 l 25
EndSplineSet
EndChar

StartChar: U
Encoding: 85 85 53
Width: 409
VWidth: 0
Flags: W
HStem: 0 68<200 267> 410 0G<67 200 267 334>
VStem: 68 137<67 400> 273 68<67 400>
LayerCount: 2
Back
Fore
SplineSet
68 410 m 25
 205 410 l 25
 205 68 l 25
 273 68 l 25
 273 410 l 25
 341 410 l 25
 341 0 l 25
 137 0 l 25
 137 68 l 25
 68 68 l 25
 68 410 l 25
EndSplineSet
EndChar

StartChar: V
Encoding: 86 86 54
Width: 409
VWidth: 0
Flags: W
HStem: 0 0G<67 200> 68 68<200 267> 410 0G<0 134 267 334>
VStem: 0 137<134 400> 273 68<134 400>
LayerCount: 2
Back
Fore
SplineSet
0 410 m 25
 137 410 l 25
 137 137 l 25
 273 137 l 25
 273 410 l 25
 341 410 l 25
 341 137 l 25
 273 137 l 25
 273 68 l 25
 205 68 l 25
 205 0 l 25
 68 0 l 25
 68 137 l 25
 0 137 l 25
 0 410 l 25
EndSplineSet
EndChar

StartChar: W
Encoding: 87 87 55
Width: 409
VWidth: 0
Flags: W
HStem: 0 68<134 200 267 334> 410 0G<0 134 334 400>
VStem: 0 137<67 400> 205 68<67 200> 341 68<67 400>
LayerCount: 2
Back
Fore
SplineSet
0 410 m 25
 137 410 l 25
 137 68 l 25
 205 68 l 25
 205 205 l 25
 273 205 l 25
 273 68 l 25
 341 68 l 25
 341 410 l 25
 410 410 l 25
 410 68 l 25
 341 68 l 25
 341 0 l 25
 68 0 l 25
 68 68 l 25
 0 68 l 25
 0 410 l 25
EndSplineSet
EndChar

StartChar: X
Encoding: 88 88 56
Width: 409
VWidth: 0
Flags: W
HStem: 0 137<0 67 267 334> 273 137<0 67 267 334>
VStem: 0 137<267 400> 0 68<0 134> 205 137<0 134> 273 68<267 400>
LayerCount: 2
Back
Fore
SplineSet
0 410 m 25xe0
 137 410 l 25
 137 273 l 25
 273 273 l 25
 273 410 l 25
 341 410 l 25
 341 273 l 25
 273 273 l 25
 273 137 l 25xe4
 341 137 l 25
 341 0 l 25
 205 0 l 25
 205 137 l 25
 68 137 l 25
 68 0 l 25
 0 0 l 25
 0 137 l 25
 68 137 l 25
 68 273 l 25xd8
 0 273 l 25
 0 410 l 25xe0
EndSplineSet
EndChar

StartChar: Y
Encoding: 89 89 57
Width: 409
VWidth: 0
Flags: W
HStem: 0 0G<134 267> 205 68<267 334> 273 137<0 67 334 400>
VStem: 0 137<267 400> 273 68<200 267> 341 68<267 400>
LayerCount: 2
Back
Fore
SplineSet
0 410 m 25xb8
 137 410 l 25
 137 273 l 25
 205 273 l 25xb8
 205 205 l 25
 273 205 l 25
 273 273 l 25
 341 273 l 25xd8
 341 410 l 25
 410 410 l 25
 410 273 l 25xb4
 341 273 l 25
 341 205 l 25
 273 205 l 25
 273 0 l 25
 137 0 l 25
 137 205 l 25
 68 205 l 25xd8
 68 273 l 25
 0 273 l 25
 0 410 l 25xb8
EndSplineSet
EndChar

StartChar: Z
Encoding: 90 90 58
Width: 409
VWidth: 0
Flags: W
HStem: 0 68<200 334> 341 68<67 200>
VStem: 68 137<67 200>
LayerCount: 2
Back
Fore
SplineSet
68 410 m 25
 341 410 l 25
 341 273 l 25
 273 273 l 25
 273 205 l 25
 205 205 l 25
 205 68 l 25
 341 68 l 25
 341 0 l 25
 68 0 l 25
 68 205 l 25
 137 205 l 25
 137 273 l 25
 205 273 l 25
 205 341 l 25
 68 341 l 25
 68 410 l 25
EndSplineSet
EndChar

StartChar: bracketleft
Encoding: 91 91 59
Width: 409
VWidth: 0
Flags: W
HStem: 0 68<200 267> 410 68<200 267>
VStem: 68 205<0 67 400 466> 68 137<67 400>
LayerCount: 2
Back
Fore
SplineSet
68 478 m 25xe0
 273 478 l 25
 273 410 l 25xe0
 205 410 l 25
 205 68 l 25xd0
 273 68 l 25
 273 0 l 25
 68 0 l 25
 68 478 l 25xe0
EndSplineSet
EndChar

StartChar: backslash
Encoding: 92 92 60
Width: 409
VWidth: 0
Flags: W
HStem: -68 0G<267 400> 478 0G<67 200>
VStem: 68 137<334 466> 137 137<200 334> 205 137<67 200> 273 137<-67 67>
LayerCount: 2
Back
Fore
SplineSet
68 478 m 25xe0
 205 478 l 25
 205 341 l 25xe0
 273 341 l 25
 273 205 l 25xd0
 341 205 l 25
 341 68 l 25xc8
 410 68 l 25
 410 -68 l 25
 273 -68 l 25
 273 68 l 25xc4
 205 68 l 25
 205 205 l 25xc8
 137 205 l 25
 137 341 l 25xd0
 68 341 l 25
 68 478 l 25xe0
EndSplineSet
EndChar

StartChar: bracketright
Encoding: 93 93 61
Width: 409
VWidth: 0
Flags: W
HStem: 0 68<134 200> 410 68<134 200>
VStem: 137 205<0 67 400 466> 205 137<67 400>
LayerCount: 2
Back
Fore
SplineSet
137 478 m 25xe0
 341 478 l 25
 341 0 l 25
 137 0 l 25
 137 68 l 25xe0
 205 68 l 25
 205 410 l 25xd0
 137 410 l 25
 137 478 l 25xe0
EndSplineSet
EndChar

StartChar: asciicircum
Encoding: 94 94 62
Width: 409
VWidth: 0
Flags: W
HStem: 273 68<0 67 334 400> 341 68<267 334> 410 68<200 267>
VStem: 273 68<334 400> 341 68<267 334>
LayerCount: 2
Back
Fore
SplineSet
137 478 m 25xb0
 273 478 l 25xb0
 273 410 l 25
 341 410 l 25x50
 341 341 l 25x90
 410 341 l 25
 410 273 l 25
 341 273 l 25x88
 341 341 l 25x90
 273 341 l 25
 273 410 l 25x50
 205 410 l 25x30
 205 341 l 25
 137 341 l 25x50
 137 273 l 25
 0 273 l 25
 0 341 l 25
 68 341 l 25
 68 410 l 25
 137 410 l 25
 137 478 l 25xb0
EndSplineSet
EndChar

StartChar: underscore
Encoding: 95 95 63
Width: 409
VWidth: 0
Flags: W
HStem: -68 68<67 400>
LayerCount: 2
Back
Fore
SplineSet
68 0 m 25
 410 0 l 25
 410 -68 l 25
 68 -68 l 25
 68 0 l 25
EndSplineSet
EndChar

StartChar: grave
Encoding: 96 96 64
Width: 409
VWidth: 0
Flags: W
HStem: 273 68<200 267> 478 0G<67 200>
VStem: 68 137<334 466>
LayerCount: 2
Back
Fore
SplineSet
68 478 m 25
 205 478 l 25
 205 341 l 25
 273 341 l 25
 273 273 l 25
 137 273 l 25
 137 341 l 25
 68 341 l 25
 68 478 l 25
EndSplineSet
EndChar

StartChar: a
Encoding: 97 97 65
Width: 409
VWidth: 0
Flags: W
HStem: 0 68<134 200 334 400> 273 68<134 200>
VStem: 68 68<67 267> 205 137<67 267> 341 68<0 67>
LayerCount: 2
Back
Fore
SplineSet
137 341 m 25xf0
 341 341 l 25xe8
 341 68 l 25xf0
 410 68 l 25
 410 0 l 25
 341 0 l 25xe8
 341 68 l 25
 273 68 l 25
 273 0 l 25
 137 0 l 25
 137 68 l 25
 205 68 l 25
 205 273 l 25
 137 273 l 25
 137 68 l 25
 68 68 l 25
 68 273 l 25
 137 273 l 25
 137 341 l 25xf0
EndSplineSet
EndChar

StartChar: b
Encoding: 98 98 66
Width: 409
VWidth: 0
Flags: W
HStem: 0 68<200 267> 273 68<200 267> 478 0G<67 200>
VStem: 68 205<0 67 267 334> 68 137<67 267 334 466> 273 68<67 267>
LayerCount: 2
Back
Fore
SplineSet
68 478 m 25xe8
 205 478 l 25
 205 341 l 25xe8
 273 341 l 25
 273 273 l 25xf0
 205 273 l 25
 205 68 l 25xe8
 273 68 l 25
 273 273 l 25xf0
 341 273 l 25
 341 68 l 25xe4
 273 68 l 25
 273 0 l 25
 68 0 l 25xf0
 68 478 l 25xe8
EndSplineSet
EndChar

StartChar: c
Encoding: 99 99 67
Width: 409
VWidth: 0
Flags: W
HStem: 0 68<200 334> 273 68<200 334>
VStem: 68 137<67 267> 137 205<0 67 267 334>
LayerCount: 2
Back
Fore
SplineSet
68 273 m 25xe0
 137 273 l 25
 137 341 l 25
 341 341 l 25
 341 273 l 25xd0
 205 273 l 25
 205 68 l 25xe0
 341 68 l 25
 341 0 l 25
 137 0 l 25
 137 68 l 25xd0
 68 68 l 25
 68 273 l 25xe0
EndSplineSet
EndChar

StartChar: d
Encoding: 100 100 68
Width: 409
VWidth: 0
Flags: W
HStem: 0 68<134 200> 273 68<134 200> 478 0G<200 334>
VStem: 68 68<67 267> 137 205<0 67 267 334> 205 137<67 267 334 466>
LayerCount: 2
Back
Fore
SplineSet
137 341 m 25xe8
 205 341 l 25
 205 478 l 25
 341 478 l 25xe4
 341 0 l 25
 137 0 l 25xe8
 137 68 l 25
 205 68 l 25
 205 273 l 25
 137 273 l 25
 137 68 l 25
 68 68 l 25
 68 273 l 25
 137 273 l 25xf4
 137 341 l 25xe8
EndSplineSet
EndChar

StartChar: e
Encoding: 101 101 69
Width: 409
VWidth: 0
Flags: W
HStem: 0 68<200 334> 137 68<200 267> 273 68<200 267>
VStem: 68 137<67 134 200 267> 273 68<200 267>
CounterMasks: 1 e0
LayerCount: 2
Back
Fore
SplineSet
137 341 m 25
 273 341 l 25
 273 273 l 25
 205 273 l 25
 205 205 l 25
 273 205 l 25
 273 273 l 25
 341 273 l 25
 341 137 l 25
 205 137 l 25
 205 68 l 25
 341 68 l 25
 341 0 l 25
 137 0 l 25
 137 68 l 25
 68 68 l 25
 68 273 l 25
 137 273 l 25
 137 341 l 25
EndSplineSet
EndChar

StartChar: f
Encoding: 102 102 70
Width: 409
VWidth: 0
Flags: W
HStem: 0 0G<67 200> 273 68<200 334> 410 68<200 334>
VStem: 68 137<0 267 334 400>
LayerCount: 2
Back
Fore
SplineSet
68 410 m 25
 137 410 l 25
 137 478 l 25
 341 478 l 25
 341 410 l 25
 205 410 l 25
 205 341 l 25
 341 341 l 25
 341 273 l 25
 205 273 l 25
 205 0 l 25
 68 0 l 25
 68 410 l 25
EndSplineSet
EndChar

StartChar: g
Encoding: 103 103 71
Width: 409
VWidth: 0
Flags: W
HStem: -68 68<67 200> 68 68<134 200> 273 68<134 200>
VStem: 68 68<134 267> 137 205<67 134 267 334> 205 137<0 67 134 267>
LayerCount: 2
Back
Fore
SplineSet
68 273 m 25xf4
 137 273 l 25xf4
 137 341 l 25
 341 341 l 25xe8
 341 0 l 25
 273 0 l 25
 273 -68 l 25
 68 -68 l 25
 68 0 l 25
 205 0 l 25
 205 68 l 25xf4
 137 68 l 25xe8
 137 137 l 25
 205 137 l 25
 205 273 l 25
 137 273 l 25
 137 137 l 25
 68 137 l 25
 68 273 l 25xf4
EndSplineSet
EndChar

StartChar: h
Encoding: 104 104 72
Width: 409
VWidth: 0
Flags: W
HStem: 0 0G<67 200 267 334> 273 68<200 267> 478 0G<67 200>
VStem: 68 137<0 267 334 466> 273 68<0 267>
LayerCount: 2
Back
Fore
SplineSet
68 478 m 25
 205 478 l 25
 205 341 l 25
 273 341 l 25
 273 273 l 25
 341 273 l 25
 341 0 l 25
 273 0 l 25
 273 273 l 25
 205 273 l 25
 205 0 l 25
 68 0 l 25
 68 478 l 25
EndSplineSet
EndChar

StartChar: i
Encoding: 105 105 73
Width: 409
VWidth: 0
Flags: W
HStem: 0 0G<134 267> 341 0G<134 267> 410 68<134 267>
VStem: 137 137<0 334 400 466>
LayerCount: 2
Back
Fore
SplineSet
137 341 m 25
 273 341 l 25
 273 0 l 25
 137 0 l 25
 137 341 l 25
137 478 m 25
 273 478 l 25
 273 410 l 25
 137 410 l 25
 137 478 l 25
EndSplineSet
EndChar

StartChar: j
Encoding: 106 106 74
Width: 409
VWidth: 0
Flags: W
HStem: -68 68<67 134> 341 0G<134 267> 410 68<134 267>
VStem: 137 137<0 334 400 466>
LayerCount: 2
Back
Fore
SplineSet
137 341 m 25
 273 341 l 25
 273 0 l 25
 205 0 l 25
 205 -68 l 25
 68 -68 l 25
 68 0 l 25
 137 0 l 25
 137 341 l 25
137 478 m 25
 273 478 l 25
 273 410 l 25
 137 410 l 25
 137 478 l 25
EndSplineSet
EndChar

StartChar: k
Encoding: 107 107 75
Width: 409
VWidth: 0
Flags: W
HStem: 0 68<334 400> 68 68<267 334> 205 68<267 334> 273 68<334 400> 478 0G<67 200>
VStem: 68 137<0 134 200 466> 273 68<67 134 200 267> 341 68<0 67 267 334>
LayerCount: 2
Back
Fore
SplineSet
68 478 m 25x8e
 205 478 l 25
 205 205 l 25
 273 205 l 25
 273 273 l 25
 341 273 l 25xae
 341 341 l 25
 410 341 l 25
 410 273 l 25x1d
 341 273 l 25
 341 205 l 25
 273 205 l 25
 273 137 l 25
 341 137 l 25x6e
 341 68 l 25x8e
 410 68 l 25
 410 0 l 25
 341 0 l 25x8d
 341 68 l 25x8e
 273 68 l 25
 273 137 l 25
 205 137 l 25x4e
 205 0 l 25
 68 0 l 25
 68 478 l 25x8e
EndSplineSet
EndChar

StartChar: l
Encoding: 108 108 76
Width: 409
VWidth: 0
Flags: W
HStem: 0 68<200 334> 478 0G<67 200>
VStem: 68 137<67 466>
LayerCount: 2
Back
Fore
SplineSet
68 478 m 25
 205 478 l 25
 205 68 l 25
 341 68 l 25
 341 0 l 25
 137 0 l 25
 137 68 l 25
 68 68 l 25
 68 478 l 25
EndSplineSet
EndChar

StartChar: m
Encoding: 109 109 77
Width: 409
VWidth: 0
Flags: W
HStem: 0 0G<0 134 334 400> 273 68<134 200 267 334>
VStem: 0 137<0 267> 205 68<67 267> 341 68<0 267>
LayerCount: 2
Back
Fore
SplineSet
0 341 m 25
 341 341 l 25
 341 273 l 25
 410 273 l 25
 410 0 l 25
 341 0 l 25
 341 273 l 25
 273 273 l 25
 273 68 l 25
 205 68 l 25
 205 273 l 25
 137 273 l 25
 137 0 l 25
 0 0 l 25
 0 341 l 25
EndSplineSet
EndChar

StartChar: n
Encoding: 110 110 78
Width: 409
VWidth: 0
Flags: W
HStem: 0 0G<67 200 267 334> 273 68<200 267>
VStem: 68 137<0 267> 273 68<0 267>
LayerCount: 2
Back
Fore
SplineSet
68 341 m 25
 273 341 l 25
 273 273 l 25
 341 273 l 25
 341 0 l 25
 273 0 l 25
 273 273 l 25
 205 273 l 25
 205 0 l 25
 68 0 l 25
 68 341 l 25
EndSplineSet
EndChar

StartChar: o
Encoding: 111 111 79
Width: 409
VWidth: 0
Flags: W
HStem: 0 68<200 267> 68 205<67 134 267 334> 273 68<200 267>
VStem: 68 137<67 267> 137 137<0 67 267 334> 273 68<67 267>
LayerCount: 2
Back
Fore
SplineSet
68 273 m 25x50
 137 273 l 25x48
 137 341 l 25
 273 341 l 25x28
 273 273 l 25x48
 205 273 l 25
 205 68 l 25xb0
 273 68 l 25xa8
 273 273 l 25x48
 341 273 l 25
 341 68 l 25x44
 273 68 l 25
 273 0 l 25
 137 0 l 25x88
 137 68 l 25x48
 68 68 l 25
 68 273 l 25x50
EndSplineSet
EndChar

StartChar: p
Encoding: 112 112 80
Width: 409
VWidth: 0
Flags: W
HStem: -68 0G<67 200> 68 68<200 267> 273 68<200 267>
VStem: 68 205<67 134 267 334> 68 137<-67 67 134 267> 273 68<134 267>
LayerCount: 2
Back
Fore
SplineSet
68 341 m 25xf0
 273 341 l 25
 273 273 l 25xf0
 205 273 l 25
 205 137 l 25xe8
 273 137 l 25
 273 273 l 25xf0
 341 273 l 25
 341 137 l 25xe4
 273 137 l 25
 273 68 l 25xf0
 205 68 l 25
 205 -68 l 25
 68 -68 l 25xe8
 68 341 l 25xf0
EndSplineSet
EndChar

StartChar: q
Encoding: 113 113 81
Width: 409
VWidth: 0
Flags: W
HStem: -68 0G<200 334> 68 68<134 200> 273 68<134 200>
VStem: 68 68<134 267> 137 205<67 134 267 334> 205 137<-67 67 134 267>
LayerCount: 2
Back
Fore
SplineSet
68 273 m 25xf4
 137 273 l 25xf4
 137 341 l 25
 341 341 l 25xe8
 341 -68 l 25
 205 -68 l 25
 205 68 l 25xe4
 137 68 l 25xe8
 137 137 l 25
 205 137 l 25
 205 273 l 25
 137 273 l 25
 137 137 l 25
 68 137 l 25
 68 273 l 25xf4
EndSplineSet
EndChar

StartChar: r
Encoding: 114 114 82
Width: 409
VWidth: 0
Flags: W
HStem: 0 0G<67 200> 273 68<200 334>
VStem: 68 137<0 267>
LayerCount: 2
Back
Fore
SplineSet
137 341 m 25
 341 341 l 25
 341 273 l 25
 205 273 l 25
 205 0 l 25
 68 0 l 25
 68 273 l 25
 137 273 l 25
 137 341 l 25
EndSplineSet
EndChar

StartChar: s
Encoding: 115 115 83
Width: 409
VWidth: 0
Flags: W
HStem: 0 68<67 200> 68 68<267 334> 205 68<67 134> 273 68<200 334>
LayerCount: 2
Back
Fore
SplineSet
137 341 m 25x10
 341 341 l 25
 341 273 l 25
 205 273 l 25x10
 205 205 l 25
 273 205 l 25
 273 137 l 25
 341 137 l 25
 341 68 l 25
 273 68 l 25x60
 273 0 l 25
 68 0 l 25
 68 68 l 25
 205 68 l 25x80
 205 137 l 25
 137 137 l 25
 137 205 l 25
 68 205 l 25
 68 273 l 25
 137 273 l 25x60
 137 341 l 25x10
EndSplineSet
EndChar

StartChar: t
Encoding: 116 116 84
Width: 409
VWidth: 0
Flags: W
HStem: 0 68<200 334> 273 68<200 334> 478 0G<67 200>
VStem: 68 137<67 267 334 466>
LayerCount: 2
Back
Fore
SplineSet
68 478 m 25
 205 478 l 25
 205 341 l 25
 341 341 l 25
 341 273 l 25
 205 273 l 25
 205 68 l 25
 341 68 l 25
 341 0 l 25
 137 0 l 25
 137 68 l 25
 68 68 l 25
 68 478 l 25
EndSplineSet
EndChar

StartChar: u
Encoding: 117 117 85
Width: 409
VWidth: 0
Flags: W
HStem: 0 68<134 200> 341 0G<67 134 200 334>
VStem: 68 68<67 334> 205 137<67 334>
LayerCount: 2
Back
Fore
SplineSet
68 341 m 25
 137 341 l 25
 137 68 l 25
 205 68 l 25
 205 341 l 25
 341 341 l 25
 341 0 l 25
 137 0 l 25
 137 68 l 25
 68 68 l 25
 68 341 l 25
EndSplineSet
EndChar

StartChar: v
Encoding: 118 118 86
Width: 409
VWidth: 0
Flags: W
HStem: 0 137<134 267> 137 205<0 67 267 334>
VStem: 0 137<134 334> 273 68<134 334>
LayerCount: 2
Back
Fore
SplineSet
0 341 m 25x70
 137 341 l 25x70
 137 137 l 25
 273 137 l 25xb0
 273 341 l 25
 341 341 l 25
 341 137 l 25x70
 273 137 l 25
 273 0 l 25
 68 0 l 25xb0
 68 137 l 25
 0 137 l 25
 0 341 l 25x70
EndSplineSet
EndChar

StartChar: w
Encoding: 119 119 87
Width: 409
VWidth: 0
Flags: W
HStem: 0 68<134 200 267 334> 341 0G<0 134 334 400>
VStem: 0 137<67 334> 205 68<67 267> 341 68<67 334>
LayerCount: 2
Back
Fore
SplineSet
0 341 m 25
 137 341 l 25
 137 68 l 25
 205 68 l 25
 205 273 l 25
 273 273 l 25
 273 68 l 25
 341 68 l 25
 341 341 l 25
 410 341 l 25
 410 0 l 25
 68 0 l 25
 68 68 l 25
 0 68 l 25
 0 341 l 25
EndSplineSet
EndChar

StartChar: x
Encoding: 120 120 88
Width: 409
VWidth: 0
Flags: W
HStem: 0 137<67 134 267 334> 205 137<67 134 267 334>
VStem: 68 137<200 334> 68 68<0 134> 205 137<0 134> 273 68<200 334>
LayerCount: 2
Back
Fore
SplineSet
68 341 m 25xe0
 205 341 l 25
 205 205 l 25
 273 205 l 25
 273 341 l 25
 341 341 l 25
 341 205 l 25
 273 205 l 25
 273 137 l 25xe4
 341 137 l 25
 341 0 l 25
 205 0 l 25
 205 137 l 25
 137 137 l 25
 137 0 l 25
 68 0 l 25
 68 137 l 25
 137 137 l 25
 137 205 l 25xd8
 68 205 l 25
 68 341 l 25xe0
EndSplineSet
EndChar

StartChar: y
Encoding: 121 121 89
Width: 409
VWidth: 0
Flags: W
HStem: -68 68<134 200> 68 68<134 200> 341 0G<67 134 200 334>
VStem: 68 68<134 334> 205 137<0 67 134 334>
LayerCount: 2
Back
Fore
SplineSet
68 341 m 25
 137 341 l 25
 137 137 l 25
 205 137 l 25
 205 341 l 25
 341 341 l 25
 341 0 l 25
 273 0 l 25
 273 -68 l 25
 137 -68 l 25
 137 0 l 25
 205 0 l 25
 205 68 l 25
 137 68 l 25
 137 137 l 25
 68 137 l 25
 68 341 l 25
EndSplineSet
EndChar

StartChar: z
Encoding: 122 122 90
Width: 409
VWidth: 0
Flags: W
HStem: 0 68<200 334> 273 68<67 200>
LayerCount: 2
Back
Fore
SplineSet
68 341 m 25
 341 341 l 25
 341 205 l 25
 273 205 l 25
 273 137 l 25
 205 137 l 25
 205 68 l 25
 341 68 l 25
 341 0 l 25
 68 0 l 25
 68 137 l 25
 137 137 l 25
 137 205 l 25
 205 205 l 25
 205 273 l 25
 68 273 l 25
 68 341 l 25
EndSplineSet
EndChar

StartChar: braceleft
Encoding: 123 123 91
Width: 409
VWidth: 0
Flags: W
HStem: 0 68<267 334> 205 68<67 134> 410 68<267 334>
VStem: 137 137<67 200 267 400> 205 137<0 67 400 466>
CounterMasks: 1 e0
LayerCount: 2
Back
Fore
SplineSet
68 273 m 25xf0
 137 273 l 25
 137 410 l 25xf0
 205 410 l 25
 205 478 l 25
 341 478 l 25
 341 410 l 25xe8
 273 410 l 25
 273 273 l 25xf0
 205 273 l 25
 205 205 l 25xe8
 273 205 l 25
 273 68 l 25xf0
 341 68 l 25
 341 0 l 25
 205 0 l 25
 205 68 l 25xe8
 137 68 l 25
 137 205 l 25
 68 205 l 25
 68 273 l 25xf0
EndSplineSet
EndChar

StartChar: bar
Encoding: 124 124 92
Width: 409
VWidth: 0
Flags: W
HStem: -68 0G<134 267> 410 0G<134 267>
VStem: 137 137<-67 400>
LayerCount: 2
Back
Fore
SplineSet
137 410 m 25
 273 410 l 25
 273 -68 l 25
 137 -68 l 25
 137 410 l 25
EndSplineSet
EndChar

StartChar: braceright
Encoding: 125 125 93
Width: 409
VWidth: 0
Flags: W
HStem: 0 68<67 134> 205 68<267 334> 410 68<67 134>
VStem: 68 137<0 67 400 466> 137 137<67 200 267 400>
CounterMasks: 1 e0
LayerCount: 2
Back
Fore
SplineSet
68 478 m 25xf0
 205 478 l 25
 205 410 l 25xf0
 273 410 l 25
 273 273 l 25
 341 273 l 25
 341 205 l 25
 273 205 l 25
 273 68 l 25xe8
 205 68 l 25
 205 0 l 25
 68 0 l 25
 68 68 l 25xf0
 137 68 l 25
 137 205 l 25xe8
 205 205 l 25
 205 273 l 25xf0
 137 273 l 25
 137 410 l 25xe8
 68 410 l 25
 68 478 l 25xf0
EndSplineSet
EndChar

StartChar: asciitilde
Encoding: 126 126 94
Width: 409
VWidth: 0
Flags: W
HStem: 137 68<67 134 267 334> 205 68<134 200 334 400>
VStem: 68 68<134 200> 341 68<200 267>
LayerCount: 2
Back
Fore
SplineSet
68 205 m 25xb0
 137 205 l 25xb0
 137 273 l 25
 273 273 l 25x70
 273 205 l 25
 341 205 l 25xb0
 341 273 l 25
 410 273 l 25
 410 205 l 25x70
 341 205 l 25
 341 137 l 25
 205 137 l 25xb0
 205 205 l 25x70
 137 205 l 25
 137 137 l 25
 68 137 l 25
 68 205 l 25xb0
EndSplineSet
EndChar

StartChar: currency
Encoding: 256 164 99
Width: 409
VWidth: 0
Flags: W
HStem: 0 68<0 67 334 400> 341 68<0 67 334 400>
VStem: 0 68<0 67 334 400> 341 68<0 67 334 400>
LayerCount: 2
Back
Fore
SplineSet
137 273 m 25
 137 137 l 25
 273 137 l 25
 273 273 l 25
 137 273 l 25
0 410 m 25
 68 410 l 25
 68 341 l 25
 341 341 l 25
 341 410 l 25
 410 410 l 25
 410 341 l 25
 341 341 l 25
 341 68 l 25
 410 68 l 25
 410 0 l 25
 341 0 l 25
 341 68 l 25
 68 68 l 25
 68 0 l 25
 0 0 l 25
 0 68 l 25
 68 68 l 25
 68 341 l 25
 0 341 l 25
 0 410 l 25
EndSplineSet
EndChar

StartChar: brokenbar
Encoding: 257 166 101
Width: 409
VWidth: 0
Flags: W
HStem: -68 0G<200 267> 410 0G<200 267>
VStem: 205 68<-67 400>
LayerCount: 2
Back
Fore
SplineSet
205 410 m 25
 273 410 l 25
 273 -68 l 25
 205 -68 l 25
 205 410 l 25
EndSplineSet
EndChar

StartChar: dieresis
Encoding: 258 168 103
Width: 409
VWidth: 0
Flags: W
HStem: 341 68<134 200 334 400>
VStem: 137 68<334 400> 341 68<334 400>
LayerCount: 2
Back
Fore
SplineSet
341 410 m 25
 410 410 l 25
 410 341 l 25
 341 341 l 25
 341 410 l 25
137 410 m 25
 205 410 l 25
 205 341 l 25
 137 341 l 25
 137 410 l 25
EndSplineSet
EndChar

StartChar: acute
Encoding: 259 180 114
Width: 409
VWidth: 0
Flags: W
HStem: 273 68<134 200> 478 0G<200 267>
VStem: 137 68<267 334> 205 68<334 466>
LayerCount: 2
Back
Fore
SplineSet
205 478 m 25xd0
 273 478 l 25
 273 341 l 25xd0
 205 341 l 25
 205 273 l 25
 137 273 l 25
 137 341 l 25
 205 341 l 25xe0
 205 478 l 25xd0
EndSplineSet
EndChar

StartChar: cedilla
Encoding: 260 184 118
Width: 409
VWidth: 0
Flags: W
HStem: -137 68<134 267> 0 68<200 267>
VStem: 205 68<0 67> 273 68<-67 0>
LayerCount: 2
Back
Fore
SplineSet
205 68 m 25xe0
 273 68 l 25
 273 0 l 25xe0
 341 0 l 25
 341 -137 l 25
 137 -137 l 25
 137 -68 l 25
 273 -68 l 25xd0
 273 0 l 25
 205 0 l 25
 205 68 l 25xe0
EndSplineSet
EndChar

StartChar: onequarter
Encoding: 261 188 122
Width: 409
VWidth: 0
Flags: W
HStem: -68 0G<267 334> 0 68<200 267 334 400> 68 68<0 67> 137 68<67 134 200 267> 205 68<134 200> 273 68<200 267> 341 68<267 334> 410 68<0 67>
VStem: 0 68<67 134> 68 68<134 200 267 400 466 533> 137 68<67 134 200 267> 205 68<267 334> 273 68<-67 0 67 134 200 267 334 400>
LayerCount: 2
Back
Fore
SplineSet
0 478 m 25x8580
 68 478 l 25
 68 546 l 25
 137 546 l 25
 137 273 l 25x8940
 205 273 l 25x8920
 205 341 l 25
 273 341 l 25x8410
 273 410 l 25
 341 410 l 25
 341 341 l 25x8208
 273 341 l 25
 273 273 l 25x8410
 341 273 l 25
 341 68 l 25
 410 68 l 25
 410 0 l 25
 341 0 l 25
 341 -68 l 25
 273 -68 l 25
 273 0 l 25
 137 0 l 25xc428
 137 137 l 25xd440
 205 137 l 25
 205 68 l 25
 273 68 l 25
 273 137 l 25
 205 137 l 25
 205 205 l 25
 273 205 l 25xd428
 273 273 l 25xd410
 205 273 l 25x8820
 205 205 l 25x9020
 137 205 l 25
 137 137 l 25x9040
 68 137 l 25
 68 68 l 25
 0 68 l 25
 0 137 l 25
 68 137 l 25xa080
 68 205 l 25
 137 205 l 25x9040
 137 273 l 25x8840
 68 273 l 25
 68 410 l 25x8540
 0 410 l 25
 0 478 l 25x8580
EndSplineSet
EndChar

StartChar: onehalf
Encoding: 262 189 123
Width: 409
VWidth: 0
Flags: W
HStem: 0 68<200 267 334 400> 68 68<0 67> 137 68<67 134 334 400> 205 68<134 200 267 334> 341 68<267 334> 410 68<0 67>
VStem: 0 68<67 134> 68 68<134 200 267 400 466 533> 205 68<267 334> 273 68<67 134 334 400> 341 68<134 200>
LayerCount: 2
Back
Fore
SplineSet
0 478 m 25x16
 68 478 l 25x15
 68 546 l 25
 137 546 l 25
 137 273 l 25
 205 273 l 25
 205 341 l 25
 273 341 l 25x1980
 273 410 l 25
 341 410 l 25
 341 341 l 25x1840
 273 341 l 25
 273 273 l 25
 341 273 l 25x18a0
 341 205 l 25
 410 205 l 25
 410 137 l 25x20a0
 341 137 l 25
 341 68 l 25xa040
 410 68 l 25
 410 0 l 25
 205 0 l 25
 205 68 l 25xa0a0
 273 68 l 25
 273 137 l 25
 341 137 l 25xa040
 341 205 l 25
 137 205 l 25
 137 137 l 25xa120
 68 137 l 25
 68 68 l 25
 0 68 l 25
 0 137 l 25
 68 137 l 25x42
 68 205 l 25
 137 205 l 25x21
 137 273 l 25
 68 273 l 25
 68 410 l 25x15
 0 410 l 25
 0 478 l 25x16
EndSplineSet
EndChar

StartChar: threequarters
Encoding: 263 190 124
Width: 409
VWidth: 0
Flags: W
HStem: -68 0G<267 334> 0 68<200 267 334 400> 68 68<0 67> 137 68<67 134 200 267> 273 68<0 134 200 267> 341 68<267 334> 478 68<0 67>
VStem: 0 68<67 134> 68 68<134 200> 137 68<67 134 200 267 334 400> 273 68<-67 0 67 134 200 267 334 400>
LayerCount: 2
Back
Fore
SplineSet
0 546 m 25x8720
 205 546 l 25
 205 341 l 25
 273 341 l 25x8b60
 273 410 l 25
 341 410 l 25
 341 341 l 25x8760
 273 341 l 25
 273 273 l 25
 341 273 l 25
 341 68 l 25
 410 68 l 25
 410 0 l 25
 341 0 l 25
 341 -68 l 25
 273 -68 l 25
 273 0 l 25
 137 0 l 25xcb60
 137 137 l 25xdaa0
 205 137 l 25
 205 68 l 25
 273 68 l 25
 273 137 l 25
 205 137 l 25
 205 205 l 25
 273 205 l 25
 273 273 l 25
 205 273 l 25
 205 205 l 25xda60
 137 205 l 25
 137 137 l 25xdaa0
 68 137 l 25
 68 68 l 25
 0 68 l 25
 0 137 l 25
 68 137 l 25xa320
 68 205 l 25
 137 205 l 25x92a0
 137 273 l 25
 0 273 l 25
 0 341 l 25
 137 341 l 25x9b60
 137 410 l 25x8760
 68 410 l 25
 68 478 l 25x86a0
 0 478 l 25
 0 546 l 25x8720
EndSplineSet
EndChar

StartChar: questiondown
Encoding: 191 191 125
Width: 409
VWidth: 0
Flags: W
HStem: -68 68<134 267> 0 68<267 334> 137 68<134 200> 205 68<200 267> 341 68<200 267>
VStem: 68 68<0 134> 137 68<134 200> 205 68<200 267 334 400> 273 68<0 67>
LayerCount: 2
Back
Fore
SplineSet
205 273 m 25x19
 273 273 l 25
 273 205 l 25x19
 205 205 l 25
 205 137 l 25x2a
 137 137 l 25
 137 0 l 25
 273 0 l 25xac80
 273 68 l 25
 341 68 l 25
 341 0 l 25x4c80
 273 0 l 25
 273 -68 l 25
 137 -68 l 25x8a80
 137 0 l 25x8c
 68 0 l 25
 68 137 l 25
 137 137 l 25x6c
 137 205 l 25
 205 205 l 25x6a
 205 273 l 25x19
205 410 m 25
 273 410 l 25
 273 341 l 25
 205 341 l 25
 205 410 l 25
EndSplineSet
EndChar

StartChar: Agrave
Encoding: 192 192 126
Width: 409
VWidth: 0
Flags: W
HStem: 0 0G<67 200 267 334> 137 68<200 267> 341 0G<267 334> 341 68<200 267>
VStem: 68 137<0 134 200 334> 273 68<0 134 200 334>
LayerCount: 2
Back
Fore
SplineSet
137 478 m 29
 137 546 l 25
 205 546 l 25
 205 478 l 25
 273 478 l 25
 273 410 l 25
 205 410 l 25
 205 478 l 25
 137 478 l 29
68 341 m 25xdc
 137 341 l 25
 137 410 l 25
 273 410 l 25xdc
 273 341 l 25xec
 205 341 l 25xdc
 205 205 l 25
 273 205 l 25
 273 341 l 25
 341 341 l 25xec
 341 0 l 25
 273 0 l 25
 273 137 l 25
 205 137 l 25
 205 0 l 25
 68 0 l 25
 68 341 l 25xdc
EndSplineSet
EndChar

StartChar: Aacute
Encoding: 193 193 127
Width: 409
VWidth: 0
Flags: W
HStem: 0 0G<67 200 267 334> 137 68<200 267> 341 0G<267 334> 341 68<200 267>
VStem: 68 137<0 134 200 334> 273 68<0 134 200 334>
LayerCount: 2
Back
Fore
SplineSet
137 410 m 29
 137 478 l 25
 205 478 l 25
 205 546 l 25
 273 546 l 25
 273 478 l 25
 205 478 l 25
 205 410 l 25
 137 410 l 29
68 341 m 25xdc
 137 341 l 25
 137 410 l 25
 273 410 l 25xdc
 273 341 l 25xec
 205 341 l 25xdc
 205 205 l 25
 273 205 l 25
 273 341 l 25
 341 341 l 25xec
 341 0 l 25
 273 0 l 25
 273 137 l 25
 205 137 l 25
 205 0 l 25
 68 0 l 25
 68 341 l 25xdc
EndSplineSet
EndChar

StartChar: Acircumflex
Encoding: 194 194 128
Width: 409
VWidth: 0
Flags: W
HStem: 0 0G<67 200 267 334> 137 68<200 267> 341 0G<267 334> 341 68<200 267>
VStem: 68 137<0 134 200 334> 273 68<0 134 200 334>
LayerCount: 2
Back
Fore
SplineSet
68 410 m 29
 68 478 l 25
 137 478 l 25
 137 546 l 25
 273 546 l 25
 273 478 l 25
 341 478 l 25
 341 410 l 25
 273 410 l 25
 273 478 l 25
 137 478 l 25
 137 410 l 25
 68 410 l 29
68 341 m 25xdc
 137 341 l 25
 137 410 l 25
 273 410 l 25xdc
 273 341 l 25xec
 205 341 l 25xdc
 205 205 l 25
 273 205 l 25
 273 341 l 25
 341 341 l 25xec
 341 0 l 25
 273 0 l 25
 273 137 l 25
 205 137 l 25
 205 0 l 25
 68 0 l 25
 68 341 l 25xdc
EndSplineSet
EndChar

StartChar: Atilde
Encoding: 195 195 129
Width: 409
VWidth: 0
Flags: W
HStem: 0 0G<67 200 267 334> 137 68<200 267> 341 0G<267 334> 341 68<200 267>
VStem: 68 137<0 134 200 334> 273 68<0 134 200 334>
LayerCount: 2
Back
Fore
SplineSet
68 478 m 1053
68 410 m 25,1,-1
 68 478 l 25,2,-1
 137 478 l 25,3,-1
 137 546 l 25,4,-1
 205 546 l 25,5,-1
 205 478 l 25,6,-1
 273 478 l 25,7,-1
 273 546 l 25,8,-1
 341 546 l 25,9,-1
 341 478 l 25,10,-1
 273 478 l 25,11,-1
 273 410 l 25,12,-1
 205 410 l 25,13,-1
 205 478 l 25,14,-1
 137 478 l 25,15,-1
 137 410 l 25,16,-1
 68 410 l 25,1,-1
68 341 m 25,0,-1
 137 341 l 25,1,-1
 137 410 l 25,2,-1
 273 410 l 25,3,-1
 273 341 l 25,4,-1
 205 341 l 25,5,-1
 205 205 l 25,6,-1
 273 205 l 25,7,-1
 273 341 l 25,8,-1
 341 341 l 25,9,-1
 341 0 l 25,10,-1
 273 0 l 25,11,-1
 273 137 l 25,12,-1
 205 137 l 25,13,-1
 205 0 l 25,14,-1
 68 0 l 25,15,-1
 68 341 l 25,0,-1
EndSplineSet
EndChar

StartChar: null.dup1
Encoding: 196 196 130
Width: 409
VWidth: 0
Flags: W
HStem: 0 0G<67 200 267 334> 137 68<200 267> 341 0G<267 334> 341 68<200 267>
VStem: 68 137<0 134 200 334> 273 68<0 134 200 334>
LayerCount: 2
Back
Fore
SplineSet
273 478 m 29
 273 546 l 25
 341 546 l 25
 341 478 l 25
 273 478 l 29
137 478 m 25
 137 546 l 25
 205 546 l 25
 205 478 l 25
 137 478 l 25
68 341 m 25xdc
 137 341 l 25
 137 410 l 25
 273 410 l 25xdc
 273 341 l 25xec
 205 341 l 25xdc
 205 205 l 25
 273 205 l 25
 273 341 l 25
 341 341 l 25xec
 341 0 l 25
 273 0 l 25
 273 137 l 25
 205 137 l 25
 205 0 l 25
 68 0 l 25
 68 341 l 25xdc
EndSplineSet
EndChar

StartChar: Aring
Encoding: 197 197 131
Width: 409
VWidth: 0
Flags: W
HStem: 0 0G<67 200 267 334> 137 68<200 267> 341 0G<267 334> 341 68<200 267>
VStem: 68 137<0 134 200 334> 273 68<0 134 200 334>
LayerCount: 2
Back
Fore
SplineSet
68 478 m 29
 68 546 l 25
 137 546 l 25
 137 614 l 25
 273 614 l 25
 273 546 l 25
 205 546 l 25
 205 478 l 25
 273 478 l 25
 273 546 l 25
 341 546 l 25
 341 478 l 25
 273 478 l 25
 273 410 l 25
 137 410 l 25
 137 478 l 25
 68 478 l 29
68 341 m 25xdc
 137 341 l 25
 137 410 l 25
 273 410 l 25xdc
 273 341 l 25xec
 205 341 l 25xdc
 205 205 l 25
 273 205 l 25
 273 341 l 25
 341 341 l 25xec
 341 0 l 25
 273 0 l 25
 273 137 l 25
 205 137 l 25
 205 0 l 25
 68 0 l 25
 68 341 l 25xdc
EndSplineSet
EndChar

StartChar: AE
Encoding: 198 198 132
Width: 341
VWidth: 0
Flags: W
HStem: 0 0G<-1 132 199 266> 137 68<132 199> 341 0G<199 266> 341 68<132 199>
VStem: 0 137<0 134 200 334> 205 68<0 134 200 334>
LayerCount: 2
Back
Fore
SplineSet
0 0 m 29
 0 273 l 25
 0 341 l 25
 68 341 l 25
 68 205 l 25
 137 205 l 25
 137 341 l 25
 68 341 l 25
 68 410 l 25
 341 410 l 25
 341 341 l 25
 273 341 l 25
 273 205 l 25
 341 205 l 25
 341 137 l 25
 273 137 l 25
 273 68 l 25
 341 68 l 25
 341 0 l 25
 137 0 l 25
 137 137 l 25
 68 137 l 25
 68 0 l 25
 0 0 l 29
EndSplineSet
EndChar

StartChar: Ccedilla
Encoding: 199 199 133
Width: 409
VWidth: 0
Flags: W
HStem: 0 68<200 334> 341 68<200 334>
VStem: 68 137<67 334> 137 205<0 67 334 400>
LayerCount: 2
Back
Fore
SplineSet
137 -137 m 29
 137 -68 l 25
 205 -68 l 25
 205 0 l 25
 273 0 l 25
 273 -68 l 25
 205 -68 l 25
 205 -137 l 25
 137 -137 l 29
137 410 m 25xd0
 341 410 l 25
 341 341 l 25xd0
 205 341 l 25
 205 68 l 25xe0
 341 68 l 25
 341 0 l 25
 137 0 l 25
 137 68 l 25xd0
 68 68 l 25
 68 341 l 25xe0
 137 341 l 25
 137 410 l 25xd0
EndSplineSet
EndChar

StartChar: Egrave
Encoding: 200 200 134
Width: 409
VWidth: 0
Flags: W
HStem: 0 68<200 334> 205 68<200 267> 341 68<200 334>
VStem: 68 137<67 200 267 334>
LayerCount: 2
Back
Fore
SplineSet
137 478 m 29
 137 546 l 25
 205 546 l 25
 205 478 l 25
 273 478 l 25
 273 410 l 25
 205 410 l 25
 205 478 l 25
 137 478 l 29
68 410 m 25
 341 410 l 25
 341 341 l 25
 205 341 l 25
 205 273 l 25
 273 273 l 25
 273 205 l 25
 205 205 l 25
 205 68 l 25
 341 68 l 25
 341 0 l 25
 68 0 l 25
 68 410 l 25
EndSplineSet
EndChar

StartChar: Eacute
Encoding: 201 201 135
Width: 409
VWidth: 0
Flags: W
HStem: 0 68<200 334> 205 68<200 267> 341 68<200 334>
VStem: 68 137<67 200 267 334>
LayerCount: 2
Back
Fore
SplineSet
137 478 m 29
 205 478 l 25
 205 546 l 25
 273 546 l 25
 273 478 l 25
 205 478 l 25
 205 410 l 25
 137 410 l 25
 137 478 l 29
68 410 m 17
 137 410 l 1
 341 410 l 9
 341 341 l 25
 205 341 l 25
 205 273 l 25
 273 273 l 25
 273 205 l 25
 205 205 l 25
 205 68 l 25
 341 68 l 25
 341 0 l 25
 68 0 l 25
 68 410 l 17
EndSplineSet
EndChar

StartChar: Ecircumflex
Encoding: 202 202 136
Width: 409
VWidth: 0
Flags: W
HStem: 0 68<200 334> 205 68<200 267> 341 68<200 334>
VStem: 68 137<67 200 267 334>
LayerCount: 2
Back
Fore
SplineSet
68 478 m 29
 137 478 l 25
 137 546 l 25
 273 546 l 25
 273 478 l 25
 341 478 l 25
 341 410 l 25
 273 410 l 25
 273 478 l 25
 137 478 l 25
 137 410 l 25
 68 410 l 25
 68 478 l 29
68 410 m 25
 341 410 l 25
 341 341 l 25
 205 341 l 25
 205 273 l 25
 273 273 l 25
 273 205 l 25
 205 205 l 25
 205 68 l 25
 341 68 l 25
 341 0 l 25
 68 0 l 25
 68 410 l 25
EndSplineSet
EndChar

StartChar: Edieresis
Encoding: 203 203 137
Width: 409
VWidth: 0
Flags: W
HStem: 0 68<200 334> 205 68<200 267> 341 68<200 334>
VStem: 68 137<67 200 267 334>
LayerCount: 2
Back
Fore
SplineSet
273 478 m 29
 273 546 l 25
 341 546 l 25
 341 478 l 25
 273 478 l 29
137 478 m 25
 137 546 l 25
 205 546 l 25
 205 478 l 25
 137 478 l 25
68 410 m 25
 341 410 l 25
 341 341 l 25
 205 341 l 25
 205 273 l 25
 273 273 l 25
 273 205 l 25
 205 205 l 25
 205 68 l 25
 341 68 l 25
 341 0 l 25
 68 0 l 25
 68 410 l 25
EndSplineSet
EndChar

StartChar: Igrave
Encoding: 204 204 138
Width: 409
VWidth: 0
Flags: W
HStem: 0 0G<134 267> 410 0G<134 267>
VStem: 137 137<0 400>
LayerCount: 2
Back
Fore
SplineSet
137 546 m 29
 205 546 l 25
 205 478 l 25
 273 478 l 25
 273 410 l 25
 205 410 l 25
 205 478 l 25
 137 478 l 25
 137 546 l 29
137 341 m 25
 273 341 l 25
 273 0 l 1
 137 0 l 1
 137 341 l 25
EndSplineSet
EndChar

StartChar: Iacute
Encoding: 205 205 139
Width: 409
VWidth: 0
Flags: W
HStem: 0 0G<134 267> 410 0G<134 267>
VStem: 137 137<0 400>
LayerCount: 2
Back
Fore
SplineSet
137 410 m 29
 137 478 l 25
 205 478 l 25
 205 546 l 25
 273 546 l 25
 273 478 l 25
 205 478 l 25
 205 410 l 25
 137 410 l 29
137 341 m 1
 273 341 l 1
 273 0 l 1
 137 0 l 1
 137 341 l 1
EndSplineSet
EndChar

StartChar: Icircumflex
Encoding: 206 206 140
Width: 409
VWidth: 0
Flags: W
HStem: 0 0G<134 267> 410 0G<134 267>
VStem: 137 137<0 400>
LayerCount: 2
Back
Fore
SplineSet
68 410 m 29
 68 478 l 25
 137 478 l 25
 137 546 l 25
 273 546 l 25
 273 478 l 25
 341 478 l 25
 341 410 l 25
 273 410 l 25
 273 478 l 25
 137 478 l 25
 137 410 l 25
 68 410 l 29
137 341 m 1
 273 341 l 1
 273 0 l 1
 137 0 l 1
 137 341 l 1
EndSplineSet
EndChar

StartChar: Idieresis
Encoding: 207 207 141
Width: 409
VWidth: 0
Flags: W
HStem: 0 0G<134 267> 410 0G<134 267>
VStem: 137 137<0 400>
LayerCount: 2
Back
Fore
SplineSet
273 410 m 29
 273 478 l 25
 341 478 l 25
 341 410 l 25
 273 410 l 29
137 410 m 25
 137 478 l 25
 205 478 l 25
 205 410 l 25
 137 410 l 25
137 341 m 1
 273 341 l 1
 273 0 l 1
 137 0 l 1
 137 341 l 1
EndSplineSet
EndChar

StartChar: Eth
Encoding: 208 208 142
Width: 409
VWidth: 0
Flags: W
HStem: 0 68<200 334> 205 68<67 134 200 267> 341 0G<334 400> 341 68<200 334>
VStem: 137 205<0 67 334 400> 137 68<67 200 267 334> 341 68<67 334>
LayerCount: 2
Back
Fore
SplineSet
0 273 m 1xe4
 68 273 l 1xe4
 68 410 l 1
 341 410 l 1xd8
 341 341 l 25xe8
 205 341 l 25
 205 273 l 25
 273 273 l 25
 273 205 l 25
 205 205 l 25
 205 68 l 25xd4
 341 68 l 25
 341 341 l 25xe8
 410 341 l 25
 410 68 l 25xe2
 341 68 l 25
 341 0 l 1
 68 0 l 5xe8
 68 205 l 1
 0 205 l 1
 0 273 l 1xe4
EndSplineSet
EndChar

StartChar: Ntilde
Encoding: 209 209 143
Width: 409
VWidth: 0
Flags: W
HStem: 0 0G<67 200 334 400> 137 68<267 334> 205 68<200 267> 410 0G<67 200 334 400>
VStem: 68 137<0 200 267 400> 341 68<0 134 200 400>
LayerCount: 2
Back
Fore
SplineSet
137 546 m 29
 205 546 l 25
 205 614 l 25
 273 614 l 25
 273 546 l 25
 341 546 l 25
 341 614 l 25
 410 614 l 25
 410 546 l 25
 341 546 l 25
 341 478 l 25
 273 478 l 25
 273 546 l 25
 205 546 l 25
 205 478 l 25
 137 478 l 25
 137 546 l 29
68 410 m 25xbc
 205 410 l 25
 205 273 l 25
 273 273 l 25xbc
 273 205 l 25
 341 205 l 25
 341 410 l 25
 410 410 l 25
 410 0 l 25
 341 0 l 25
 341 137 l 25
 273 137 l 25
 273 205 l 25xdc
 205 205 l 25
 205 0 l 25
 68 0 l 25
 68 410 l 25xbc
EndSplineSet
EndChar

StartChar: Ograve
Encoding: 210 210 144
Width: 409
VWidth: 0
Flags: W
HStem: 0 68<200 267> 341 0G<267 334> 341 68<200 267>
VStem: 68 137<67 334> 137 137<0 67 334 400> 273 68<67 334>
LayerCount: 2
Back
Fore
SplineSet
137 478 m 29
 137 546 l 25
 205 546 l 25
 205 478 l 25
 273 478 l 25
 273 410 l 25
 205 410 l 25
 205 478 l 25
 137 478 l 29
68 341 m 25xb0
 137 341 l 25
 137 410 l 25
 273 410 l 25xa8
 273 341 l 25xc8
 205 341 l 25
 205 68 l 25xb0
 273 68 l 25
 273 341 l 25xc8
 341 341 l 25
 341 68 l 25xc4
 273 68 l 25
 273 0 l 25
 137 0 l 25
 137 68 l 25xc8
 68 68 l 25
 68 341 l 25xb0
EndSplineSet
EndChar

StartChar: Oacute
Encoding: 211 211 145
Width: 409
VWidth: 0
Flags: W
HStem: 0 68<200 267> 341 0G<267 334> 341 68<200 267>
VStem: 68 137<67 334> 137 137<0 67 334 400> 273 68<67 334>
LayerCount: 2
Back
Fore
SplineSet
137 478 m 29
 205 478 l 25
 205 546 l 25
 273 546 l 25
 273 478 l 25
 205 478 l 25
 205 410 l 25
 137 410 l 25
 137 478 l 29
68 341 m 25xb0
 137 341 l 25
 137 410 l 25
 273 410 l 25xa8
 273 341 l 25xc8
 205 341 l 25
 205 68 l 25xb0
 273 68 l 25
 273 341 l 25xc8
 341 341 l 25
 341 68 l 25xc4
 273 68 l 25
 273 0 l 25
 137 0 l 25
 137 68 l 25xc8
 68 68 l 25
 68 341 l 25xb0
EndSplineSet
EndChar

StartChar: Ocircumflex
Encoding: 212 212 146
Width: 409
VWidth: 0
Flags: W
HStem: 0 68<200 267> 341 0G<267 334> 341 68<200 267>
VStem: 68 137<67 334> 137 137<0 67 334 400> 273 68<67 334>
LayerCount: 2
Back
Fore
SplineSet
68 410 m 29
 68 478 l 25
 137 478 l 25
 137 546 l 25
 273 546 l 25
 273 478 l 25
 341 478 l 25
 341 410 l 25
 273 410 l 25
 273 478 l 25
 137 478 l 25
 137 410 l 25
 68 410 l 29
68 341 m 25xb0
 137 341 l 25
 137 410 l 25
 273 410 l 25xa8
 273 341 l 25xc8
 205 341 l 25
 205 68 l 25xb0
 273 68 l 25
 273 341 l 25xc8
 341 341 l 25
 341 68 l 25xc4
 273 68 l 25
 273 0 l 25
 137 0 l 25
 137 68 l 25xc8
 68 68 l 25
 68 341 l 25xb0
EndSplineSet
EndChar

StartChar: Otilde
Encoding: 213 213 147
Width: 409
VWidth: 0
Flags: W
HStem: 0 68<200 267> 341 0G<267 334> 341 68<200 267>
VStem: 68 137<67 334> 137 137<0 67 334 400> 273 68<67 334>
LayerCount: 2
Back
Fore
SplineSet
68 410 m 29
 68 478 l 25
 137 478 l 25
 137 546 l 25
 205 546 l 25
 205 478 l 25
 273 478 l 25
 273 546 l 25
 341 546 l 25
 341 478 l 25
 273 478 l 25
 273 410 l 25
 205 410 l 25
 205 478 l 25
 137 478 l 25
 137 410 l 25
 68 410 l 29
68 341 m 25xb0
 137 341 l 25
 137 410 l 25
 273 410 l 25xa8
 273 341 l 25xc8
 205 341 l 25
 205 68 l 25xb0
 273 68 l 25
 273 341 l 25xc8
 341 341 l 25
 341 68 l 25xc4
 273 68 l 25
 273 0 l 25
 137 0 l 25
 137 68 l 25xc8
 68 68 l 25
 68 341 l 25xb0
EndSplineSet
EndChar

StartChar: Odieresis
Encoding: 214 214 148
Width: 409
VWidth: 0
Flags: W
HStem: 0 68<200 267> 341 0G<267 334> 341 68<200 267>
VStem: 68 137<67 334> 137 137<0 67 334 400> 273 68<67 334>
LayerCount: 2
Back
Fore
SplineSet
273 546 m 29
 341 546 l 25
 341 478 l 25
 273 478 l 25
 273 546 l 29
137 546 m 25
 205 546 l 25
 205 478 l 25
 137 478 l 25
 137 546 l 25
68 341 m 25xb0
 137 341 l 25
 137 410 l 25
 273 410 l 25xa8
 273 341 l 25xc8
 205 341 l 25
 205 68 l 25xb0
 273 68 l 25
 273 341 l 25xc8
 341 341 l 25
 341 68 l 25xc4
 273 68 l 25
 273 0 l 25
 137 0 l 25
 137 68 l 25xc8
 68 68 l 25
 68 341 l 25xb0
EndSplineSet
EndChar

StartChar: multiply
Encoding: 215 215 149
Width: 409
VWidth: 0
Flags: W
HStem: 137 68<134 200 267 334> 273 68<134 200 267 334>
VStem: 137 68<134 200 267 334> 273 68<134 200 267 334>
LayerCount: 2
Back
Fore
SplineSet
137 341 m 25
 205 341 l 25
 205 273 l 25
 273 273 l 25
 273 341 l 25
 341 341 l 25
 341 273 l 25
 273 273 l 25
 273 205 l 25
 341 205 l 25
 341 137 l 25
 273 137 l 25
 273 205 l 25
 205 205 l 25
 205 137 l 25
 137 137 l 25
 137 205 l 25
 205 205 l 25
 205 273 l 25
 137 273 l 25
 137 341 l 25
EndSplineSet
EndChar

StartChar: Oslash
Encoding: 216 216 150
Width: 341
VWidth: 0
Flags: W
HStem: 0 68<0 67 134 267> 205 68<200 267> 341 68<134 267 334 400>
VStem: 0 68<0 67> 68 68<67 134 200 334> 137 137<0 67 334 400> 273 68<67 200 267 334> 341 68<334 400>
LayerCount: 2
Back
Fore
SplineSet
0 0 m 29
 0 68 l 25
 68 68 l 25
 68 341 l 25
 137 341 l 25
 137 410 l 25
 273 410 l 25
 273 341 l 25
 205 341 l 25
 205 273 l 25
 273 273 l 25
 273 341 l 25
 341 341 l 25
 341 410 l 25
 410 410 l 25
 410 341 l 25
 341 341 l 25
 341 68 l 25
 273 68 l 25
 273 205 l 25
 205 205 l 25
 205 68 l 25
 273 68 l 25
 273 0 l 25
 137 0 l 25
 137 68 l 25
 68 68 l 25
 68 0 l 25
 0 0 l 29
EndSplineSet
EndChar

StartChar: Ugrave
Encoding: 217 217 151
Width: 409
VWidth: 0
Flags: W
HStem: 0 68<200 267> 410 0G<67 200 267 334>
VStem: 68 137<67 400> 273 68<67 400>
LayerCount: 2
Back
Fore
SplineSet
137 478 m 29
 137 546 l 25
 205 546 l 25
 205 478 l 25
 273 478 l 25
 273 410 l 25
 205 410 l 25
 205 478 l 25
 137 478 l 29
68 410 m 25
 205 410 l 25
 205 68 l 25
 273 68 l 25
 273 410 l 25
 341 410 l 25
 341 0 l 25
 137 0 l 25
 137 68 l 25
 68 68 l 25
 68 410 l 25
EndSplineSet
EndChar

StartChar: Uacute
Encoding: 218 218 152
Width: 409
VWidth: 0
Flags: W
HStem: 0 68<200 267> 410 0G<67 200 267 334>
VStem: 68 137<67 400> 273 68<67 400>
LayerCount: 2
Back
Fore
SplineSet
137 478 m 29
 205 478 l 25
 205 546 l 25
 273 546 l 25
 273 478 l 25
 205 478 l 25
 205 410 l 25
 137 410 l 25
 137 478 l 29
68 410 m 25
 205 410 l 25
 205 68 l 25
 273 68 l 25
 273 410 l 25
 341 410 l 25
 341 0 l 25
 137 0 l 25
 137 68 l 25
 68 68 l 25
 68 410 l 25
EndSplineSet
EndChar

StartChar: Ucircumflex
Encoding: 219 219 153
Width: 409
VWidth: 0
Flags: W
HStem: 0 68<200 267> 410 0G<67 200 267 334>
VStem: 68 137<67 400> 273 68<67 400>
LayerCount: 2
Back
Fore
SplineSet
68 478 m 29
 68 546 l 25
 137 546 l 25
 137 614 l 25
 273 614 l 25
 273 546 l 25
 341 546 l 25
 341 478 l 25
 273 478 l 25
 273 546 l 25
 137 546 l 25
 137 478 l 25
 68 478 l 29
68 410 m 25
 205 410 l 25
 205 68 l 25
 273 68 l 25
 273 410 l 25
 341 410 l 25
 341 0 l 25
 137 0 l 25
 137 68 l 25
 68 68 l 25
 68 410 l 25
EndSplineSet
EndChar

StartChar: Udieresis
Encoding: 220 220 154
Width: 409
VWidth: 0
Flags: W
HStem: 0 68<200 267> 410 0G<67 200 267 334>
VStem: 68 137<67 400> 273 68<67 400>
LayerCount: 2
Back
Fore
SplineSet
273 478 m 29
 273 546 l 25
 341 546 l 25
 341 478 l 25
 273 478 l 29
137 478 m 25
 137 546 l 25
 205 546 l 25
 205 478 l 25
 137 478 l 25
68 410 m 25
 205 410 l 25
 205 68 l 25
 273 68 l 25
 273 410 l 25
 341 410 l 25
 341 0 l 25
 137 0 l 25
 137 68 l 25
 68 68 l 25
 68 410 l 25
EndSplineSet
EndChar

StartChar: Yacute
Encoding: 221 221 155
Width: 409
VWidth: 0
Flags: W
HStem: 0 0G<134 267> 205 68<267 334> 273 137<0 67 334 400>
VStem: 0 137<267 400> 273 68<200 267> 341 68<267 400>
LayerCount: 2
Back
Fore
SplineSet
205 410 m 29
 205 478 l 25
 273 478 l 25
 273 546 l 25
 341 546 l 25
 341 478 l 25
 273 478 l 25
 273 410 l 25
 205 410 l 29
0 410 m 25xb8
 137 410 l 25
 137 273 l 25
 205 273 l 25xb8
 205 205 l 25
 273 205 l 25
 273 273 l 25
 341 273 l 25xd8
 341 410 l 25
 410 410 l 25
 410 273 l 25xb4
 341 273 l 25
 341 205 l 25
 273 205 l 25
 273 0 l 25
 137 0 l 25
 137 205 l 25
 68 205 l 25xd8
 68 273 l 25
 0 273 l 25
 0 410 l 25xb8
EndSplineSet
EndChar

StartChar: Thorn
Encoding: 222 222 156
Width: 409
VWidth: 0
Flags: W
HStem: -68 0G<67 134> 68 68<134 267> 273 68<134 267> 478 0G<67 134>
VStem: 68 205<67 134 267 334> 68 68<-67 67 134 267 334 466> 273 68<134 267>
LayerCount: 2
Back
Fore
SplineSet
68 478 m 1xf4
 205 478 l 1
 205 341 l 1xf4
 273 341 l 1
 273 273 l 1xf8
 205 273 l 1
 205 137 l 1xf4
 273 137 l 1
 273 273 l 25xf8
 341 273 l 25
 341 137 l 25xf2
 273 137 l 25
 273 68 l 1xf8
 205 68 l 1
 205 -68 l 5
 68 -68 l 1
 68 478 l 1xf4
EndSplineSet
EndChar

StartChar: germandbls
Encoding: 223 223 157
Width: 409
VWidth: 0
Flags: W
HStem: -68 0G<67 134> 0 68<200 267> 410 68<134 200>
VStem: 68 68<-67 400> 205 68<0 67 267 400> 273 68<67 267>
LayerCount: 2
Back
Fore
SplineSet
68 410 m 1xf8
 137 410 l 25
 137 478 l 1
 273 478 l 25xf4
 273 273 l 25xf8
 341 273 l 25
 341 68 l 25xf4
 273 68 l 25
 273 0 l 25
 205 0 l 25
 205 68 l 25
 273 68 l 25
 273 273 l 1
 205 273 l 5
 205 273 l 5
 205 -68 l 1
 68 -68 l 1
 68 410 l 1xf8
EndSplineSet
EndChar

StartChar: agrave
Encoding: 224 224 158
Width: 409
VWidth: 0
Flags: W
HStem: 0 68<134 200 334 400> 273 68<134 200>
VStem: 68 68<67 267> 205 137<67 267> 341 68<0 67>
LayerCount: 2
Back
Fore
SplineSet
137 478 m 29
 137 546 l 25
 205 546 l 25
 205 478 l 25
 273 478 l 25
 273 410 l 25
 205 410 l 25
 205 478 l 25
 137 478 l 29
137 341 m 25xf0
 341 341 l 25xe8
 341 68 l 25xf0
 410 68 l 25
 410 0 l 25
 341 0 l 25xe8
 341 68 l 25
 273 68 l 25
 273 0 l 25
 137 0 l 25
 137 68 l 25
 205 68 l 25
 205 273 l 25
 137 273 l 25
 137 68 l 25
 68 68 l 25
 68 273 l 25
 137 273 l 25
 137 341 l 25xf0
EndSplineSet
EndChar

StartChar: aacute
Encoding: 225 225 159
Width: 409
VWidth: 0
Flags: W
HStem: 0 68<134 200 334 400> 273 68<134 200>
VStem: 68 68<67 267> 205 137<67 267> 341 68<0 67>
LayerCount: 2
Back
Fore
SplineSet
137 410 m 29
 137 478 l 25
 205 478 l 25
 205 546 l 25
 273 546 l 25
 273 478 l 25
 205 478 l 25
 205 410 l 25
 137 410 l 29
137 341 m 25xf0
 341 341 l 25xe8
 341 68 l 25xf0
 410 68 l 25
 410 0 l 25
 341 0 l 25xe8
 341 68 l 25
 273 68 l 25
 273 0 l 25
 137 0 l 25
 137 68 l 25
 205 68 l 25
 205 273 l 25
 137 273 l 25
 137 68 l 25
 68 68 l 25
 68 273 l 25
 137 273 l 25
 137 341 l 25xf0
EndSplineSet
EndChar

StartChar: acircumflex
Encoding: 226 226 160
Width: 409
VWidth: 0
Flags: W
HStem: 0 68<134 200 334 400> 273 68<134 200>
VStem: 68 68<67 267> 205 137<67 267> 341 68<0 67>
LayerCount: 2
Back
Fore
SplineSet
68 410 m 29
 68 478 l 25
 137 478 l 25
 137 546 l 25
 273 546 l 25
 273 478 l 25
 341 478 l 25
 341 410 l 25
 273 410 l 25
 273 478 l 25
 137 478 l 25
 137 410 l 25
 68 410 l 29
137 341 m 25xf0
 341 341 l 25xe8
 341 68 l 25xf0
 410 68 l 25
 410 0 l 25
 341 0 l 25xe8
 341 68 l 25
 273 68 l 25
 273 0 l 25
 137 0 l 25
 137 68 l 25
 205 68 l 25
 205 273 l 25
 137 273 l 25
 137 68 l 25
 68 68 l 25
 68 273 l 25
 137 273 l 25
 137 341 l 25xf0
EndSplineSet
EndChar

StartChar: atilde
Encoding: 227 227 161
Width: 409
VWidth: 0
Flags: W
HStem: 0 68<134 200 334 400> 273 68<134 200>
VStem: 68 68<67 267> 205 137<67 267> 341 68<0 67>
LayerCount: 2
Back
Fore
SplineSet
68 410 m 29
 68 478 l 25
 137 478 l 25
 137 546 l 25
 205 546 l 25
 205 478 l 25
 273 478 l 25
 273 546 l 25
 341 546 l 25
 341 478 l 25
 273 478 l 25
 273 410 l 25
 205 410 l 25
 205 478 l 25
 137 478 l 25
 137 410 l 25
 68 410 l 29
137 341 m 25xf0
 341 341 l 25xe8
 341 68 l 25xf0
 410 68 l 25
 410 0 l 25
 341 0 l 25xe8
 341 68 l 25
 273 68 l 25
 273 0 l 25
 137 0 l 25
 137 68 l 25
 205 68 l 25
 205 273 l 25
 137 273 l 25
 137 68 l 25
 68 68 l 25
 68 273 l 25
 137 273 l 25
 137 341 l 25xf0
EndSplineSet
EndChar

StartChar: adieresis
Encoding: 228 228 162
Width: 409
VWidth: 0
Flags: W
HStem: 0 68<134 200 334 400> 273 68<134 200>
VStem: 68 68<67 267> 205 137<67 267> 341 68<0 67>
LayerCount: 2
Back
Fore
SplineSet
273 410 m 29
 273 478 l 25
 341 478 l 25
 341 410 l 25
 273 410 l 29
137 410 m 25
 137 478 l 25
 205 478 l 25
 205 410 l 25
 137 410 l 25
137 341 m 25xf0
 341 341 l 25xe8
 341 68 l 25xf0
 410 68 l 25
 410 0 l 25
 341 0 l 25xe8
 341 68 l 25
 273 68 l 25
 273 0 l 25
 137 0 l 25
 137 68 l 25
 205 68 l 25
 205 273 l 25
 137 273 l 25
 137 68 l 25
 68 68 l 25
 68 273 l 25
 137 273 l 25
 137 341 l 25xf0
EndSplineSet
EndChar

StartChar: aring
Encoding: 229 229 163
Width: 409
VWidth: 0
Flags: W
HStem: 0 68<134 200 334 400> 273 68<134 200>
VStem: 68 68<67 267> 205 137<67 267> 341 68<0 67>
LayerCount: 2
Back
Fore
SplineSet
137 478 m 29
 137 546 l 25
 205 546 l 25
 205 614 l 25
 273 614 l 25
 273 546 l 25
 341 546 l 25
 341 478 l 25
 273 478 l 25
 273 546 l 25
 205 546 l 25
 205 478 l 25
 273 478 l 25
 273 410 l 25
 205 410 l 25
 205 478 l 25
 137 478 l 29
137 341 m 25xf0
 341 341 l 25xe8
 341 68 l 25xf0
 410 68 l 25
 410 0 l 25
 341 0 l 25xe8
 341 68 l 25
 273 68 l 25
 273 0 l 25
 137 0 l 25
 137 68 l 25
 205 68 l 25
 205 273 l 25
 137 273 l 25
 137 68 l 25
 68 68 l 25
 68 273 l 25
 137 273 l 25
 137 341 l 25xf0
EndSplineSet
EndChar

StartChar: ae
Encoding: 230 230 164
Width: 409
VWidth: 0
Flags: W
HStem: 0 68<67 200 267 400> 68 68<0 67> 137 68<67 200 267 334> 273 68<67 200 267 334>
VStem: 0 68<67 134> 205 68<67 134 200 267> 341 68<200 267>
LayerCount: 2
Back
Fore
SplineSet
68 341 m 25x3e
 341 341 l 25
 341 273 l 25
 273 273 l 25
 273 205 l 25
 341 205 l 25
 341 273 l 25
 410 273 l 25
 410 137 l 25
 273 137 l 25
 273 68 l 25
 410 68 l 25
 410 0 l 25
 273 0 l 25
 273 68 l 1
 205 68 l 29
 205 0 l 1
 68 0 l 25
 68 68 l 1
 137 68 l 1
 137 137 l 1xbe
 68 137 l 1x5e
 68 68 l 25x9e
 0 68 l 25
 0 137 l 25
 68 137 l 25x5e
 68 205 l 1
 137 205 l 1
 137 273 l 1
 68 273 l 1
 68 341 l 25x3e
EndSplineSet
EndChar

StartChar: ccedilla
Encoding: 231 231 165
Width: 409
VWidth: 0
Flags: W
HStem: 0 68<200 334> 273 68<200 334>
VStem: 68 137<67 267> 137 205<0 67 267 334>
LayerCount: 2
Back
Fore
SplineSet
137 -137 m 29
 137 -68 l 25
 205 -68 l 25
 205 0 l 25
 273 0 l 25
 273 -68 l 25
 205 -68 l 25
 205 -137 l 25
 137 -137 l 29
68 273 m 25xe0
 137 273 l 25
 137 341 l 25
 341 341 l 25
 341 273 l 25xd0
 205 273 l 25
 205 68 l 25xe0
 341 68 l 25
 341 0 l 25
 137 0 l 25
 137 68 l 25xd0
 68 68 l 25
 68 273 l 25xe0
EndSplineSet
EndChar

StartChar: egrave
Encoding: 232 232 166
Width: 409
VWidth: 0
Flags: W
HStem: 0 68<200 334> 137 68<200 267> 273 68<200 267>
VStem: 68 137<67 134 200 267> 273 68<200 267>
LayerCount: 2
Back
Fore
SplineSet
137 478 m 29
 137 546 l 25
 205 546 l 25
 205 478 l 25
 273 478 l 25
 273 410 l 25
 205 410 l 25
 205 478 l 25
 137 478 l 29
137 341 m 25
 273 341 l 25
 273 273 l 25
 205 273 l 25
 205 205 l 25
 273 205 l 25
 273 273 l 25
 341 273 l 25
 341 137 l 25
 205 137 l 25
 205 68 l 25
 341 68 l 25
 341 0 l 25
 137 0 l 25
 137 68 l 25
 68 68 l 25
 68 273 l 25
 137 273 l 25
 137 341 l 25
EndSplineSet
EndChar

StartChar: eacute
Encoding: 233 233 167
Width: 409
VWidth: 0
Flags: W
HStem: 0 68<200 334> 137 68<200 267> 273 68<200 267>
VStem: 68 137<67 134 200 267> 273 68<200 267>
LayerCount: 2
Back
Fore
SplineSet
137 410 m 29
 137 478 l 25
 205 478 l 25
 205 546 l 25
 273 546 l 25
 273 478 l 25
 205 478 l 25
 205 410 l 25
 137 410 l 29
137 341 m 25
 273 341 l 25
 273 273 l 25
 205 273 l 25
 205 205 l 25
 273 205 l 25
 273 273 l 25
 341 273 l 25
 341 137 l 25
 205 137 l 25
 205 68 l 25
 341 68 l 25
 341 0 l 25
 137 0 l 25
 137 68 l 25
 68 68 l 25
 68 273 l 25
 137 273 l 25
 137 341 l 25
EndSplineSet
EndChar

StartChar: ecircumflex
Encoding: 234 234 168
Width: 409
VWidth: 0
Flags: W
HStem: 0 68<200 334> 137 68<200 267> 273 68<200 267>
VStem: 68 137<67 134 200 267> 273 68<200 267>
LayerCount: 2
Back
Fore
SplineSet
68 410 m 29
 68 478 l 25
 137 478 l 25
 137 546 l 25
 273 546 l 25
 273 478 l 25
 341 478 l 25
 341 410 l 25
 273 410 l 25
 273 478 l 25
 137 478 l 25
 137 410 l 25
 68 410 l 29
137 341 m 25
 273 341 l 25
 273 273 l 25
 205 273 l 25
 205 205 l 25
 273 205 l 25
 273 273 l 25
 341 273 l 25
 341 137 l 25
 205 137 l 25
 205 68 l 25
 341 68 l 25
 341 0 l 25
 137 0 l 25
 137 68 l 25
 68 68 l 25
 68 273 l 25
 137 273 l 25
 137 341 l 25
EndSplineSet
EndChar

StartChar: edieresis
Encoding: 235 235 169
Width: 409
VWidth: 0
Flags: W
HStem: 0 68<200 334> 137 68<200 267> 273 68<200 267>
VStem: 68 137<67 134 200 267> 273 68<200 267>
LayerCount: 2
Back
Fore
SplineSet
273 410 m 29
 273 478 l 25
 341 478 l 25
 341 410 l 25
 273 410 l 29
137 410 m 25
 137 478 l 25
 205 478 l 25
 205 410 l 25
 137 410 l 25
137 341 m 25
 273 341 l 25
 273 273 l 25
 205 273 l 25
 205 205 l 25
 273 205 l 25
 273 273 l 25
 341 273 l 25
 341 137 l 25
 205 137 l 25
 205 68 l 25
 341 68 l 25
 341 0 l 25
 137 0 l 25
 137 68 l 25
 68 68 l 25
 68 273 l 25
 137 273 l 25
 137 341 l 25
EndSplineSet
EndChar

StartChar: igrave
Encoding: 236 236 170
Width: 409
VWidth: 0
Flags: W
HStem: 0 0G<134 267> 341 0G<134 267> 410 68<134 267>
VStem: 137 137<0 334 400 466>
LayerCount: 2
Back
Fore
SplineSet
137 478 m 29
 137 546 l 25
 205 546 l 25
 205 478 l 25
 273 478 l 25
 273 410 l 25
 205 410 l 25
 205 478 l 25
 137 478 l 29
137 341 m 25
 273 341 l 25
 273 0 l 25
 137 0 l 25
 137 341 l 25
EndSplineSet
EndChar

StartChar: iacute
Encoding: 237 237 171
Width: 409
VWidth: 0
Flags: W
HStem: 0 0G<134 267> 341 0G<134 267> 410 68<134 267>
VStem: 137 137<0 334 400 466>
LayerCount: 2
Back
Fore
SplineSet
137 410 m 29
 137 478 l 25
 205 478 l 25
 205 546 l 25
 273 546 l 25
 273 478 l 25
 205 478 l 25
 205 410 l 25
 137 410 l 29
137 341 m 25
 273 341 l 25
 273 0 l 25
 137 0 l 25
 137 341 l 25
EndSplineSet
EndChar

StartChar: icircumflex
Encoding: 238 238 172
Width: 409
VWidth: 0
Flags: W
HStem: 0 0G<134 267> 341 0G<134 267> 410 68<134 267>
VStem: 137 137<0 334 400 466>
LayerCount: 2
Back
Fore
SplineSet
68 410 m 29
 68 478 l 25
 137 478 l 25
 137 546 l 25
 273 546 l 25
 273 478 l 25
 341 478 l 25
 341 410 l 25
 273 410 l 25
 273 478 l 25
 137 478 l 25
 137 410 l 25
 68 410 l 29
137 341 m 25
 273 341 l 25
 273 0 l 25
 137 0 l 25
 137 341 l 25
EndSplineSet
EndChar

StartChar: idieresis
Encoding: 239 239 173
Width: 409
VWidth: 0
Flags: W
HStem: 0 0G<134 267> 341 0G<134 267> 410 68<134 267>
VStem: 137 137<0 334 400 466>
LayerCount: 2
Back
Fore
SplineSet
273 410 m 29
 273 478 l 25
 341 478 l 25
 341 410 l 25
 273 410 l 29
68 410 m 25
 68 478 l 25
 137 478 l 25
 137 410 l 25
 68 410 l 25
137 341 m 25
 273 341 l 25
 273 0 l 25
 137 0 l 25
 137 341 l 25
EndSplineSet
EndChar

StartChar: eth
Encoding: 240 240 174
Width: 409
VWidth: 0
Flags: W
HStem: 0 68<66 199> 68 68<-1 66> 137 68<66 199> 273 68<132 199> 341 68<266 332> 410 68<132 199>
VStem: 0 68<67 134> 137 68<400 466> 205 68<67 134 200 267>
LayerCount: 2
Back
Fore
SplineSet
137 478 m 25x37
 205 478 l 25
 205 410 l 1x37
 341 410 l 5
 341 341 l 1
 341 205 l 1
 341 68 l 1x4a80
 205 68 l 1
 205 137 l 1xa280
 68 137 l 25x4280
 68 68 l 1
 273 68 l 1
 273 0 l 1
 68 0 l 1
 68 68 l 25x8280
 0 68 l 25
 0 137 l 25
 68 137 l 25x4280
 68 205 l 25
 205 205 l 1
 205 273 l 25x3280
 137 273 l 1
 137 341 l 25x33
 205 341 l 25x3280
 205 410 l 25
 137 410 l 25
 137 478 l 25x37
EndSplineSet
EndChar

StartChar: ntilde
Encoding: 241 241 175
Width: 409
VWidth: 0
Flags: W
HStem: 0 0G<67 200 267 334> 273 68<200 267>
VStem: 68 137<0 267> 273 68<0 267>
LayerCount: 2
Back
Fore
SplineSet
68 410 m 29
 68 478 l 25
 137 478 l 25
 137 546 l 25
 205 546 l 25
 205 478 l 25
 273 478 l 25
 273 546 l 25
 341 546 l 25
 341 478 l 25
 273 478 l 25
 273 410 l 25
 205 410 l 25
 205 478 l 25
 137 478 l 25
 137 410 l 25
 68 410 l 29
68 341 m 25
 273 341 l 25
 273 273 l 25
 341 273 l 25
 341 0 l 25
 273 0 l 25
 273 273 l 25
 205 273 l 25
 205 0 l 25
 68 0 l 25
 68 341 l 25
EndSplineSet
EndChar

StartChar: ograve
Encoding: 242 242 176
Width: 409
VWidth: 0
Flags: W
HStem: 0 68<200 267> 68 205<67 134 267 334> 273 68<200 267>
VStem: 68 137<67 267> 137 137<0 67 267 334> 273 68<67 267>
LayerCount: 2
Back
Fore
SplineSet
137 478 m 29
 137 546 l 25
 205 546 l 25
 205 478 l 25
 273 478 l 25
 273 410 l 25
 205 410 l 25
 205 478 l 25
 137 478 l 29
68 273 m 25x50
 137 273 l 25x48
 137 341 l 25
 273 341 l 25x28
 273 273 l 25x48
 205 273 l 25
 205 68 l 25xb0
 273 68 l 25xa8
 273 273 l 25x48
 341 273 l 25
 341 68 l 25x44
 273 68 l 25
 273 0 l 25
 137 0 l 25x88
 137 68 l 25x48
 68 68 l 25
 68 273 l 25x50
EndSplineSet
EndChar

StartChar: oacute
Encoding: 243 243 177
Width: 409
VWidth: 0
Flags: W
HStem: 0 68<200 267> 68 205<67 134 267 334> 273 68<200 267>
VStem: 68 137<67 267> 137 137<0 67 267 334> 273 68<67 267>
LayerCount: 2
Back
Fore
SplineSet
137 410 m 29
 137 478 l 25
 205 478 l 25
 205 546 l 25
 273 546 l 25
 273 478 l 25
 205 478 l 25
 205 410 l 25
 137 410 l 29
68 273 m 25x50
 137 273 l 25x48
 137 341 l 25
 273 341 l 25x28
 273 273 l 25x48
 205 273 l 25
 205 68 l 25xb0
 273 68 l 25xa8
 273 273 l 25x48
 341 273 l 25
 341 68 l 25x44
 273 68 l 25
 273 0 l 25
 137 0 l 25x88
 137 68 l 25x48
 68 68 l 25
 68 273 l 25x50
EndSplineSet
EndChar

StartChar: ocircumflex
Encoding: 244 244 178
Width: 409
VWidth: 0
Flags: W
HStem: 0 68<200 267> 68 205<67 134 267 334> 273 68<200 267>
VStem: 68 137<67 267> 137 137<0 67 267 334> 273 68<67 267>
LayerCount: 2
Back
Fore
SplineSet
68 410 m 29
 68 478 l 25
 137 478 l 25
 137 546 l 25
 273 546 l 25
 273 478 l 25
 341 478 l 25
 341 410 l 25
 273 410 l 25
 273 478 l 25
 137 478 l 25
 137 410 l 25
 68 410 l 29
68 273 m 25x50
 137 273 l 25x48
 137 341 l 25
 273 341 l 25x28
 273 273 l 25x48
 205 273 l 25
 205 68 l 25xb0
 273 68 l 25xa8
 273 273 l 25x48
 341 273 l 25
 341 68 l 25x44
 273 68 l 25
 273 0 l 25
 137 0 l 25x88
 137 68 l 25x48
 68 68 l 25
 68 273 l 25x50
EndSplineSet
EndChar

StartChar: otilde
Encoding: 245 245 179
Width: 409
VWidth: 0
Flags: W
HStem: 0 68<200 267> 68 205<67 134 267 334> 273 68<200 267>
VStem: 68 137<67 267> 137 137<0 67 267 334> 273 68<67 267>
LayerCount: 2
Back
Fore
SplineSet
68 410 m 29
 68 478 l 25
 137 478 l 25
 137 546 l 25
 205 546 l 25
 205 478 l 25
 273 478 l 25
 273 546 l 25
 341 546 l 25
 341 478 l 25
 273 478 l 25
 273 410 l 25
 205 410 l 25
 205 478 l 25
 137 478 l 25
 137 410 l 25
 68 410 l 29
68 273 m 25x50
 137 273 l 25x48
 137 341 l 25
 273 341 l 25x28
 273 273 l 25x48
 205 273 l 25
 205 68 l 25xb0
 273 68 l 25xa8
 273 273 l 25x48
 341 273 l 25
 341 68 l 25x44
 273 68 l 25
 273 0 l 25
 137 0 l 25x88
 137 68 l 25x48
 68 68 l 25
 68 273 l 25x50
EndSplineSet
EndChar

StartChar: odieresis
Encoding: 246 246 180
Width: 409
VWidth: 0
Flags: W
HStem: 0 68<200 267> 68 205<67 134 267 334> 273 68<200 267>
VStem: 68 137<67 267> 137 137<0 67 267 334> 273 68<67 267>
LayerCount: 2
Back
Fore
SplineSet
273 410 m 29
 273 478 l 25
 341 478 l 25
 341 410 l 25
 273 410 l 29
137 410 m 25
 137 478 l 25
 205 478 l 25
 205 410 l 25
 137 410 l 25
68 273 m 25x50
 137 273 l 25x48
 137 341 l 25
 273 341 l 25x28
 273 273 l 25x48
 205 273 l 25
 205 68 l 25xb0
 273 68 l 25xa8
 273 273 l 25x48
 341 273 l 25
 341 68 l 25x44
 273 68 l 25
 273 0 l 25
 137 0 l 25x88
 137 68 l 25x48
 68 68 l 25
 68 273 l 25x50
EndSplineSet
EndChar

StartChar: divide
Encoding: 247 247 181
Width: 409
VWidth: 0
Flags: W
HStem: 68 68<200 267> 205 68<67 400> 341 68<200 267>
VStem: 205 68<67 134 334 400>
LayerCount: 2
Back
Fore
SplineSet
205 137 m 25
 273 137 l 25
 273 68 l 25
 205 68 l 25
 205 137 l 25
68 273 m 25
 410 273 l 25
 410 205 l 25
 68 205 l 25
 68 273 l 25
205 410 m 25
 273 410 l 25
 273 341 l 25
 205 341 l 25
 205 410 l 25
EndSplineSet
EndChar

StartChar: oslash
Encoding: 248 248 182
Width: 409
VWidth: 0
Flags: W
HStem: 0 68<200 267> 68 205<67 134 267 334> 273 68<200 267>
VStem: 68 137<67 267> 137 137<0 67 267 334> 273 68<67 267>
LayerCount: 2
Back
Fore
SplineSet
0 0 m 29
 0 68 l 25
 68 68 l 25
 68 273 l 25
 137 273 l 25
 137 341 l 25
 273 341 l 25
 273 273 l 25
 205 273 l 25
 205 205 l 25
 273 205 l 25
 273 273 l 25
 341 273 l 25
 341 341 l 25
 410 341 l 25
 410 273 l 25
 341 273 l 25
 341 68 l 25
 273 68 l 25
 273 137 l 25
 205 137 l 25
 205 68 l 25
 273 68 l 25
 273 0 l 25
 137 0 l 25
 137 68 l 25
 68 68 l 25
 68 0 l 25
 0 0 l 29
EndSplineSet
EndChar

StartChar: ugrave
Encoding: 249 249 183
Width: 409
VWidth: 0
Flags: W
HStem: 0 68<134 200> 341 0G<67 134 200 334>
VStem: 68 68<67 334> 205 137<67 334>
LayerCount: 2
Back
Fore
SplineSet
137 478 m 29
 137 546 l 25
 205 546 l 25
 205 478 l 25
 273 478 l 25
 273 410 l 25
 205 410 l 25
 205 478 l 25
 137 478 l 29
68 341 m 25
 137 341 l 25
 137 68 l 25
 205 68 l 25
 205 341 l 25
 341 341 l 25
 341 0 l 25
 137 0 l 25
 137 68 l 25
 68 68 l 25
 68 341 l 25
EndSplineSet
EndChar

StartChar: uacute
Encoding: 250 250 184
Width: 409
VWidth: 0
Flags: W
HStem: 0 68<134 200> 341 0G<67 134 200 334>
VStem: 68 68<67 334> 205 137<67 334>
LayerCount: 2
Back
Fore
SplineSet
137 410 m 29
 137 478 l 25
 205 478 l 25
 205 546 l 25
 273 546 l 25
 273 478 l 25
 205 478 l 25
 205 410 l 25
 137 410 l 29
68 341 m 25
 137 341 l 25
 137 68 l 25
 205 68 l 25
 205 341 l 25
 341 341 l 25
 341 0 l 25
 137 0 l 25
 137 68 l 25
 68 68 l 25
 68 341 l 25
EndSplineSet
EndChar

StartChar: ucircumflex
Encoding: 251 251 185
Width: 409
VWidth: 0
Flags: W
HStem: 0 68<134 200> 341 0G<67 134 200 334>
VStem: 68 68<67 334> 205 137<67 334>
LayerCount: 2
Back
Fore
SplineSet
68 410 m 29
 68 478 l 25
 137 478 l 25
 137 546 l 25
 273 546 l 25
 273 478 l 25
 341 478 l 25
 341 410 l 25
 273 410 l 25
 273 478 l 25
 137 478 l 25
 137 410 l 25
 68 410 l 29
68 341 m 25
 137 341 l 25
 137 68 l 25
 205 68 l 25
 205 341 l 25
 341 341 l 25
 341 0 l 25
 137 0 l 25
 137 68 l 25
 68 68 l 25
 68 341 l 25
EndSplineSet
EndChar

StartChar: udieresis
Encoding: 252 252 186
Width: 409
VWidth: 0
Flags: W
HStem: 0 68<134 200> 341 0G<67 134 200 334>
VStem: 68 68<67 334> 205 137<67 334>
LayerCount: 2
Back
Fore
SplineSet
205 410 m 29
 205 478 l 25
 273 478 l 25
 273 410 l 25
 205 410 l 29
68 410 m 25
 68 478 l 25
 137 478 l 25
 137 410 l 25
 68 410 l 25
68 341 m 25
 137 341 l 25
 137 68 l 25
 205 68 l 25
 205 341 l 25
 341 341 l 25
 341 0 l 25
 137 0 l 25
 137 68 l 25
 68 68 l 25
 68 341 l 25
EndSplineSet
EndChar

StartChar: yacute
Encoding: 253 253 187
Width: 409
VWidth: 0
Flags: W
HStem: -68 68<134 200> 68 68<134 200> 341 0G<67 134 200 334>
VStem: 68 68<134 334> 205 137<0 67 134 334>
LayerCount: 2
Back
Fore
SplineSet
137 410 m 29
 137 478 l 25
 205 478 l 25
 205 546 l 25
 273 546 l 25
 273 478 l 25
 205 478 l 25
 205 410 l 25
 137 410 l 29
68 341 m 25
 137 341 l 25
 137 137 l 25
 205 137 l 25
 205 341 l 25
 341 341 l 25
 341 0 l 25
 273 0 l 25
 273 -68 l 25
 137 -68 l 25
 137 0 l 25
 205 0 l 25
 205 68 l 25
 137 68 l 25
 137 137 l 25
 68 137 l 25
 68 341 l 25
EndSplineSet
EndChar

StartChar: thorn
Encoding: 254 254 188
Width: 409
VWidth: 0
Flags: W
HStem: -68 0G<67 134> 68 68<134 267> 137 68<267 334> 410 0G<67 134>
VStem: 68 205<67 134 200 267> 68 68<-67 67 134 200 267 400> 273 68<134 200>
LayerCount: 2
Back
Fore
SplineSet
68 410 m 1xd4
 205 410 l 1
 205 273 l 1xd4
 273 273 l 1
 273 205 l 1xb8
 205 205 l 1xb4
 205 137 l 1xd4
 273 137 l 1xd8
 273 205 l 25xb8
 341 205 l 25
 341 137 l 25xb2
 273 137 l 25
 273 68 l 1xd8
 205 68 l 1
 205 -68 l 5
 68 -68 l 1
 68 410 l 1xd4
EndSplineSet
EndChar

StartChar: ydieresis
Encoding: 255 255 189
Width: 409
VWidth: 0
Flags: WO
HStem: -68 68<134 200> 68 68<134 200> 341 0G<67 134 200 334>
VStem: 68 68<134 334> 205 137<0 67 134 334>
LayerCount: 2
Back
Fore
SplineSet
205 410 m 29
 205 478 l 25
 273 478 l 25
 273 410 l 25
 205 410 l 29
68 410 m 25
 68 478 l 25
 137 478 l 25
 137 410 l 25
 68 410 l 25
68 341 m 25
 137 341 l 25
 137 137 l 25
 205 137 l 25
 205 341 l 25
 341 341 l 25
 341 0 l 25
 273 0 l 25
 273 -68 l 25
 137 -68 l 25
 137 0 l 25
 205 0 l 25
 205 68 l 25
 137 68 l 25
 137 137 l 25
 68 137 l 25
 68 341 l 25
EndSplineSet
EndChar

StartChar: Euro
Encoding: 164 8364 256
Width: 409
VWidth: 0
Flags: W
HStem: 0 0<20 40> 0 0<7 14 20 33>
VStem: 0 0<7 14 27 33> 0 0<0 7 33 40>
LayerCount: 2
Fore
SplineSet
0 0 m 25xd0
 0 0 l 25
 0 0 l 25
 0 0 l 25
 0 0 l 25
 0 0 l 25
 0 0 l 25
 0 0 l 25
 0 0 l 25xe0
 0 68 l 25
 68 68 l 25
 68 0 l 25xd0
 0 0 l 25
 0 0 l 25
 0 0 l 25
 0 0 l 25
 0 0 l 25
 0 0 l 25xe0
 68 0 l 25
 68 0 l 25
 0 0 l 25xd0
EndSplineSet
EndChar

StartChar: uni0185
Encoding: 270 389 270
Width: 409
VWidth: 0
Flags: W
LayerCount: 2
Back
SplineSet
0 5.2001953125 m 29
 3.93359375 5.2001953125 l 25
 3.93359375 -1.3330078125 l 25
 0 -1.3330078125 l 25
 0 5.2001953125 l 29
EndSplineSet
EndChar

StartChar: arrowup
Encoding: 402 8593 402
Width: 409
VWidth: 0
Flags: W
HStem: 0 68<267 334> 273 68<0 67 134 200 267 334>
VStem: 68 68<0 267> 205 68<67 267> 273 68<0 67>
CounterMasks: 1 0e
LayerCount: 2
Back
Fore
SplineSet
0 341 m 25xf0
 341 341 l 25
 341 273 l 25xe8
 273 273 l 25
 273 68 l 25xf0
 341 68 l 25
 341 0 l 25
 273 0 l 25xe8
 273 68 l 25
 205 68 l 25
 205 273 l 25
 137 273 l 25
 137 0 l 25
 68 0 l 25
 68 273 l 25
 0 273 l 25
 0 341 l 25xf0
EndSplineSet
EndChar

StartChar: arrowdown
Encoding: 403 8595 403
Width: 409
VWidth: 0
Flags: W
HStem: 0 0G<200 267> 273 68<67 134 334 400> 341 68<134 200 267 334> 478 0G<200 267>
VStem: 68 68<267 334> 205 68<0 334 400 466> 341 68<267 334>
CounterMasks: 1 0e
LayerCount: 2
Back
Fore
SplineSet
68 341 m 25xde
 137 341 l 25xde
 137 410 l 25
 205 410 l 25
 205 478 l 25
 273 478 l 25
 273 410 l 25
 341 410 l 25xbe
 341 341 l 25
 410 341 l 25
 410 273 l 25
 341 273 l 25
 341 341 l 25xde
 273 341 l 25
 273 0 l 25
 205 0 l 25
 205 341 l 25xbe
 137 341 l 25
 137 273 l 25
 68 273 l 25
 68 341 l 25xde
EndSplineSet
EndChar

StartChar: lessequal
Encoding: 404 8804 404
Width: 409
VWidth: 0
Flags: W
HStem: 0 0G<200 267> 68 68<134 200 267 334> 137 68<67 134 334 400> 478 0G<200 267>
VStem: 68 68<134 200> 205 68<0 67 134 466> 341 68<134 200>
LayerCount: 2
Back
Fore
SplineSet
205 478 m 25xde
 273 478 l 25
 273 137 l 25
 341 137 l 25xde
 341 205 l 25
 410 205 l 25
 410 137 l 25xbe
 341 137 l 25
 341 68 l 25
 273 68 l 25
 273 0 l 25
 205 0 l 25
 205 68 l 25
 137 68 l 25
 137 137 l 25xde
 68 137 l 25
 68 205 l 25
 137 205 l 25xbe
 137 137 l 25
 205 137 l 25
 205 478 l 25xde
EndSplineSet
EndChar

StartChar: greaterequal
Encoding: 405 8805 405
Width: 409
VWidth: 0
Flags: W
HStem: -137 68<134 200> -68 68<67 134> 0 68<0 67 200 267> 68 68<134 200> 137 68<67 134> 273 68<67 134> 341 68<134 200> 410 68<200 267>
VStem: 0 68<0 67 200 267> 68 68<-67 0 134 200 267 334> 137 68<-134 -67 67 134 334 400> 205 68<0 67 400 466>
LayerCount: 2
Back
Fore
SplineSet
0 68 m 25x2080
 68 68 l 25x2080
 68 0 l 25x4080
 137 0 l 25x4040
 137 -68 l 25x8040
 205 -68 l 25
 205 -137 l 25
 137 -137 l 25x8020
 137 -68 l 25x8040
 68 -68 l 25x4040
 68 0 l 25x4080
 0 0 l 25
 0 68 l 25x2080
205 478 m 25x0110
 273 478 l 25
 273 410 l 25x0110
 205 410 l 25
 205 341 l 25x0220
 137 341 l 25
 137 273 l 25x0440
 68 273 l 25
 68 205 l 25x0c80
 137 205 l 25x0c40
 137 137 l 25x1040
 205 137 l 25x1020
 205 68 l 25x2020
 273 68 l 25
 273 0 l 25
 205 0 l 25x2010
 205 68 l 25x2020
 137 68 l 25x1020
 137 137 l 25x1040
 68 137 l 25x0840
 68 205 l 25
 0 205 l 25
 0 273 l 25
 68 273 l 25x0c80
 68 341 l 25
 137 341 l 25x0c40
 137 410 l 25
 205 410 l 25x0220
 205 478 l 25x0110
EndSplineSet
EndChar

StartChar: SF100000
Encoding: 406 9472 406
Width: 409
VWidth: 0
Flags: W
HStem: -137 68<134 200> -68 68<200 267> 0 68<67 134 267 334> 68 68<134 200> 137 68<200 267> 273 68<200 267> 341 68<134 200> 410 68<67 134>
VStem: 68 68<0 67 400 466> 137 68<-134 -67 67 134 334 400> 205 68<-67 0 134 200 267 334> 273 68<0 67 200 267>
LayerCount: 2
Back
Fore
SplineSet
273 68 m 25x2010
 341 68 l 25
 341 0 l 25x2010
 273 0 l 25
 273 -68 l 25x4020
 205 -68 l 25
 205 -137 l 25
 137 -137 l 25
 137 -68 l 25
 205 -68 l 25x8040
 205 0 l 25
 273 0 l 25x4020
 273 68 l 25x2010
68 478 m 25x0180
 137 478 l 25x0180
 137 410 l 25x0280
 205 410 l 25x0240
 205 341 l 25x0440
 273 341 l 25
 273 273 l 25x0420
 341 273 l 25
 341 205 l 25x0c10
 273 205 l 25
 273 137 l 25x0c20
 205 137 l 25
 205 68 l 25x1040
 137 68 l 25
 137 0 l 25
 68 0 l 25
 68 68 l 25
 137 68 l 25x2080
 137 137 l 25
 205 137 l 25x1040
 205 205 l 25
 273 205 l 25
 273 273 l 25
 205 273 l 25x0c20
 205 341 l 25x0c40
 137 341 l 25x0240
 137 410 l 25x0280
 68 410 l 25
 68 478 l 25x0180
EndSplineSet
EndChar

StartChar: uni2501
Encoding: 407 9473 407
Width: 409
VWidth: 0
Flags: W
HStem: 205 68<0 400>
LayerCount: 2
Back
Fore
SplineSet
0 273 m 25
 410 273 l 25
 410 205 l 25
 0 205 l 25
 0 273 l 25
EndSplineSet
EndChar

StartChar: SF110000
Encoding: 408 9474 408
Width: 409
VWidth: 0
Flags: W
HStem: 137 137<0 400>
LayerCount: 2
Back
Fore
SplineSet
0 273 m 25
 410 273 l 25
 410 137 l 25
 0 137 l 25
 0 273 l 25
EndSplineSet
EndChar

StartChar: uni2503
Encoding: 409 9475 409
Width: 409
VWidth: 0
Flags: W
VStem: 137 68<-134 533>
LayerCount: 2
Back
Fore
SplineSet
137 546 m 25
 205 546 l 25
 205 -137 l 25
 137 -137 l 25
 137 546 l 25
EndSplineSet
EndChar

StartChar: uni2504
Encoding: 410 9476 410
Width: 409
VWidth: 0
Flags: W
VStem: 137 137<-134 533>
CounterMasks: 1 70
LayerCount: 2
Back
Fore
SplineSet
137 546 m 25
 273 546 l 25
 273 -137 l 25
 137 -137 l 25
 137 546 l 25
EndSplineSet
EndChar

StartChar: uni2505
Encoding: 411 9477 411
Width: 409
VWidth: 0
Flags: W
HStem: 205 68<0 67 134 200 267 334>
VStem: 0 68<200 267> 137 68<200 267> 273 68<200 267>
CounterMasks: 1 70
LayerCount: 2
Back
Fore
SplineSet
341 205 m 25
 273 205 l 25
 273 273 l 25
 341 273 l 25
 341 205 l 25
205 273 m 25
 205 205 l 25
 137 205 l 25
 137 273 l 25
 205 273 l 25
0 273 m 25
 68 273 l 25
 68 205 l 25
 0 205 l 25
 0 273 l 25
EndSplineSet
EndChar

StartChar: uni2506
Encoding: 412 9478 412
Width: 409
VWidth: 0
Flags: W
HStem: 137 137<0 67 134 200 267 334>
VStem: 0 68<134 267> 137 68<134 267> 273 68<134 267>
LayerCount: 2
Back
Fore
SplineSet
273 273 m 25
 341 273 l 25
 341 137 l 25
 273 137 l 25
 273 273 l 25
137 273 m 25
 205 273 l 25
 205 137 l 25
 137 137 l 25
 137 273 l 25
0 273 m 25
 68 273 l 25
 68 137 l 25
 0 137 l 25
 0 273 l 25
EndSplineSet
EndChar

StartChar: uni2507
Encoding: 413 9479 413
Width: 409
VWidth: 0
Flags: W
HStem: 0 0G<134 200> 341 0G<134 200> 410 0G<134 200>
VStem: 137 68<-134 0 67 334 400 533>
LayerCount: 2
Back
Fore
SplineSet
137 0 m 25
 205 0 l 25
 205 -137 l 25
 137 -137 l 25
 137 0 l 25
137 341 m 25
 205 341 l 25
 205 68 l 25
 137 68 l 25
 137 341 l 25
137 546 m 25
 205 546 l 25
 205 410 l 25
 137 410 l 25
 137 546 l 25
EndSplineSet
EndChar

StartChar: uni2508
Encoding: 414 9480 414
Width: 409
VWidth: 0
Flags: W
HStem: -137 137<134 267> 341 0G<134 267> 410 137<134 267>
VStem: 137 137<-134 0 67 334 400 533>
CounterMasks: 1 70
LayerCount: 2
Back
Fore
SplineSet
137 0 m 25
 273 0 l 25
 273 -137 l 25
 137 -137 l 25
 137 0 l 25
137 341 m 25
 273 341 l 25
 273 68 l 25
 137 68 l 25
 137 341 l 25
137 546 m 25
 273 546 l 25
 273 410 l 25
 137 410 l 25
 137 546 l 25
EndSplineSet
EndChar

StartChar: uni2509
Encoding: 415 9481 415
Width: 409
VWidth: 0
Flags: W
HStem: 205 68<0 67 134 200 267 334>
VStem: 0 68<200 267> 137 68<200 267> 273 68<200 267>
CounterMasks: 1 70
LayerCount: 2
Back
Fore
SplineSet
273 273 m 25
 341 273 l 25
 341 205 l 25
 273 205 l 25
 273 273 l 25
137 273 m 25
 205 273 l 25
 205 205 l 25
 137 205 l 25
 137 273 l 25
0 273 m 25
 68 273 l 25
 68 205 l 25
 0 205 l 25
 0 273 l 25
EndSplineSet
EndChar

StartChar: uni250A
Encoding: 416 9482 416
Width: 409
VWidth: 0
Flags: W
HStem: 137 137<0 67 134 200 267 334>
VStem: 0 68<134 267> 137 68<134 267> 273 68<134 267>
LayerCount: 2
Back
Fore
SplineSet
273 273 m 25
 341 273 l 25
 341 137 l 25
 273 137 l 25
 273 273 l 25
137 273 m 25
 205 273 l 25
 205 137 l 25
 137 137 l 25
 137 273 l 25
0 273 m 25
 68 273 l 25
 68 137 l 25
 0 137 l 25
 0 273 l 25
EndSplineSet
EndChar

StartChar: uni250B
Encoding: 417 9483 417
Width: 409
VWidth: 0
Flags: W
HStem: -137 68<134 200> 0 0G<134 200> 341 0G<134 200> 410 0G<134 200>
VStem: 137 68<-134 -67 0 134 200 334 400 533>
LayerCount: 2
Back
Fore
SplineSet
137 -68 m 25
 205 -68 l 25
 205 -137 l 25
 137 -137 l 25
 137 -68 l 25
137 137 m 25
 205 137 l 25
 205 0 l 25
 137 0 l 25
 137 137 l 25
137 341 m 25
 205 341 l 25
 205 205 l 25
 137 205 l 25
 137 341 l 25
137 546 m 25
 205 546 l 25
 205 410 l 25
 137 410 l 25
 137 546 l 25
EndSplineSet
EndChar

StartChar: SF010000
Encoding: 418 9484 418
Width: 409
VWidth: 0
Flags: W
HStem: -137 68<134 267> 0 137<134 267> 205 137<134 267> 410 137<134 267>
VStem: 137 137<-134 -67 0 134 200 334 400 533>
LayerCount: 2
Back
Fore
SplineSet
137 -68 m 25
 273 -68 l 25
 273 -137 l 25
 137 -137 l 25
 137 -68 l 25
137 137 m 25
 273 137 l 25
 273 0 l 25
 137 0 l 25
 137 137 l 25
137 341 m 25
 273 341 l 25
 273 205 l 25
 137 205 l 25
 137 341 l 25
137 546 m 25
 273 546 l 25
 273 410 l 25
 137 410 l 25
 137 546 l 25
EndSplineSet
EndChar

StartChar: uni250D
Encoding: 419 9485 419
Width: 409
VWidth: 0
Flags: W
HStem: 205 68<200 400>
VStem: 137 68<-134 200>
LayerCount: 2
Back
Fore
SplineSet
137 273 m 25
 410 273 l 25
 410 205 l 25
 205 205 l 25
 205 -137 l 25
 137 -137 l 25
 137 273 l 25
EndSplineSet
EndChar

StartChar: uni250E
Encoding: 420 9486 420
Width: 409
VWidth: 0
Flags: W
HStem: 137 137<200 400>
VStem: 137 68<-134 134>
LayerCount: 2
Back
Fore
SplineSet
137 273 m 25
 410 273 l 25
 410 137 l 25
 205 137 l 25
 205 -137 l 25
 137 -137 l 25
 137 273 l 25
EndSplineSet
EndChar

StartChar: uni250F
Encoding: 421 9487 421
Width: 409
VWidth: 0
Flags: W
HStem: 205 68<267 400>
VStem: 137 137<-134 200>
LayerCount: 2
Back
Fore
SplineSet
137 273 m 25
 410 273 l 25
 410 205 l 25
 273 205 l 25
 273 -137 l 25
 137 -137 l 25
 137 273 l 25
EndSplineSet
EndChar

StartChar: SF030000
Encoding: 422 9488 422
Width: 409
VWidth: 0
Flags: W
HStem: 137 137<267 400>
VStem: 137 137<-134 134>
LayerCount: 2
Back
Fore
SplineSet
137 273 m 25
 410 273 l 25
 410 137 l 25
 273 137 l 25
 273 -137 l 25
 137 -137 l 25
 137 273 l 25
EndSplineSet
EndChar

StartChar: uni2511
Encoding: 423 9489 423
Width: 409
VWidth: 0
Flags: W
HStem: 205 68<0 134>
VStem: 137 68<-134 200>
LayerCount: 2
Back
Fore
SplineSet
0 273 m 25
 205 273 l 25
 205 -137 l 25
 137 -137 l 25
 137 205 l 25
 0 205 l 25
 0 273 l 25
EndSplineSet
EndChar

StartChar: uni2512
Encoding: 424 9490 424
Width: 409
VWidth: 0
Flags: W
HStem: 137 137<0 134>
VStem: 0 205<134 267> 137 68<-134 134>
LayerCount: 2
Back
Fore
SplineSet
0 273 m 25xc0
 205 273 l 25xc0
 205 -137 l 25
 137 -137 l 25
 137 137 l 25xa0
 0 137 l 25
 0 273 l 25xc0
EndSplineSet
EndChar

StartChar: uni2513
Encoding: 425 9491 425
Width: 409
VWidth: 0
Flags: W
HStem: 205 68<0 134>
VStem: 137 137<-134 200>
LayerCount: 2
Back
Fore
SplineSet
0 273 m 25
 273 273 l 25
 273 -137 l 25
 137 -137 l 25
 137 205 l 25
 0 205 l 25
 0 273 l 25
EndSplineSet
EndChar

StartChar: SF020000
Encoding: 426 9492 426
Width: 409
VWidth: 0
Flags: W
HStem: 137 137<0 134>
VStem: 137 137<-134 134>
LayerCount: 2
Back
Fore
SplineSet
0 273 m 25
 273 273 l 25
 273 -137 l 25
 137 -137 l 25
 137 137 l 25
 0 137 l 25
 0 273 l 25
EndSplineSet
EndChar

StartChar: uni2515
Encoding: 427 9493 427
Width: 409
VWidth: 0
Flags: W
HStem: 205 68<200 400>
VStem: 137 68<267 533>
LayerCount: 2
Back
Fore
SplineSet
137 546 m 25
 205 546 l 25
 205 273 l 25
 410 273 l 25
 410 205 l 25
 137 205 l 25
 137 546 l 25
EndSplineSet
EndChar

StartChar: uni2516
Encoding: 428 9494 428
Width: 409
VWidth: 0
Flags: W
HStem: 137 137<200 400>
VStem: 137 68<267 533>
LayerCount: 2
Back
Fore
SplineSet
137 546 m 25
 205 546 l 25
 205 273 l 25
 410 273 l 25
 410 137 l 25
 137 137 l 25
 137 546 l 25
EndSplineSet
EndChar

StartChar: uni2517
Encoding: 429 9495 429
Width: 409
VWidth: 0
Flags: W
HStem: 205 68<267 400>
VStem: 137 137<267 533>
LayerCount: 2
Back
Fore
SplineSet
137 546 m 25
 273 546 l 25
 273 273 l 25
 410 273 l 25
 410 205 l 25
 137 205 l 25
 137 546 l 25
EndSplineSet
EndChar

StartChar: SF040000
Encoding: 430 9496 430
Width: 409
VWidth: 0
Flags: W
HStem: 137 137<267 400>
VStem: 137 137<267 533>
LayerCount: 2
Back
Fore
SplineSet
137 546 m 25
 273 546 l 25
 273 273 l 25
 410 273 l 25
 410 137 l 25
 137 137 l 25
 137 546 l 25
EndSplineSet
EndChar

StartChar: uni2519
Encoding: 431 9497 431
Width: 409
VWidth: 0
Flags: W
HStem: 205 68<0 134>
VStem: 137 68<267 533>
LayerCount: 2
Back
Fore
SplineSet
137 546 m 25
 205 546 l 25
 205 205 l 25
 0 205 l 25
 0 273 l 25
 137 273 l 25
 137 546 l 25
EndSplineSet
EndChar

StartChar: uni251A
Encoding: 432 9498 432
Width: 409
VWidth: 0
Flags: W
HStem: 137 137<0 134>
VStem: 0 205<134 267> 137 68<267 533>
LayerCount: 2
Back
Fore
SplineSet
137 546 m 25xa0
 205 546 l 25xa0
 205 137 l 25
 0 137 l 25
 0 273 l 25xc0
 137 273 l 25
 137 546 l 25xa0
EndSplineSet
EndChar

StartChar: uni251B
Encoding: 433 9499 433
Width: 409
VWidth: 0
Flags: W
HStem: 205 68<0 134>
VStem: 137 137<267 533>
LayerCount: 2
Back
Fore
SplineSet
137 546 m 25
 273 546 l 25
 273 205 l 25
 0 205 l 25
 0 273 l 25
 137 273 l 25
 137 546 l 25
EndSplineSet
EndChar

StartChar: SF080000
Encoding: 434 9500 434
Width: 409
VWidth: 0
Flags: W
HStem: 137 137<0 134>
VStem: 137 137<267 533>
LayerCount: 2
Back
Fore
SplineSet
137 546 m 25
 273 546 l 25
 273 137 l 25
 0 137 l 25
 0 273 l 25
 137 273 l 25
 137 546 l 25
EndSplineSet
EndChar

StartChar: uni251D
Encoding: 435 9501 435
Width: 409
VWidth: 0
Flags: W
HStem: 205 68<200 400>
VStem: 137 68<-134 200 267 533>
LayerCount: 2
Back
Fore
SplineSet
137 546 m 25
 205 546 l 25
 205 273 l 25
 410 273 l 25
 410 205 l 25
 205 205 l 25
 205 -137 l 25
 137 -137 l 25
 137 546 l 25
EndSplineSet
EndChar

StartChar: uni251E
Encoding: 436 9502 436
Width: 409
VWidth: 0
Flags: W
HStem: 137 137<200 400>
VStem: 137 68<-134 134 267 533>
LayerCount: 2
Back
Fore
SplineSet
137 546 m 25
 205 546 l 25
 205 273 l 25
 410 273 l 25
 410 137 l 25
 205 137 l 25
 205 -137 l 25
 137 -137 l 25
 137 546 l 25
EndSplineSet
EndChar

StartChar: uni251F
Encoding: 437 9503 437
Width: 409
VWidth: 0
Flags: W
HStem: 205 68<267 400>
VStem: 137 137<267 533> 137 68<-134 200>
LayerCount: 2
Back
Fore
SplineSet
137 546 m 25xc0
 273 546 l 25
 273 273 l 25xc0
 410 273 l 25
 410 205 l 25
 205 205 l 25
 205 -137 l 25
 137 -137 l 25xa0
 137 546 l 25xc0
EndSplineSet
EndChar

StartChar: uni2520
Encoding: 438 9504 438
Width: 409
VWidth: 0
Flags: W
HStem: 205 68<267 400>
VStem: 137 137<-134 200> 137 68<267 533>
LayerCount: 2
Back
Fore
SplineSet
137 546 m 25xa0
 205 546 l 25
 205 273 l 25xa0
 410 273 l 25
 410 205 l 25
 273 205 l 25
 273 -137 l 25
 137 -137 l 25xc0
 137 546 l 25xa0
EndSplineSet
EndChar

StartChar: uni2521
Encoding: 439 9505 439
Width: 409
VWidth: 0
Flags: W
HStem: 205 68<267 400>
VStem: 137 137<-134 200 267 533>
LayerCount: 2
Back
Fore
SplineSet
137 546 m 25
 273 546 l 25
 273 273 l 25
 410 273 l 25
 410 205 l 25
 273 205 l 25
 273 -137 l 25
 137 -137 l 25
 137 546 l 25
EndSplineSet
EndChar

StartChar: uni2522
Encoding: 440 9506 440
Width: 409
VWidth: 0
Flags: W
HStem: 137 137<267 400>
VStem: 137 137<267 533> 137 68<-134 134>
LayerCount: 2
Back
Fore
SplineSet
137 546 m 25xc0
 273 546 l 25
 273 273 l 25xc0
 410 273 l 25
 410 137 l 25
 205 137 l 25
 205 -137 l 25
 137 -137 l 25xa0
 137 546 l 25xc0
EndSplineSet
EndChar

StartChar: uni2523
Encoding: 441 9507 441
Width: 409
VWidth: 0
Flags: W
HStem: 137 137<267 400>
VStem: 137 137<-134 134> 137 68<267 533>
LayerCount: 2
Back
Fore
SplineSet
137 546 m 25xa0
 205 546 l 25
 205 273 l 25xa0
 410 273 l 25
 410 137 l 25
 273 137 l 25
 273 -137 l 25
 137 -137 l 25xc0
 137 546 l 25xa0
EndSplineSet
EndChar

StartChar: SF090000
Encoding: 442 9508 442
Width: 409
VWidth: 0
Flags: W
HStem: 137 137<267 400>
VStem: 137 137<-134 134 267 533>
LayerCount: 2
Back
Fore
SplineSet
137 546 m 25
 273 546 l 25
 273 273 l 25
 410 273 l 25
 410 137 l 25
 273 137 l 25
 273 -137 l 25
 137 -137 l 25
 137 546 l 25
EndSplineSet
EndChar

StartChar: uni2525
Encoding: 443 9509 443
Width: 409
VWidth: 0
Flags: W
HStem: 205 68<0 134>
VStem: 137 68<-134 200 267 533>
LayerCount: 2
Back
Fore
SplineSet
137 546 m 25
 205 546 l 25
 205 -137 l 25
 137 -137 l 25
 137 205 l 25
 0 205 l 25
 0 273 l 25
 137 273 l 25
 137 546 l 25
EndSplineSet
EndChar

StartChar: uni2526
Encoding: 444 9510 444
Width: 409
VWidth: 0
Flags: W
HStem: 137 137<0 134>
VStem: 0 205<134 267> 137 68<-134 134 267 533>
LayerCount: 2
Back
Fore
SplineSet
137 546 m 25xa0
 205 546 l 25
 205 -137 l 25
 137 -137 l 25
 137 137 l 25xa0
 0 137 l 25
 0 273 l 25xc0
 137 273 l 25
 137 546 l 25xa0
EndSplineSet
EndChar

StartChar: uni2527
Encoding: 445 9511 445
Width: 409
VWidth: 0
Flags: W
HStem: 205 68<0 134>
VStem: 137 137<267 533> 137 68<-134 200>
LayerCount: 2
Back
Fore
SplineSet
137 546 m 25xc0
 273 546 l 25
 273 273 l 25xc0
 205 273 l 25
 205 -137 l 25
 137 -137 l 25
 137 205 l 25xa0
 0 205 l 25
 0 273 l 25
 137 273 l 25
 137 546 l 25xc0
EndSplineSet
EndChar

StartChar: uni2528
Encoding: 446 9512 446
Width: 409
VWidth: 0
Flags: W
HStem: 205 68<0 134>
VStem: 137 137<-134 200> 137 68<267 533>
LayerCount: 2
Back
Fore
SplineSet
137 546 m 25xa0
 205 546 l 25
 205 205 l 25xa0
 273 205 l 25
 273 -137 l 25
 137 -137 l 25
 137 205 l 25xc0
 0 205 l 25
 0 273 l 25
 137 273 l 25
 137 546 l 25xa0
EndSplineSet
EndChar

StartChar: uni2529
Encoding: 447 9513 447
Width: 409
VWidth: 0
Flags: W
HStem: 205 68<0 134>
VStem: 137 137<-134 200 267 533>
LayerCount: 2
Back
Fore
SplineSet
137 546 m 25
 273 546 l 25
 273 -137 l 25
 137 -137 l 25
 137 205 l 25
 0 205 l 25
 0 273 l 25
 137 273 l 25
 137 546 l 25
EndSplineSet
EndChar

StartChar: uni252A
Encoding: 448 9514 448
Width: 409
VWidth: 0
Flags: W
HStem: 137 137<0 134>
VStem: 137 137<267 533> 137 68<-134 134>
LayerCount: 2
Back
Fore
SplineSet
137 546 m 25xc0
 273 546 l 25
 273 137 l 25xc0
 205 137 l 25
 205 -137 l 25
 137 -137 l 25
 137 137 l 25xa0
 0 137 l 25
 0 273 l 25
 137 273 l 25
 137 546 l 25xc0
EndSplineSet
EndChar

StartChar: uni252B
Encoding: 449 9515 449
Width: 409
VWidth: 0
Flags: W
HStem: 137 137<0 134>
VStem: 137 137<-134 134> 137 68<267 533>
LayerCount: 2
Back
Fore
SplineSet
137 546 m 25xa0
 205 546 l 25
 205 273 l 25xa0
 273 273 l 25
 273 -137 l 25
 137 -137 l 25
 137 137 l 25xc0
 0 137 l 25
 0 273 l 25
 137 273 l 25
 137 546 l 25xa0
EndSplineSet
EndChar

StartChar: SF060000
Encoding: 450 9516 450
Width: 409
VWidth: 0
Flags: W
HStem: 137 137<0 134>
VStem: 137 137<-134 134 267 533>
LayerCount: 2
Back
Fore
SplineSet
137 546 m 25
 273 546 l 25
 273 -137 l 25
 137 -137 l 25
 137 137 l 25
 0 137 l 25
 0 273 l 25
 137 273 l 25
 137 546 l 25
EndSplineSet
EndChar

StartChar: uni252D
Encoding: 451 9517 451
Width: 409
VWidth: 0
Flags: W
HStem: 205 68<0 134 200 400>
VStem: 137 68<-134 200>
LayerCount: 2
Back
Fore
SplineSet
0 273 m 25
 410 273 l 25
 410 205 l 25
 205 205 l 25
 205 -137 l 25
 137 -137 l 25
 137 205 l 25
 0 205 l 25
 0 273 l 25
EndSplineSet
EndChar

StartChar: uni252E
Encoding: 452 9518 452
Width: 409
VWidth: 0
Flags: W
HStem: 137 137<0 134> 205 68<200 400>
VStem: 137 68<-134 134>
LayerCount: 2
Back
Fore
SplineSet
0 273 m 25xa0
 410 273 l 25
 410 205 l 25
 205 205 l 25x60
 205 -137 l 25
 137 -137 l 25
 137 137 l 25
 0 137 l 25
 0 273 l 25xa0
EndSplineSet
EndChar

StartChar: uni252F
Encoding: 453 9519 453
Width: 409
VWidth: 0
Flags: W
HStem: 137 137<200 400> 205 68<0 134>
VStem: 137 68<-134 134>
LayerCount: 2
Back
Fore
SplineSet
0 273 m 25x60
 410 273 l 25
 410 137 l 25
 205 137 l 25xa0
 205 -137 l 25
 137 -137 l 25
 137 205 l 25
 0 205 l 25
 0 273 l 25x60
EndSplineSet
EndChar

StartChar: uni2530
Encoding: 454 9520 454
Width: 409
VWidth: 0
Flags: W
HStem: 137 137<0 134 200 400>
VStem: 137 68<-134 134>
LayerCount: 2
Back
Fore
SplineSet
0 273 m 25
 410 273 l 25
 410 137 l 25
 205 137 l 25
 205 -137 l 25
 137 -137 l 25
 137 137 l 25
 0 137 l 25
 0 273 l 25
EndSplineSet
EndChar

StartChar: uni2531
Encoding: 455 9521 455
Width: 409
VWidth: 0
Flags: W
HStem: 205 68<0 134 267 400>
VStem: 137 137<-134 200>
LayerCount: 2
Back
Fore
SplineSet
0 273 m 25
 410 273 l 25
 410 205 l 25
 273 205 l 25
 273 -137 l 25
 137 -137 l 25
 137 205 l 25
 0 205 l 25
 0 273 l 25
EndSplineSet
EndChar

StartChar: uni2532
Encoding: 456 9522 456
Width: 409
VWidth: 0
Flags: W
HStem: 137 137<0 134> 205 68<267 400>
VStem: 137 137<-134 134>
LayerCount: 2
Back
Fore
SplineSet
0 273 m 25xa0
 410 273 l 25
 410 205 l 25
 273 205 l 25x60
 273 -137 l 25
 137 -137 l 25
 137 137 l 25
 0 137 l 25
 0 273 l 25xa0
EndSplineSet
EndChar

StartChar: uni2533
Encoding: 457 9523 457
Width: 409
VWidth: 0
Flags: W
HStem: 137 137<267 400> 205 68<0 134>
VStem: 137 137<-134 134>
LayerCount: 2
Back
Fore
SplineSet
0 273 m 1x60
 410 273 l 1
 410 137 l 1
 273 137 l 1xa0
 273 -137 l 1
 137 -137 l 1
 137 205 l 1
 0 205 l 1
 0 273 l 1x60
EndSplineSet
EndChar

StartChar: SF070000
Encoding: 458 9524 458
Width: 409
VWidth: 0
Flags: W
HStem: 137 137<0 134 267 400>
VStem: 137 137<-134 134>
LayerCount: 2
Back
Fore
SplineSet
0 273 m 25
 410 273 l 25
 410 137 l 25
 273 137 l 25
 273 -137 l 25
 137 -137 l 25
 137 137 l 25
 0 137 l 25
 0 273 l 25
EndSplineSet
EndChar

StartChar: uni2535
Encoding: 459 9525 459
Width: 409
VWidth: 0
Flags: W
HStem: 205 68<0 134 200 400>
VStem: 137 68<267 533>
LayerCount: 2
Back
Fore
SplineSet
0 273 m 25
 137 273 l 25
 137 546 l 25
 205 546 l 25
 205 273 l 25
 410 273 l 25
 410 205 l 25
 0 205 l 25
 0 273 l 25
EndSplineSet
EndChar

StartChar: uni2536
Encoding: 460 9526 460
Width: 409
VWidth: 0
Flags: W
HStem: 137 137<0 134> 205 68<200 400>
VStem: 137 68<267 533>
LayerCount: 2
Back
Fore
SplineSet
137 546 m 25xa0
 205 546 l 25
 205 273 l 25
 410 273 l 25
 410 205 l 25
 137 205 l 25x60
 137 137 l 25
 0 137 l 25
 0 273 l 25
 137 273 l 25
 137 546 l 25xa0
EndSplineSet
EndChar

StartChar: uni2537
Encoding: 461 9527 461
Width: 409
VWidth: 0
Flags: W
HStem: 137 137<200 400> 205 68<0 134>
VStem: 137 68<267 533>
LayerCount: 2
Back
Fore
SplineSet
137 546 m 25x60
 205 546 l 25
 205 273 l 25
 410 273 l 25
 410 137 l 25
 205 137 l 25xa0
 205 205 l 25
 0 205 l 25
 0 273 l 25
 137 273 l 25
 137 546 l 25x60
EndSplineSet
EndChar

StartChar: uni2538
Encoding: 462 9528 462
Width: 409
VWidth: 0
Flags: W
HStem: 137 137<0 134 200 400>
VStem: 137 68<267 533>
LayerCount: 2
Back
Fore
SplineSet
137 546 m 25
 205 546 l 25
 205 273 l 25
 410 273 l 25
 410 137 l 25
 0 137 l 25
 0 273 l 25
 137 273 l 25
 137 546 l 25
EndSplineSet
EndChar

StartChar: uni2539
Encoding: 463 9529 463
Width: 409
VWidth: 0
Flags: W
HStem: 205 68<0 134 267 400>
VStem: 137 137<267 533>
LayerCount: 2
Back
Fore
SplineSet
137 546 m 25
 273 546 l 25
 273 273 l 25
 410 273 l 25
 410 205 l 25
 0 205 l 25
 0 273 l 25
 137 273 l 25
 137 546 l 25
EndSplineSet
EndChar

StartChar: uni253A
Encoding: 464 9530 464
Width: 409
VWidth: 0
Flags: W
HStem: 137 137<0 134> 205 68<267 400>
VStem: 137 137<267 533>
LayerCount: 2
Back
Fore
SplineSet
137 546 m 25xa0
 273 546 l 25
 273 273 l 25
 410 273 l 25
 410 205 l 25
 205 205 l 25x60
 205 137 l 25
 0 137 l 25
 0 273 l 25
 137 273 l 25
 137 546 l 25xa0
EndSplineSet
EndChar

StartChar: uni253B
Encoding: 465 9531 465
Width: 409
VWidth: 0
Flags: W
HStem: 137 137<267 400> 205 68<0 134>
VStem: 137 137<267 533>
LayerCount: 2
Back
Fore
SplineSet
137 546 m 25x60
 273 546 l 25
 273 273 l 25
 410 273 l 25
 410 137 l 25
 205 137 l 25xa0
 205 205 l 25
 0 205 l 25
 0 273 l 25
 137 273 l 25
 137 546 l 25x60
EndSplineSet
EndChar

StartChar: SF050000
Encoding: 466 9532 466
Width: 409
VWidth: 0
Flags: W
HStem: 137 137<0 134 267 400>
VStem: 137 137<267 533>
LayerCount: 2
Back
Fore
SplineSet
137 546 m 25
 273 546 l 25
 273 273 l 25
 410 273 l 25
 410 137 l 25
 0 137 l 25
 0 273 l 25
 137 273 l 25
 137 546 l 25
EndSplineSet
EndChar

StartChar: uni253D
Encoding: 467 9533 467
Width: 409
VWidth: 0
Flags: W
HStem: 205 68<0 134 200 400>
VStem: 137 68<-134 200 267 533>
LayerCount: 2
Back
Fore
SplineSet
137 546 m 25
 205 546 l 25
 205 273 l 25
 410 273 l 25
 410 205 l 25
 205 205 l 25
 205 -137 l 25
 137 -137 l 25
 137 205 l 25
 0 205 l 25
 0 273 l 25
 137 273 l 25
 137 546 l 25
EndSplineSet
EndChar

StartChar: uni253E
Encoding: 468 9534 468
Width: 409
VWidth: 0
Flags: W
HStem: 137 137<0 134> 205 68<200 400>
VStem: 137 68<-134 134 267 533>
LayerCount: 2
Back
Fore
SplineSet
137 546 m 25xa0
 205 546 l 25
 205 273 l 25
 410 273 l 25
 410 205 l 25
 205 205 l 25x60
 205 -137 l 25
 137 -137 l 25
 137 137 l 25
 0 137 l 25
 0 273 l 25
 137 273 l 25
 137 546 l 25xa0
EndSplineSet
EndChar

StartChar: uni253F
Encoding: 469 9535 469
Width: 409
VWidth: 0
Flags: W
HStem: 137 137<200 400> 205 68<0 134>
VStem: 137 68<-134 134 267 533>
LayerCount: 2
Back
Fore
SplineSet
137 546 m 25x60
 205 546 l 25
 205 273 l 25
 410 273 l 25
 410 137 l 25
 205 137 l 25xa0
 205 -137 l 25
 137 -137 l 25
 137 205 l 25
 0 205 l 25
 0 273 l 25
 137 273 l 25
 137 546 l 25x60
EndSplineSet
EndChar

StartChar: uni2540
Encoding: 470 9536 470
Width: 409
VWidth: 0
Flags: W
HStem: 137 137<0 134 200 400>
VStem: 137 68<-134 134 267 533>
LayerCount: 2
Back
Fore
SplineSet
137 546 m 25
 205 546 l 25
 205 273 l 25
 410 273 l 25
 410 137 l 25
 205 137 l 25
 205 -137 l 25
 137 -137 l 25
 137 137 l 25
 0 137 l 25
 0 273 l 25
 137 273 l 25
 137 546 l 25
EndSplineSet
EndChar

StartChar: uni2541
Encoding: 471 9537 471
Width: 409
VWidth: 0
Flags: W
HStem: 205 68<0 134 267 400>
VStem: 137 137<267 533> 137 68<-134 200>
LayerCount: 2
Back
Fore
SplineSet
137 546 m 25xc0
 273 546 l 25
 273 273 l 25xc0
 410 273 l 25
 410 205 l 25
 205 205 l 25
 205 -137 l 25
 137 -137 l 25
 137 205 l 25xa0
 0 205 l 25
 0 273 l 25
 137 273 l 25
 137 546 l 25xc0
EndSplineSet
EndChar

StartChar: uni2542
Encoding: 472 9538 472
Width: 409
VWidth: 0
Flags: W
HStem: 205 68<0 134 267 400>
VStem: 137 137<-134 200> 137 68<267 533>
LayerCount: 2
Back
Fore
SplineSet
137 546 m 25xa0
 205 546 l 25
 205 273 l 25xa0
 410 273 l 25
 410 205 l 25
 273 205 l 25
 273 -137 l 25
 137 -137 l 25
 137 205 l 25xc0
 0 205 l 25
 0 273 l 25
 137 273 l 25
 137 546 l 25xa0
EndSplineSet
EndChar

StartChar: uni2543
Encoding: 473 9539 473
Width: 409
VWidth: 0
Flags: W
HStem: 205 68<0 134 267 400>
VStem: 137 137<-134 200 267 533>
LayerCount: 2
Back
Fore
SplineSet
137 546 m 25
 273 546 l 25
 273 273 l 25
 410 273 l 25
 410 205 l 25
 273 205 l 25
 273 -137 l 25
 137 -137 l 25
 137 205 l 25
 0 205 l 25
 0 273 l 25
 137 273 l 25
 137 546 l 25
EndSplineSet
EndChar

StartChar: uni2544
Encoding: 474 9540 474
Width: 409
VWidth: 0
Flags: W
HStem: 137 137<0 134> 205 68<267 400>
VStem: 137 137<267 533> 137 68<-134 134>
LayerCount: 2
Back
Fore
SplineSet
137 546 m 25xa0
 273 546 l 25
 273 273 l 25x60
 410 273 l 25
 410 205 l 25
 205 205 l 25x50
 205 -137 l 25
 137 -137 l 25
 137 137 l 25x90
 0 137 l 25
 0 273 l 25
 137 273 l 25
 137 546 l 25xa0
EndSplineSet
EndChar

StartChar: uni2545
Encoding: 475 9541 475
Width: 409
VWidth: 0
Flags: W
HStem: 137 137<267 400> 205 68<0 134>
VStem: 137 137<267 533> 137 68<-134 134>
LayerCount: 2
Back
Fore
SplineSet
137 546 m 25x60
 273 546 l 25
 273 273 l 25xa0
 410 273 l 25
 410 137 l 25
 205 137 l 25x90
 205 -137 l 25
 137 -137 l 25
 137 205 l 25x50
 0 205 l 25
 0 273 l 25
 137 273 l 25
 137 546 l 25x60
EndSplineSet
EndChar

StartChar: uni2546
Encoding: 476 9542 476
Width: 409
VWidth: 0
Flags: W
HStem: 137 137<0 134> 205 68<267 400>
VStem: 137 137<-134 134> 137 68<267 533>
LayerCount: 2
Back
Fore
SplineSet
137 546 m 25x90
 205 546 l 25
 205 273 l 25x50
 410 273 l 25
 410 205 l 25
 273 205 l 25x60
 273 -137 l 25
 137 -137 l 25
 137 137 l 25xa0
 0 137 l 25
 0 273 l 25
 137 273 l 25
 137 546 l 25x90
EndSplineSet
EndChar

StartChar: uni2547
Encoding: 477 9543 477
Width: 409
VWidth: 0
Flags: W
HStem: 137 137<267 400> 205 68<0 134>
VStem: 137 137<-134 134> 137 68<267 533>
LayerCount: 2
Back
Fore
SplineSet
137 546 m 25x50
 205 546 l 25
 205 273 l 25x50
 410 273 l 25
 410 137 l 25
 273 137 l 25
 273 -137 l 25
 137 -137 l 25xa0
 137 205 l 25
 0 205 l 25
 0 273 l 25
 137 273 l 25
 137 546 l 25x50
EndSplineSet
EndChar

StartChar: uni2548
Encoding: 478 9544 478
Width: 409
VWidth: 0
Flags: W
HStem: 137 137<0 134 267 400>
VStem: 137 137<267 533> 137 68<-134 134>
LayerCount: 2
Back
Fore
SplineSet
137 546 m 25xc0
 273 546 l 25
 273 273 l 25xc0
 410 273 l 25
 410 137 l 25
 205 137 l 25
 205 -137 l 25
 137 -137 l 25
 137 137 l 25xa0
 0 137 l 25
 0 273 l 25
 137 273 l 25
 137 546 l 25xc0
EndSplineSet
EndChar

StartChar: uni2549
Encoding: 479 9545 479
Width: 409
VWidth: 0
Flags: W
HStem: 137 137<0 134 267 400>
VStem: 137 137<-134 134> 137 68<267 533>
LayerCount: 2
Back
Fore
SplineSet
137 546 m 25xa0
 205 546 l 25
 205 273 l 25xa0
 410 273 l 25
 410 137 l 25
 273 137 l 25
 273 -137 l 25
 137 -137 l 25
 137 137 l 25xc0
 0 137 l 25
 0 273 l 25
 137 273 l 25
 137 546 l 25xa0
EndSplineSet
EndChar

StartChar: uni254A
Encoding: 480 9546 480
Width: 409
VWidth: 0
Flags: W
HStem: 137 137<0 134> 205 68<267 400>
VStem: 137 137<-134 134 267 533>
LayerCount: 2
Back
Fore
SplineSet
137 546 m 25xa0
 273 546 l 25
 273 273 l 25
 410 273 l 25
 410 205 l 25
 273 205 l 25x60
 273 -137 l 25
 137 -137 l 25
 137 137 l 25
 0 137 l 25
 0 273 l 25
 137 273 l 25
 137 546 l 25xa0
EndSplineSet
EndChar

StartChar: uni254B
Encoding: 481 9547 481
Width: 409
VWidth: 0
Flags: W
HStem: 137 137<267 400> 205 68<0 134>
VStem: 137 137<-134 134 267 533>
LayerCount: 2
Back
Fore
SplineSet
137 546 m 25x60
 273 546 l 25
 273 273 l 25
 410 273 l 25
 410 137 l 25
 273 137 l 25xa0
 273 -137 l 25
 137 -137 l 25
 137 205 l 25
 0 205 l 25
 0 273 l 25
 137 273 l 25
 137 546 l 25x60
EndSplineSet
EndChar

StartChar: uni254C
Encoding: 482 9548 482
Width: 409
VWidth: 0
Flags: W
HStem: 137 137<0 134 267 400>
VStem: 137 137<-134 134 267 533>
LayerCount: 2
Back
Fore
SplineSet
137 546 m 25
 273 546 l 25
 273 273 l 25
 410 273 l 25
 410 137 l 25
 273 137 l 25
 273 -137 l 25
 137 -137 l 25
 137 137 l 25
 0 137 l 25
 0 273 l 25
 137 273 l 25
 137 546 l 25
EndSplineSet
EndChar

StartChar: uni254D
Encoding: 483 9549 483
Width: 409
VWidth: 0
Flags: W
HStem: 205 68<0 134 267 400>
LayerCount: 2
Back
Fore
SplineSet
273 273 m 25
 410 273 l 25
 410 205 l 25
 273 205 l 25
 273 273 l 25
0 273 m 25
 137 273 l 25
 137 205 l 25
 0 205 l 25
 0 273 l 25
EndSplineSet
EndChar

StartChar: uni254E
Encoding: 484 9550 484
Width: 409
VWidth: 0
Flags: W
HStem: 137 137<0 134 267 400>
VStem: 0 137<134 267> 273 137<134 267>
LayerCount: 2
Back
Fore
SplineSet
273 273 m 25
 410 273 l 25
 410 137 l 25
 273 137 l 25
 273 273 l 25
0 273 m 25
 137 273 l 25
 137 137 l 25
 0 137 l 25
 0 273 l 25
EndSplineSet
EndChar

StartChar: uni254F
Encoding: 485 9551 485
Width: 409
VWidth: 0
Flags: W
VStem: 137 68<-134 134 267 533>
LayerCount: 2
Back
Fore
SplineSet
137 137 m 25
 205 137 l 25
 205 -137 l 25
 137 -137 l 25
 137 137 l 25
137 546 m 25
 205 546 l 25
 205 273 l 25
 137 273 l 25
 137 546 l 25
EndSplineSet
EndChar

StartChar: SF430000
Encoding: 486 9552 486
Width: 409
VWidth: 0
Flags: W
VStem: 137 137<-134 134 267 533>
LayerCount: 2
Back
Fore
SplineSet
137 137 m 25
 273 137 l 25
 273 -137 l 25
 137 -137 l 25
 137 137 l 25
137 546 m 25
 273 546 l 25
 273 273 l 25
 137 273 l 25
 137 546 l 25
EndSplineSet
EndChar

StartChar: SF240000
Encoding: 487 9553 487
Width: 409
VWidth: 0
Flags: W
HStem: 137 68<0 400> 273 68<0 400>
LayerCount: 2
Back
Fore
SplineSet
0 205 m 25
 410 205 l 25
 410 137 l 25
 0 137 l 25
 0 205 l 25
0 341 m 25
 410 341 l 25
 410 273 l 25
 0 273 l 25
 0 341 l 25
EndSplineSet
EndChar

StartChar: SF510000
Encoding: 488 9554 488
Width: 409
VWidth: 0
Flags: W
VStem: 68 68<-134 533> 205 68<-134 533>
LayerCount: 2
Back
Fore
SplineSet
205 546 m 25
 273 546 l 25
 273 -137 l 25
 205 -137 l 25
 205 546 l 25
68 546 m 25
 137 546 l 25
 137 -137 l 25
 68 -137 l 25
 68 546 l 25
EndSplineSet
EndChar

StartChar: SF520000
Encoding: 489 9555 489
Width: 409
VWidth: 0
Flags: W
HStem: 137 68<200 400> 273 68<200 400>
VStem: 137 68<-134 134 200 267>
LayerCount: 2
Back
Fore
SplineSet
137 341 m 25
 410 341 l 25
 410 273 l 25
 205 273 l 25
 205 205 l 25
 410 205 l 25
 410 137 l 25
 205 137 l 25
 205 -137 l 25
 137 -137 l 25
 137 341 l 25
EndSplineSet
EndChar

StartChar: SF390000
Encoding: 490 9556 490
Width: 409
VWidth: 0
Flags: W
HStem: 205 68<134 200 267 400>
VStem: 68 68<-134 200> 205 68<-134 200>
LayerCount: 2
Back
Fore
SplineSet
68 273 m 25
 410 273 l 25
 410 205 l 25
 273 205 l 25
 273 -137 l 25
 205 -137 l 25
 205 205 l 25
 137 205 l 25
 137 -137 l 25
 68 -137 l 25
 68 273 l 25
EndSplineSet
EndChar

StartChar: SF220000
Encoding: 491 9557 491
Width: 409
VWidth: 0
Flags: W
HStem: 137 68<267 400> 273 68<134 400>
VStem: 68 68<-134 267> 205 68<-134 134>
LayerCount: 2
Back
Fore
SplineSet
205 205 m 25
 410 205 l 25
 410 137 l 25
 273 137 l 25
 273 -137 l 25
 205 -137 l 25
 205 205 l 25
68 341 m 25
 410 341 l 25
 410 273 l 25
 137 273 l 25
 137 -137 l 25
 68 -137 l 25
 68 341 l 25
EndSplineSet
EndChar

StartChar: SF210000
Encoding: 492 9558 492
Width: 409
VWidth: 0
Flags: W
HStem: 137 68<0 134> 273 68<0 134>
VStem: 0 205<134 200 267 334> 137 68<-134 134 200 267>
LayerCount: 2
Back
Fore
SplineSet
0 341 m 25xe0
 205 341 l 25xe0
 205 -137 l 25
 137 -137 l 25
 137 137 l 25xd0
 0 137 l 25
 0 205 l 25xe0
 137 205 l 25
 137 273 l 25xd0
 0 273 l 25
 0 341 l 25xe0
EndSplineSet
EndChar

StartChar: SF250000
Encoding: 493 9559 493
Width: 409
VWidth: 0
Flags: W
HStem: 205 68<0 67 134 200>
VStem: 68 68<-134 200> 205 68<-134 200>
LayerCount: 2
Back
Fore
SplineSet
0 273 m 25
 273 273 l 25
 273 -137 l 25
 205 -137 l 25
 205 205 l 25
 137 205 l 25
 137 -137 l 25
 68 -137 l 25
 68 205 l 25
 0 205 l 25
 0 273 l 25
EndSplineSet
EndChar

StartChar: SF500000
Encoding: 494 9560 494
Width: 409
VWidth: 0
Flags: W
HStem: 137 68<0 67> 273 68<0 200>
VStem: 68 68<-134 134> 205 68<-134 267>
LayerCount: 2
Back
Fore
SplineSet
0 205 m 25
 137 205 l 25
 137 -137 l 25
 68 -137 l 25
 68 137 l 25
 0 137 l 25
 0 205 l 25
0 341 m 25
 273 341 l 25
 273 -137 l 25
 205 -137 l 25
 205 273 l 25
 0 273 l 25
 0 341 l 25
EndSplineSet
EndChar

StartChar: SF490000
Encoding: 495 9561 495
Width: 409
VWidth: 0
Flags: W
HStem: 137 68<200 400> 273 68<200 400>
VStem: 137 68<200 267 334 533>
LayerCount: 2
Back
Fore
SplineSet
137 546 m 25
 205 546 l 25
 205 341 l 25
 410 341 l 25
 410 273 l 25
 205 273 l 25
 205 205 l 25
 410 205 l 25
 410 137 l 25
 137 137 l 25
 137 546 l 25
EndSplineSet
EndChar

StartChar: SF380000
Encoding: 496 9562 496
Width: 409
VWidth: 0
Flags: W
HStem: 205 68<134 200 267 400>
VStem: 68 68<267 533> 205 68<267 533>
LayerCount: 2
Back
Fore
SplineSet
68 546 m 25
 137 546 l 25
 137 273 l 25
 205 273 l 25
 205 546 l 25
 273 546 l 25
 273 273 l 25
 410 273 l 25
 410 205 l 25
 68 205 l 25
 68 546 l 25
EndSplineSet
EndChar

StartChar: SF280000
Encoding: 497 9563 497
Width: 409
VWidth: 0
Flags: W
HStem: 137 68<134 400> 273 68<267 400>
VStem: 68 68<200 533> 205 68<334 533>
LayerCount: 2
Back
Fore
SplineSet
205 546 m 25
 273 546 l 25
 273 341 l 25
 410 341 l 25
 410 273 l 25
 205 273 l 25
 205 546 l 25
68 546 m 25
 137 546 l 25
 137 205 l 25
 410 205 l 25
 410 137 l 25
 68 137 l 25
 68 546 l 25
EndSplineSet
EndChar

StartChar: SF270000
Encoding: 498 9564 498
Width: 409
VWidth: 0
Flags: W
HStem: 137 68<0 134> 273 68<0 134>
VStem: 0 205<134 200 267 334> 137 68<200 267 334 533>
LayerCount: 2
Back
Fore
SplineSet
137 546 m 25xd0
 205 546 l 25xd0
 205 137 l 25
 0 137 l 25
 0 205 l 25xe0
 137 205 l 25
 137 273 l 25xd0
 0 273 l 25
 0 341 l 25xe0
 137 341 l 25
 137 546 l 25xd0
EndSplineSet
EndChar

StartChar: SF260000
Encoding: 499 9565 499
Width: 409
VWidth: 0
Flags: W
HStem: 205 68<0 67 134 200>
VStem: 68 68<267 533> 205 68<267 533>
LayerCount: 2
Back
Fore
SplineSet
68 546 m 25
 137 546 l 25
 137 273 l 25
 205 273 l 25
 205 546 l 25
 273 546 l 25
 273 205 l 25
 0 205 l 25
 0 273 l 25
 68 273 l 25
 68 546 l 25
EndSplineSet
EndChar

StartChar: SF360000
Encoding: 500 9566 500
Width: 409
VWidth: 0
Flags: W
HStem: 137 68<0 200> 273 68<0 67>
VStem: 68 68<334 533> 205 68<200 533>
LayerCount: 2
Back
Fore
SplineSet
205 546 m 25
 273 546 l 25
 273 137 l 25
 0 137 l 25
 0 205 l 25
 205 205 l 25
 205 546 l 25
68 546 m 25
 137 546 l 25
 137 273 l 25
 0 273 l 25
 0 341 l 25
 68 341 l 25
 68 546 l 25
EndSplineSet
EndChar

StartChar: SF370000
Encoding: 501 9567 501
Width: 409
VWidth: 0
Flags: W
HStem: 137 68<200 400> 273 68<200 400>
VStem: 137 68<-134 134 200 267 334 533>
LayerCount: 2
Back
Fore
SplineSet
137 546 m 25
 205 546 l 25
 205 341 l 25
 410 341 l 25
 410 273 l 25
 205 273 l 25
 205 205 l 25
 410 205 l 25
 410 137 l 25
 205 137 l 25
 205 -137 l 25
 137 -137 l 25
 137 546 l 25
EndSplineSet
EndChar

StartChar: SF420000
Encoding: 502 9568 502
Width: 409
VWidth: 0
Flags: W
HStem: 205 68<267 400>
VStem: 68 68<-134 533> 205 68<-134 200 267 533>
LayerCount: 2
Back
Fore
SplineSet
205 546 m 25
 273 546 l 25
 273 273 l 25
 410 273 l 25
 410 205 l 25
 273 205 l 25
 273 -137 l 25
 205 -137 l 25
 205 546 l 25
68 546 m 25
 137 546 l 25
 137 -137 l 25
 68 -137 l 25
 68 546 l 25
EndSplineSet
EndChar

StartChar: SF190000
Encoding: 503 9569 503
Width: 409
VWidth: 0
Flags: W
HStem: 137 68<267 400> 273 68<267 400>
VStem: 68 68<-134 533> 205 205<134 200 267 334> 205 68<-134 134 334 533>
LayerCount: 2
Back
Fore
SplineSet
205 205 m 25xf0
 410 205 l 25
 410 137 l 25xf0
 273 137 l 25
 273 -137 l 25
 205 -137 l 25xe8
 205 205 l 25xf0
205 546 m 25xe8
 273 546 l 25
 273 341 l 25xe8
 410 341 l 25
 410 273 l 25
 205 273 l 25xf0
 205 546 l 25xe8
68 546 m 25
 137 546 l 25
 137 -137 l 25
 68 -137 l 25
 68 546 l 25
EndSplineSet
EndChar

StartChar: SF200000
Encoding: 504 9570 504
Width: 409
VWidth: 0
Flags: W
HStem: 137 68<0 134> 273 68<0 134>
VStem: 0 205<134 200 267 334> 137 68<-134 134 200 267 334 533>
LayerCount: 2
Back
Fore
SplineSet
0 341 m 25xe0
 137 341 l 25
 137 546 l 25
 205 546 l 25
 205 -137 l 25
 137 -137 l 25
 137 137 l 25xd0
 0 137 l 25
 0 205 l 25xe0
 137 205 l 25
 137 273 l 25xd0
 0 273 l 25
 0 341 l 25xe0
EndSplineSet
EndChar

StartChar: SF230000
Encoding: 505 9571 505
Width: 409
VWidth: 0
Flags: W
HStem: 205 68<0 67>
VStem: 68 68<-134 200 267 533> 205 68<-134 533>
LayerCount: 2
Back
Fore
SplineSet
205 546 m 25
 273 546 l 25
 273 -137 l 25
 205 -137 l 25
 205 546 l 25
68 546 m 25
 137 546 l 25
 137 -137 l 25
 68 -137 l 25
 68 205 l 25
 0 205 l 25
 0 273 l 25
 68 273 l 25
 68 546 l 25
EndSplineSet
EndChar

StartChar: SF470000
Encoding: 506 9572 506
Width: 409
VWidth: 0
Flags: W
HStem: 137 68<0 67> 273 68<0 67>
VStem: 0 137<134 200 267 334> 68 68<-134 134 334 533> 205 68<-134 533>
LayerCount: 2
Back
Fore
SplineSet
205 546 m 25xc8
 273 546 l 25
 273 -137 l 25
 205 -137 l 25
 205 546 l 25xc8
0 205 m 25xe8
 137 205 l 25xe8
 137 -137 l 25
 68 -137 l 25
 68 137 l 25xd8
 0 137 l 25
 0 205 l 25xe8
68 546 m 25xd8
 137 546 l 25xd8
 137 273 l 25
 0 273 l 25
 0 341 l 25xe8
 68 341 l 25
 68 546 l 25xd8
EndSplineSet
EndChar

StartChar: SF480000
Encoding: 507 9573 507
Width: 409
VWidth: 0
Flags: W
HStem: 137 68<0 134 200 400> 273 68<0 400>
VStem: 137 68<-134 134>
LayerCount: 2
Back
Fore
SplineSet
0 205 m 25
 410 205 l 25
 410 137 l 25
 205 137 l 25
 205 -137 l 25
 137 -137 l 25
 137 137 l 25
 0 137 l 25
 0 205 l 25
0 341 m 25
 410 341 l 25
 410 273 l 25
 0 273 l 25
 0 341 l 25
EndSplineSet
EndChar

StartChar: SF410000
Encoding: 508 9574 508
Width: 409
VWidth: 0
Flags: W
HStem: 205 68<0 67 134 200 267 400>
VStem: 68 68<-134 200> 205 68<-134 200>
LayerCount: 2
Back
Fore
SplineSet
0 273 m 25
 410 273 l 25
 410 205 l 25
 273 205 l 25
 273 -137 l 25
 205 -137 l 25
 205 205 l 25
 137 205 l 25
 137 -137 l 25
 68 -137 l 25
 68 205 l 25
 0 205 l 25
 0 273 l 25
EndSplineSet
EndChar

StartChar: SF450000
Encoding: 509 9575 509
Width: 409
VWidth: 0
Flags: W
HStem: 137 68<0 67 267 400> 273 68<0 400>
VStem: 68 68<-134 134> 205 68<-134 134>
LayerCount: 2
Back
Fore
SplineSet
205 205 m 25
 410 205 l 25
 410 137 l 25
 273 137 l 25
 273 -137 l 25
 205 -137 l 25
 205 205 l 25
0 205 m 25
 137 205 l 25
 137 -137 l 25
 68 -137 l 25
 68 137 l 25
 0 137 l 25
 0 205 l 25
0 341 m 25
 410 341 l 25
 410 273 l 25
 0 273 l 25
 0 341 l 25
EndSplineSet
EndChar

StartChar: SF460000
Encoding: 510 9576 510
Width: 409
VWidth: 0
Flags: W
HStem: 137 68<0 400> 273 68<0 134 200 400>
VStem: 137 68<334 533>
LayerCount: 2
Back
Fore
SplineSet
0 205 m 25
 410 205 l 25
 410 137 l 25
 0 137 l 25
 0 205 l 25
0 341 m 25
 137 341 l 25
 137 546 l 25
 205 546 l 25
 205 341 l 25
 410 341 l 25
 410 273 l 25
 0 273 l 25
 0 341 l 25
EndSplineSet
EndChar

StartChar: SF400000
Encoding: 511 9577 511
Width: 409
VWidth: 0
Flags: W
HStem: 205 68<0 67 134 200 267 400>
VStem: 68 68<267 533> 205 68<267 533>
LayerCount: 2
Back
Fore
SplineSet
0 273 m 25
 68 273 l 25
 68 546 l 25
 137 546 l 25
 137 273 l 25
 205 273 l 25
 205 546 l 25
 273 546 l 25
 273 273 l 25
 410 273 l 25
 410 205 l 25
 0 205 l 25
 0 273 l 25
EndSplineSet
EndChar

StartChar: SF540000
Encoding: 512 9578 512
Width: 409
VWidth: 0
Flags: W
HStem: 137 68<0 400> 273 68<0 67 267 400>
VStem: 68 68<334 533> 205 68<334 533>
LayerCount: 2
Back
Fore
SplineSet
0 205 m 25
 410 205 l 25
 410 137 l 25
 0 137 l 25
 0 205 l 25
205 546 m 25
 273 546 l 25
 273 341 l 25
 410 341 l 25
 410 273 l 25
 205 273 l 25
 205 546 l 25
0 341 m 25
 68 341 l 25
 68 546 l 25
 137 546 l 25
 137 273 l 25
 0 273 l 25
 0 341 l 25
EndSplineSet
EndChar

StartChar: SF530000
Encoding: 513 9579 513
Width: 409
VWidth: 0
Flags: W
HStem: 137 68<0 134 200 400> 273 68<0 134 200 400>
VStem: 137 68<-134 134 200 267 334 533>
LayerCount: 2
Back
Fore
SplineSet
0 341 m 25
 137 341 l 25
 137 546 l 25
 205 546 l 25
 205 341 l 25
 410 341 l 25
 410 273 l 25
 205 273 l 25
 205 205 l 25
 410 205 l 25
 410 137 l 25
 205 137 l 25
 205 -137 l 25
 137 -137 l 25
 137 137 l 25
 0 137 l 25
 0 205 l 25
 137 205 l 25
 137 273 l 25
 0 273 l 25
 0 341 l 25
EndSplineSet
EndChar

StartChar: SF440000
Encoding: 514 9580 514
Width: 409
VWidth: 0
Flags: W
HStem: 205 68<0 67 134 200 267 400>
VStem: 68 68<-134 200 267 533> 205 68<-134 200 267 533>
LayerCount: 2
Back
Fore
SplineSet
0 273 m 25
 68 273 l 25
 68 546 l 25
 137 546 l 25
 137 273 l 25
 205 273 l 25
 205 546 l 25
 273 546 l 25
 273 273 l 25
 410 273 l 25
 410 205 l 25
 273 205 l 25
 273 -137 l 25
 205 -137 l 25
 205 205 l 25
 137 205 l 25
 137 -137 l 25
 68 -137 l 25
 68 205 l 25
 0 205 l 25
 0 273 l 25
EndSplineSet
EndChar

StartChar: uni256D
Encoding: 515 9581 515
Width: 409
VWidth: 0
Flags: W
HStem: 137 68<0 67 267 400> 273 68<0 67 267 400>
VStem: 0 137<134 200 267 334> 68 68<-134 134 334 533> 205 205<134 200 267 334> 205 68<-134 134 334 533>
LayerCount: 2
Back
Fore
SplineSet
205 205 m 25xc8
 410 205 l 25
 410 137 l 25xc8
 273 137 l 25
 273 -137 l 25
 205 -137 l 25xc4
 205 205 l 25xc8
0 205 m 25xe0
 137 205 l 25xe0
 137 -137 l 25
 68 -137 l 25
 68 137 l 25xd0
 0 137 l 25
 0 205 l 25xe0
205 546 m 25xc4
 273 546 l 25
 273 341 l 25xc4
 410 341 l 25
 410 273 l 25
 205 273 l 25xc8
 205 546 l 25xc4
0 341 m 25xe0
 68 341 l 25
 68 546 l 25
 137 546 l 25xd0
 137 273 l 25
 0 273 l 25
 0 341 l 25xe0
EndSplineSet
EndChar

StartChar: uni256E
Encoding: 516 9582 516
Width: 409
VWidth: 0
Flags: W
HStem: 137 68<200 267> 205 68<267 400>
VStem: 137 68<-134 134> 205 68<134 200>
LayerCount: 2
Back
Fore
SplineSet
137 -137 m 25xa0
 137 137 l 25
 205 137 l 25xa0
 205 205 l 25
 273 205 l 25x90
 273 273 l 25
 410 273 l 25
 410 205 l 25x50
 273 205 l 25
 273 137 l 25x90
 205 137 l 25
 205 -137 l 25
 137 -137 l 25xa0
EndSplineSet
EndChar

StartChar: uni256F
Encoding: 517 9583 517
Width: 409
VWidth: 0
Flags: W
HStem: 137 68<67 134> 205 68<0 67>
VStem: 0 68<200 267> 68 68<134 200> 137 68<-134 134>
LayerCount: 2
Back
Fore
SplineSet
0 273 m 25x60
 68 273 l 25x60
 68 205 l 25xa0
 137 205 l 25
 137 137 l 25x90
 205 137 l 25
 205 -137 l 25
 137 -137 l 25x88
 137 137 l 25
 68 137 l 25x90
 68 205 l 25xa0
 0 205 l 25
 0 273 l 25x60
EndSplineSet
EndChar

StartChar: uni2570
Encoding: 518 9584 518
Width: 409
VWidth: 0
Flags: W
HStem: 205 68<0 67> 273 68<67 134>
VStem: 0 68<200 267> 68 68<267 334> 137 68<334 533>
LayerCount: 2
Back
Fore
SplineSet
0 273 m 25xa0
 68 273 l 25xa0
 68 341 l 25
 137 341 l 25x50
 137 546 l 25
 205 546 l 25
 205 341 l 25x48
 137 341 l 25
 137 273 l 25x50
 68 273 l 25
 68 205 l 25
 0 205 l 25
 0 273 l 25xa0
EndSplineSet
EndChar

StartChar: uni2571
Encoding: 519 9585 519
Width: 409
VWidth: 0
Flags: W
HStem: 205 68<267 400> 273 68<200 267>
VStem: 137 68<334 533> 205 68<267 334>
LayerCount: 2
Back
Fore
SplineSet
137 546 m 25x60
 205 546 l 25
 205 341 l 25x60
 273 341 l 25x50
 273 273 l 25
 410 273 l 25
 410 205 l 25
 273 205 l 25
 273 273 l 25x90
 205 273 l 25x50
 205 341 l 25
 137 341 l 25
 137 546 l 25x60
EndSplineSet
EndChar

StartChar: uni2572
Encoding: 520 9586 520
Width: 409
VWidth: 0
Flags: W
HStem: 137 68<134 200> 205 68<200 267>
VStem: 0 68<-134 0> 68 68<0 134> 137 68<134 200> 205 68<200 267> 273 68<267 400> 341 68<400 533>
LayerCount: 2
Back
Fore
SplineSet
341 546 m 25x41
 410 546 l 25
 410 410 l 25x41
 341 410 l 25
 341 273 l 25x42
 273 273 l 25
 273 205 l 25x44
 205 205 l 25
 205 137 l 25x88
 137 137 l 25
 137 0 l 25x90
 68 0 l 25
 68 -137 l 25
 0 -137 l 25
 0 0 l 25
 68 0 l 25xa0
 68 137 l 25
 137 137 l 25x90
 137 205 l 25
 205 205 l 25x88
 205 273 l 25
 273 273 l 25x44
 273 410 l 25
 341 410 l 25x42
 341 546 l 25x41
EndSplineSet
EndChar

StartChar: uni2573
Encoding: 521 9587 521
Width: 409
VWidth: 0
Flags: W
HStem: 137 68<200 267> 205 68<134 200>
VStem: 0 68<400 533> 68 68<267 400> 137 68<200 267> 205 68<134 200> 273 68<0 134> 341 68<-134 0>
LayerCount: 2
Back
Fore
SplineSet
0 546 m 25x60
 68 546 l 25
 68 410 l 25x60
 137 410 l 25
 137 273 l 25x50
 205 273 l 25x48
 205 205 l 25x88
 273 205 l 25
 273 137 l 25x84
 341 137 l 25
 341 0 l 25x82
 410 0 l 25
 410 -137 l 25
 341 -137 l 25x81
 341 0 l 25
 273 0 l 25x82
 273 137 l 25
 205 137 l 25x84
 205 205 l 25x88
 137 205 l 25x48
 137 273 l 25
 68 273 l 25x50
 68 410 l 25
 0 410 l 25
 0 546 l 25x60
EndSplineSet
EndChar

StartChar: uni2574
Encoding: 522 9588 522
Width: 409
VWidth: 0
Flags: W
HStem: -137 137<0 67 334 400> 0 137<67 134 267 334> 273 137<67 134 267 334> 410 137<0 67 334 400>
VStem: 0 68<-134 0 400 533> 68 68<0 134 267 400> 273 68<0 134 267 400> 341 68<-134 0 400 533>
LayerCount: 2
Back
Fore
SplineSet
0 546 m 25x18
 68 546 l 25x18
 68 410 l 25x28
 137 410 l 25
 137 273 l 25
 273 273 l 25
 273 410 l 25
 341 410 l 25x26
 341 546 l 25
 410 546 l 25
 410 410 l 25x11
 341 410 l 25
 341 273 l 25
 273 273 l 25
 273 137 l 25
 341 137 l 25x62
 341 0 l 25x82
 410 0 l 25
 410 -137 l 25
 341 -137 l 25x81
 341 0 l 25x82
 273 0 l 25
 273 137 l 25
 137 137 l 25
 137 0 l 25x46
 68 0 l 25
 68 -137 l 25
 0 -137 l 25
 0 0 l 25
 68 0 l 25x88
 68 137 l 25
 137 137 l 25
 137 273 l 25
 68 273 l 25x64
 68 410 l 25x68
 0 410 l 25
 0 546 l 25x18
EndSplineSet
EndChar

StartChar: uni2575
Encoding: 523 9589 523
Width: 409
VWidth: 0
Flags: W
HStem: 205 68<0 200>
VStem: 0 205<200 267>
LayerCount: 2
Back
Fore
SplineSet
0 273 m 25
 205 273 l 25
 205 205 l 25
 0 205 l 25
 0 273 l 25
EndSplineSet
EndChar

StartChar: uni2576
Encoding: 524 9590 524
Width: 409
VWidth: 0
Flags: W
VStem: 137 68<200 533>
LayerCount: 2
Back
Fore
SplineSet
137 546 m 25
 205 546 l 25
 205 205 l 25
 137 205 l 25
 137 546 l 25
EndSplineSet
EndChar

StartChar: uni2577
Encoding: 525 9591 525
Width: 409
VWidth: 0
Flags: W
HStem: 205 68<134 400>
LayerCount: 2
Back
Fore
SplineSet
137 273 m 25
 410 273 l 25
 410 205 l 25
 137 205 l 25
 137 273 l 25
EndSplineSet
EndChar

StartChar: uni2578
Encoding: 526 9592 526
Width: 409
VWidth: 0
Flags: W
VStem: 137 68<-134 267>
LayerCount: 2
Back
Fore
SplineSet
137 273 m 25
 205 273 l 25
 205 -137 l 25
 137 -137 l 25
 137 273 l 25
EndSplineSet
EndChar

StartChar: uni2579
Encoding: 527 9593 527
Width: 409
VWidth: 0
Flags: W
HStem: 137 137<0 200>
VStem: 0 205<134 267>
LayerCount: 2
Back
Fore
SplineSet
0 273 m 25
 205 273 l 25
 205 137 l 25
 0 137 l 25
 0 273 l 25
EndSplineSet
EndChar

StartChar: uni257A
Encoding: 528 9594 528
Width: 409
VWidth: 0
Flags: W
VStem: 137 137<200 533>
LayerCount: 2
Back
Fore
SplineSet
137 546 m 25
 273 546 l 25
 273 205 l 25
 137 205 l 25
 137 546 l 25
EndSplineSet
EndChar

StartChar: uni257B
Encoding: 529 9595 529
Width: 409
VWidth: 0
Flags: W
HStem: 137 137<134 400>
LayerCount: 2
Back
Fore
SplineSet
137 273 m 25
 410 273 l 25
 410 137 l 25
 137 137 l 25
 137 273 l 25
EndSplineSet
EndChar

StartChar: uni257C
Encoding: 530 9596 530
Width: 409
VWidth: 0
Flags: W
VStem: 137 137<-134 267>
LayerCount: 2
Back
Fore
SplineSet
137 273 m 25
 273 273 l 25
 273 -137 l 25
 137 -137 l 25
 137 273 l 25
EndSplineSet
EndChar

StartChar: uni257D
Encoding: 531 9597 531
Width: 409
VWidth: 0
Flags: W
HStem: 137 137<134 400> 205 68<0 134>
LayerCount: 2
Back
Fore
SplineSet
0 273 m 25x40
 410 273 l 25
 410 137 l 25
 137 137 l 25x80
 137 205 l 25
 0 205 l 25
 0 273 l 25x40
EndSplineSet
EndChar

StartChar: uni257E
Encoding: 532 9598 532
Width: 409
VWidth: 0
Flags: W
VStem: 137 137<-134 267> 137 68<267 533>
LayerCount: 2
Back
Fore
SplineSet
137 546 m 25x40
 205 546 l 25
 205 273 l 25x40
 273 273 l 25
 273 -137 l 25
 137 -137 l 25x80
 137 546 l 25x40
EndSplineSet
EndChar

StartChar: uni257F
Encoding: 533 9599 533
Width: 409
VWidth: 0
Flags: W
HStem: 137 137<0 200> 205 68<200 400>
LayerCount: 2
Back
Fore
SplineSet
0 273 m 25x80
 410 273 l 25
 410 205 l 25
 205 205 l 25x40
 205 137 l 25
 0 137 l 25
 0 273 l 25x80
EndSplineSet
EndChar

StartChar: block
Encoding: 534 9608 534
Width: 409
VWidth: 0
Flags: W
VStem: 137 137<200 533> 137 68<-134 200>
LayerCount: 2
Back
Fore
SplineSet
137 546 m 25x80
 273 546 l 25
 273 205 l 25x80
 205 205 l 25
 205 -137 l 25
 137 -137 l 25x40
 137 546 l 25x80
EndSplineSet
EndChar

StartChar: ltshade
Encoding: 535 9617 535
Width: 409
VWidth: 0
Flags: W
VStem: 0 410<-134 533>
LayerCount: 2
Back
Fore
SplineSet
0 546 m 25
 410 546 l 25
 410 -137 l 25
 0 -137 l 25
 0 546 l 25
EndSplineSet
EndChar

StartChar: shade
Encoding: 536 9618 536
Width: 409
VWidth: 0
Flags: W
HStem: -137 68<0 67 200 267> -68 68<134 200 334 400> 0 68<67 134 267 334> 68 68<0 67 200 267> 137 68<134 200 334 400> 205 68<67 134 267 334> 273 68<0 67 200 267> 341 68<134 200 334 400> 410 68<67 134 267 334> 478 68<0 67 200 267>
VStem: 0 68<-134 -67 67 134 267 334 466 533> 68 68<0 67 200 267 400 466> 137 68<-67 0 134 200 334 400> 205 68<-134 -67 67 134 267 334 466 533> 273 68<0 67 200 267 400 466> 341 68<-67 0 134 200 334 400>
LayerCount: 2
Back
Fore
SplineSet
0 -68 m 25x8020
 68 -68 l 25
 68 -137 l 25
 0 -137 l 25
 0 -68 l 25x8020
0 137 m 25x1020
 68 137 l 25x1020
 68 68 l 25x2020
 137 68 l 25x2010
 137 0 l 25x4010
 205 0 l 25x4008
 205 -68 l 25x8008
 273 -68 l 25
 273 -137 l 25
 205 -137 l 25x8004
 205 -68 l 25x8008
 137 -68 l 25x4008
 137 0 l 25x4010
 68 0 l 25x2010
 68 68 l 25x2020
 0 68 l 25
 0 137 l 25x1020
0 341 m 25x0220
 68 341 l 25x0220
 68 273 l 25x0420
 137 273 l 25x0410
 137 205 l 25x0810
 205 205 l 25x0808
 205 137 l 25x1008
 273 137 l 25x1004
 273 68 l 25x2004
 341 68 l 25x2002
 341 0 l 25x4002
 410 0 l 25
 410 -68 l 25
 341 -68 l 25x4001
 341 0 l 25x4002
 273 0 l 25x2002
 273 68 l 25x2004
 205 68 l 25x1004
 205 137 l 25x1008
 137 137 l 25x0808
 137 205 l 25x0810
 68 205 l 25x0410
 68 273 l 25x0420
 0 273 l 25
 0 341 l 25x0220
205 546 m 25x0044
 273 546 l 25x0044
 273 478 l 25x0084
 341 478 l 25x0082
 341 410 l 25x0102
 410 410 l 25
 410 341 l 25
 341 341 l 25x0101
 341 410 l 25x0102
 273 410 l 25x0082
 273 478 l 25x0084
 205 478 l 25
 205 546 l 25x0044
0 546 m 25x0060
 68 546 l 25x0060
 68 478 l 25x00a0
 137 478 l 25x0090
 137 410 l 25x0110
 205 410 l 25x0108
 205 341 l 25x0208
 273 341 l 25x0204
 273 273 l 25x0404
 341 273 l 25x0402
 341 205 l 25x0802
 410 205 l 25
 410 137 l 25
 341 137 l 25x0801
 341 205 l 25x0802
 273 205 l 25x0402
 273 273 l 25x0404
 205 273 l 25x0204
 205 341 l 25x0208
 137 341 l 25x0108
 137 410 l 25x0110
 68 410 l 25x0090
 68 478 l 25x00a0
 0 478 l 25
 0 546 l 25x0060
EndSplineSet
EndChar

StartChar: filledbox
Encoding: 537 9632 537
Width: 409
VWidth: 0
Flags: W
HStem: -137 68<67 134 200 267 334 400> -68 68<0 67 134 200 267 334> 0 68<67 134 200 267 334 400> 68 68<0 67 134 200 267 334> 137 68<67 134 200 267 334 400> 205 68<0 67 134 200 267 334> 273 68<67 134 200 267 334 400> 341 68<0 67 134 200 267 334> 410 68<67 134 200 267 334 400> 478 68<0 67 134 200 267 334>
VStem: 0 68<-67 0 67 134 200 267 334 400 466 533> 68 68<-134 -67 0 67 134 200 267 334 400 466> 137 68<-67 0 67 134 200 267 334 400 466 533> 205 68<-134 -67 0 67 134 200 267 334 400 466> 273 68<-67 0 67 134 200 267 334 400 466 533> 341 68<-134 -67 0 67 134 200 267 334 400 466>
LayerCount: 2
Back
Fore
SplineSet
0 546 m 25x0060
 68 546 l 25x0060
 68 478 l 25x00a0
 137 478 l 25x0090
 137 546 l 25
 205 546 l 25x0048
 205 478 l 25x0088
 273 478 l 25x0084
 273 546 l 25
 341 546 l 25x0042
 341 478 l 25x0082
 410 478 l 25
 410 410 l 25x0081
 341 410 l 25x0102
 341 478 l 25x0082
 273 478 l 25x0084
 273 410 l 25x0104
 205 410 l 25x0108
 205 478 l 25x0088
 137 478 l 25x0090
 137 410 l 25x0110
 205 410 l 25x0108
 205 341 l 25x0208
 273 341 l 25x0204
 273 410 l 25x0104
 341 410 l 25x0102
 341 341 l 25x0202
 410 341 l 25
 410 273 l 25x0201
 341 273 l 25x0402
 341 341 l 25x0202
 273 341 l 25x0204
 273 273 l 25x0404
 205 273 l 25x0408
 205 341 l 25x0208
 137 341 l 25x0210
 137 273 l 25x0410
 205 273 l 25x0408
 205 205 l 25x0808
 273 205 l 25x0804
 273 273 l 25x0404
 341 273 l 25x0402
 341 205 l 25x0802
 410 205 l 25
 410 137 l 25x0801
 341 137 l 25x1002
 341 205 l 25x0802
 273 205 l 25x0804
 273 137 l 25x1004
 205 137 l 25x1008
 205 205 l 25x0808
 137 205 l 25x0810
 137 137 l 25x1010
 205 137 l 25x1008
 205 68 l 25x2008
 273 68 l 25x2004
 273 137 l 25x1004
 341 137 l 25x1002
 341 68 l 25x2002
 410 68 l 25
 410 0 l 25x2001
 341 0 l 25x4002
 341 68 l 25x2002
 273 68 l 25x2004
 273 0 l 25x4004
 205 0 l 25x4008
 205 68 l 25x2008
 137 68 l 25x2010
 137 0 l 25x4010
 205 0 l 25x4008
 205 -68 l 25x8008
 273 -68 l 25x8004
 273 0 l 25x4004
 341 0 l 25x4002
 341 -68 l 25x8002
 410 -68 l 25
 410 -137 l 25
 341 -137 l 25x8001
 341 -68 l 25x8002
 273 -68 l 25
 273 -137 l 25
 205 -137 l 25x8004
 205 -68 l 25x8008
 137 -68 l 25x8010
 137 0 l 25x4010
 68 0 l 25x4020
 68 -68 l 25x8020
 137 -68 l 25
 137 -137 l 25
 68 -137 l 25x8010
 68 -68 l 25x8020
 0 -68 l 25
 0 0 l 25
 68 0 l 25x4020
 68 68 l 25x2020
 137 68 l 25x2010
 137 137 l 25x1010
 68 137 l 25x1020
 68 68 l 25x2020
 0 68 l 25
 0 137 l 25
 68 137 l 25x1020
 68 205 l 25x0820
 137 205 l 25x0810
 137 273 l 25x0410
 68 273 l 25x0420
 68 205 l 25x0820
 0 205 l 25
 0 273 l 25
 68 273 l 25x0420
 68 341 l 25x0220
 137 341 l 25x0210
 137 410 l 25x0110
 68 410 l 25x0120
 68 341 l 25x0220
 0 341 l 25
 0 410 l 25
 68 410 l 25x0120
 68 478 l 25x00a0
 0 478 l 25
 0 546 l 25x0060
EndSplineSet
EndChar

StartChar: uni25B6
Encoding: 538 9654 538
Width: 409
VWidth: 0
Flags: W
HStem: -137 341<0 400>
VStem: 0 410<-134 200>
LayerCount: 2
Back
Fore
SplineSet
0 205 m 25
 410 205 l 25
 410 -137 l 25
 0 -137 l 25
 0 205 l 25
EndSplineSet
EndChar

StartChar: uni25C0
Encoding: 539 9664 539
Width: 409
VWidth: 0
Flags: W
HStem: 0 0G<67 134> 205 68<267 334> 478 0G<67 134>
VStem: 68 205<134 200 267 334> 68 137<67 134 334 400> 68 68<0 67 400 466>
LayerCount: 2
Back
Fore
SplineSet
68 478 m 25xe4
 137 478 l 25
 137 410 l 25xe4
 205 410 l 25
 205 341 l 25xe8
 273 341 l 25
 273 273 l 25
 341 273 l 25
 341 205 l 25
 273 205 l 25
 273 137 l 25xf0
 205 137 l 25
 205 68 l 25xe8
 137 68 l 25
 137 0 l 25
 68 0 l 25
 68 478 l 25xe4
EndSplineSet
EndChar

StartChar: diamond
Encoding: 540 9830 540
Width: 409
VWidth: 0
Flags: W
HStem: 0 0G<267 334> 205 68<67 134> 478 0G<267 334>
VStem: 137 205<134 200 267 334> 205 137<67 134 334 400> 273 68<0 67 400 466>
LayerCount: 2
Back
Fore
SplineSet
273 478 m 25xe4
 341 478 l 25
 341 0 l 25
 273 0 l 25
 273 68 l 25xe4
 205 68 l 25
 205 137 l 25xe8
 137 137 l 25
 137 205 l 25
 68 205 l 25
 68 273 l 25
 137 273 l 25
 137 341 l 25xf0
 205 341 l 25
 205 410 l 25xe8
 273 410 l 25
 273 478 l 25xe4
EndSplineSet
EndChar

StartChar: uni2714
Encoding: 541 10004 541
Width: 409
VWidth: 0
Flags: W
HStem: 0 0G<134 200> 137 205<0 67 267 334> 478 0G<134 200>
VStem: 68 205<67 134 334 400> 137 68<0 67 400 466>
LayerCount: 2
Back
Fore
SplineSet
68 410 m 25xf0
 137 410 l 25
 137 478 l 25
 205 478 l 25
 205 410 l 25xe8
 273 410 l 25
 273 341 l 25
 341 341 l 25
 341 137 l 25
 273 137 l 25
 273 68 l 25xf0
 205 68 l 25
 205 0 l 25
 137 0 l 25
 137 68 l 25xe8
 68 68 l 25
 68 137 l 25
 0 137 l 25
 0 341 l 25
 68 341 l 25
 68 410 l 25xf0
EndSplineSet
EndChar

StartChar: uni271A
Encoding: 542 10010 542
Width: 409
VWidth: 0
Flags: W
HStem: 0 68<134 200> 68 68<67 134> 341 68<334 400>
VStem: 68 68<67 134> 205 68<67 200> 273 68<200 334> 341 68<334 400>
LayerCount: 2
Back
Fore
SplineSet
68 137 m 25x78
 137 137 l 25x78
 137 68 l 25
 205 68 l 25
 205 205 l 25
 273 205 l 25xb8
 273 341 l 25
 341 341 l 25xb4
 341 410 l 25
 410 410 l 25
 410 341 l 25xb2
 341 341 l 25
 341 205 l 25xb4
 273 205 l 25
 273 68 l 25x78
 205 68 l 25
 205 0 l 25
 137 0 l 25
 137 68 l 25xb8
 68 68 l 25
 68 137 l 25x78
EndSplineSet
EndChar

StartChar: H18533
Encoding: 543 9679 543
Width: 409
VWidth: 0
Flags: W
HStem: 0 0G<134 267> 137 137<0 134 267 400> 410 0G<134 267>
VStem: 137 137<0 134 267 400>
LayerCount: 2
Back
Fore
SplineSet
0 273 m 25
 137 273 l 25
 137 410 l 25
 273 410 l 25
 273 273 l 25
 410 273 l 25
 410 137 l 25
 273 137 l 25
 273 0 l 25
 137 0 l 25
 137 137 l 25
 0 137 l 25
 0 273 l 25
EndSplineSet
EndChar

